<svg width="84" height="84" viewBox="0 0 84 84" fill="none" xmlns="http://www.w3.org/2000/svg">
<path d="M42 68C60.7777 68 76 52.7777 76 34C76 15.2223 60.7777 0 42 0C23.2223 0 8 15.2223 8 34C8 52.7777 23.2223 68 42 68Z" fill="#C3C2C8"/>
<g filter="url(#filter0_d_6_67)">
<path d="M42 60C56.3594 60 68 48.3594 68 34C68 19.6406 56.3594 8 42 8C27.6406 8 16 19.6406 16 34C16 48.3594 27.6406 60 42 60Z" fill="#FF5460"/>
</g>
<mask id="mask0_6_67" style="mask-type:alpha" maskUnits="userSpaceOnUse" x="16" y="8" width="52" height="52">
<path d="M42 60C56.3594 60 68 48.3594 68 34C68 19.6406 56.3594 8 42 8C27.6406 8 16 19.6406 16 34C16 48.3594 27.6406 60 42 60Z" fill="white"/>
</mask>
<g mask="url(#mask0_6_67)">
<path fill-rule="evenodd" clip-rule="evenodd" d="M51.3239 35.3241H43.3239V43.3241H40.6572V35.3241H32.6572V32.6575H40.6572V24.6575H43.3239V32.6575H51.3239V35.3241Z" fill="#FCFCFD"/>
</g>
<defs>
<filter id="filter0_d_6_67" x="0" y="0" width="84" height="84" filterUnits="userSpaceOnUse" color-interpolation-filters="sRGB">
<feFlood flood-opacity="0" result="BackgroundImageFix"/>
<feColorMatrix in="SourceAlpha" type="matrix" values="0 0 0 0 0 0 0 0 0 0 0 0 0 0 0 0 0 0 127 0" result="hardAlpha"/>
<feOffset dy="8"/>
<feGaussianBlur stdDeviation="8"/>
<feColorMatrix type="matrix" values="0 0 0 0 1 0 0 0 0 0.2 0 0 0 0 0.47076 0 0 0 0.2 0"/>
<feBlend mode="normal" in2="BackgroundImageFix" result="effect1_dropShadow_6_67"/>
<feBlend mode="normal" in="SourceGraphic" in2="effect1_dropShadow_6_67" result="shape"/>
</filter>
</defs>
</svg>
