<svg width="83" height="81" viewBox="0 0 83 81" fill="none" xmlns="http://www.w3.org/2000/svg">
<path d="M12.6582 28.1836H70.4438V69.563H12.6582L12.6582 28.1836Z" fill="#F5F5F5"/>
<path d="M65.207 30.5974H75.0161V66.6899H65.207L65.207 30.5974Z" fill="#F0F0F0"/>
<path d="M17.562 66.0472H7.75293V31.8608H17.562V66.0472Z" fill="#F0F0F0"/>
<path d="M62.4053 27.4937H77.8193V30.9421C77.8193 32.4656 76.5649 33.7003 75.0171 33.7003H65.208C63.6597 33.7003 62.4053 32.4656 62.4053 30.9421L62.4053 27.4937Z" fill="#D4D7D9"/>
<path d="M65.208 64.0452H75.0171C76.5649 64.0452 77.8193 65.2805 77.8193 66.804V70.2524H62.4053V66.804C62.4053 65.2805 63.6597 64.0452 65.208 64.0452Z" fill="#D4D7D9"/>
<path d="M17.5634 33.7003H7.7543C6.20658 33.7003 4.95215 32.4656 4.95215 30.9421V27.4937H20.3662V30.9421C20.3662 32.4656 19.1117 33.7003 17.5634 33.7003Z" fill="#D4D7D9"/>
<path d="M20.3662 70.2524H4.95215V66.804C4.95215 65.2805 6.20658 64.0452 7.7543 64.0452H17.5634C19.1117 64.0452 20.3662 65.2805 20.3662 66.804V70.2524Z" fill="#D4D7D9"/>
<path d="M3.5498 20.8733H80.6212V26.8041C80.6212 27.5658 79.9937 28.1835 79.2198 28.1835H4.95119C4.17733 28.1835 3.5498 27.5658 3.5498 26.8041V20.8733Z" fill="#005EEE"/>
<path d="M40.7153 63.2798C49.0736 63.2798 55.8494 56.7184 55.8494 48.6245C55.8494 40.5306 49.0736 33.9692 40.7153 33.9692C32.3569 33.9692 25.5811 40.5306 25.5811 48.6245C25.5811 56.7184 32.3569 63.2798 40.7153 63.2798Z" fill="#FFD300"/>
<path d="M40.7156 63.2804C49.0742 63.2804 55.8501 56.7189 55.8501 48.6248V48.5947C55.85 48.5923 55.85 48.5901 55.85 48.5877V48.5752L55.8499 48.5693V48.5569C55.8498 48.5548 55.8498 48.5524 55.8498 48.5503V48.5446C55.8497 48.5421 55.8497 48.54 55.8497 48.5377V48.5323C55.8498 48.5297 55.8498 48.5274 55.8498 48.5249L55.8497 48.5196C55.8497 48.5172 55.8497 48.5145 55.8496 48.5121V48.5074C55.8495 48.5044 55.8495 48.5016 55.8495 48.4986L55.8494 48.4949C55.8494 48.4906 55.8493 48.4868 55.8493 48.4824V48.4807C55.8493 48.4771 55.8492 48.4737 55.8492 48.4702V48.4655L55.8491 48.4576V48.4529L55.849 48.4451L55.8489 48.4402L55.8488 48.4327C55.8487 48.4312 55.8487 48.429 55.8487 48.4275L55.8486 48.4206L55.8485 48.4149L55.8484 48.4079L55.8483 48.4026C55.8483 48.4001 55.8482 48.3978 55.8482 48.3955C55.8482 48.3935 55.8482 48.3921 55.8481 48.3902C55.8481 48.3877 55.848 48.3852 55.848 48.3827L55.8479 48.3777L55.8478 48.3699L55.8477 48.3654L55.8475 48.3542L55.8474 48.3531L55.8472 48.3405L55.8471 48.3374L55.8469 48.3281L55.8468 48.3235C55.8468 48.321 55.8466 48.3182 55.8466 48.3158L55.8465 48.3104L55.8464 48.3033L55.8463 48.298C55.8462 48.2956 55.8462 48.2933 55.8462 48.2909C55.8461 48.2889 55.8461 48.2872 55.8461 48.2853L55.8459 48.2786C55.8459 48.2766 55.8458 48.275 55.8458 48.273L55.8457 48.266L55.8456 48.2606L55.8454 48.2531L55.8453 48.2485C55.8452 48.2458 55.8452 48.2428 55.845 48.2401L55.8449 48.236L55.8446 48.2272L55.8445 48.2235C55.8444 48.22 55.8442 48.2161 55.8442 48.2126L55.8441 48.2091C55.844 48.2056 55.8438 48.2022 55.8438 48.1987L55.8437 48.1951C55.8436 48.1921 55.8436 48.1893 55.8434 48.1863L55.8433 48.1819L55.8431 48.174L55.8429 48.1692L55.8427 48.1617L55.8425 48.1566C55.8424 48.1542 55.8424 48.1516 55.8422 48.1492L55.8421 48.1441C55.842 48.1417 55.842 48.1394 55.8418 48.1371L55.8416 48.1315L55.8414 48.1248L55.8412 48.1191C55.8411 48.117 55.8411 48.1146 55.8409 48.1124L55.8407 48.1069C55.8406 48.1042 55.8406 48.1018 55.8404 48.0991L55.8403 48.0948L55.8399 48.0853L55.8398 48.0823C55.8396 48.078 55.8395 48.0742 55.8393 48.0699L55.8391 48.0683L55.8386 48.0575L55.8385 48.0535C55.8384 48.0508 55.8382 48.048 55.8382 48.0453L55.838 48.0404L55.8377 48.0331L55.8375 48.0277C55.8374 48.0252 55.8373 48.023 55.8372 48.0207L55.8369 48.0153L55.8366 48.0083C55.8365 48.0064 55.8364 48.0047 55.8363 48.0027L55.836 47.9959L55.8358 47.9907C55.8357 47.9883 55.8356 47.9856 55.8355 47.9831L55.8353 47.9784L55.8349 47.9698L55.8347 47.9663L55.8343 47.9567L55.8342 47.9538L55.833 47.9288L55.8329 47.927C55.8328 47.9235 55.8326 47.9198 55.8324 47.9164L55.8322 47.9133C55.8321 47.9104 55.8319 47.9071 55.8317 47.9042L55.8314 47.9L55.831 47.8917L55.8308 47.8875C55.8306 47.8846 55.8305 47.8823 55.8303 47.8794L55.8301 47.8751L55.8296 47.8668L55.8294 47.8625C55.8293 47.8601 55.8291 47.8571 55.829 47.8547C55.8289 47.8533 55.8288 47.8515 55.8287 47.85L55.8282 47.8419L55.828 47.8379C55.8278 47.8349 55.8277 47.832 55.8275 47.829L55.8273 47.8255C55.8272 47.8222 55.827 47.8189 55.8268 47.8158L55.8267 47.8131L55.826 47.8008L55.8259 47.7991L55.8252 47.7883L55.825 47.785C55.8249 47.782 55.8247 47.779 55.8245 47.776L55.8243 47.7717L55.8237 47.7639L55.8234 47.7588C55.8233 47.7565 55.8231 47.7541 55.8229 47.7517C55.8228 47.7502 55.8227 47.7478 55.8226 47.7463L55.8222 47.7392L55.8219 47.7343L55.8214 47.727L55.8211 47.7218C55.821 47.7194 55.8208 47.7169 55.8206 47.7145L55.8203 47.7096C55.8201 47.7072 55.82 47.7046 55.8198 47.7021L55.8195 47.6971C55.8194 47.6945 55.8192 47.6915 55.819 47.6889L55.8188 47.6851L55.8181 47.6749L55.8179 47.6727L55.8171 47.6601L55.817 47.6599L55.8161 47.648L55.8159 47.6445L55.8152 47.6356L55.8149 47.6319L55.8144 47.6234L55.8141 47.619L55.8135 47.6111L55.8132 47.6065C55.8131 47.6039 55.8129 47.6016 55.8127 47.599L55.8124 47.5941L55.8119 47.5863L55.8116 47.5818L55.811 47.574L55.8107 47.5695L55.8101 47.5612L55.8098 47.5573C55.8096 47.5541 55.8093 47.5511 55.809 47.5478L55.8087 47.545C55.8081 47.5368 55.8075 47.5282 55.8069 47.5201L55.8068 47.5192C55.8065 47.5155 55.8062 47.5114 55.8059 47.5077L55.8057 47.5055L55.805 47.4955L55.8047 47.4921L55.804 47.4832L55.8037 47.4797C55.8034 47.4768 55.8032 47.4738 55.803 47.4708L55.8027 47.467L55.802 47.4586L55.8017 47.4545C55.8013 47.4516 55.8011 47.4492 55.8009 47.4463L55.8005 47.4421C55.8003 47.4391 55.8 47.4363 55.7998 47.4333L55.7995 47.43C55.7992 47.4268 55.799 47.4239 55.7987 47.4207L55.7984 47.4175L55.7976 47.4067L55.7975 47.4053C55.7971 47.4011 55.7968 47.3971 55.7965 47.3929L55.7964 47.3923C55.7961 47.3884 55.7957 47.3844 55.7954 47.3805L55.7952 47.3779L55.7944 47.3686L55.794 47.3642C55.7936 47.3616 55.7934 47.3587 55.7932 47.3561L55.7928 47.352L55.7921 47.3441L55.7916 47.3395L55.7909 47.3316L55.7905 47.3273C55.7902 47.3247 55.79 47.3218 55.7898 47.3193L55.7894 47.3152L55.7886 47.3067L55.7883 47.3029L55.7875 47.2946L55.7871 47.2904C55.7868 47.2873 55.7866 47.2845 55.7862 47.2814L55.7859 47.2784C55.7851 47.2702 55.7843 47.2618 55.7836 47.2536L55.7835 47.2526C55.7832 47.2489 55.7828 47.2452 55.7825 47.2415L55.7822 47.2382C55.7819 47.2351 55.7816 47.2323 55.7814 47.2291L55.7811 47.2257C55.7808 47.2227 55.7805 47.2197 55.7802 47.2167L55.7798 47.2128L55.7789 47.2048C55.7788 47.2034 55.7786 47.2016 55.7784 47.2001L55.7777 47.1928L55.7772 47.1878L55.7764 47.1801L55.776 47.176C55.7757 47.1731 55.7754 47.1705 55.7752 47.1676L55.7748 47.1636L55.7738 47.1544L55.7735 47.1516C55.7732 47.1481 55.7728 47.1445 55.7724 47.1411L55.7723 47.1393C55.7713 47.1308 55.7704 47.1228 55.7696 47.1144L55.7695 47.1137L55.7683 47.1022L55.768 47.0991C55.7677 47.0963 55.7674 47.0932 55.7671 47.0903L55.7666 47.086L55.7658 47.078L55.7653 47.0736L55.7645 47.066L55.764 47.0613L55.7631 47.0536L55.7626 47.049L55.7618 47.0414L55.7613 47.0369C55.761 47.0343 55.7606 47.0315 55.7604 47.0289L55.7599 47.0248C55.7596 47.0221 55.7592 47.019 55.759 47.0163L55.7585 47.0126L55.7575 47.0036L55.7571 47.0003L55.7556 46.9883L55.7555 46.9869L55.7543 46.9761L55.7539 46.9727L55.7529 46.9639L55.7524 46.96C55.7521 46.9573 55.7517 46.9543 55.7514 46.9516L55.7509 46.9479L55.7499 46.9395L55.7494 46.9355L55.7483 46.9274L55.7478 46.9231C55.7475 46.9204 55.7472 46.9177 55.7469 46.9151L55.7464 46.911C55.7461 46.9082 55.7458 46.9056 55.7454 46.9028L55.7449 46.8989L55.7439 46.8909L55.7434 46.8865L55.7424 46.8782L55.7419 46.8746C55.7415 46.8712 55.741 46.8674 55.7405 46.864L55.7403 46.8625C55.7393 46.8544 55.7383 46.8462 55.7373 46.8382L55.7369 46.8348C55.7365 46.8319 55.7362 46.829 55.7358 46.8261L55.7353 46.8221L55.7343 46.8141L55.7337 46.8098L55.7327 46.8018L55.7322 46.7977L55.7312 46.79L55.7306 46.7852L55.7296 46.7778L55.729 46.7731L55.728 46.7652L55.7275 46.7613C55.727 46.7581 55.7267 46.7551 55.7262 46.7519L55.7259 46.7492L55.7245 46.739L55.7242 46.7369L55.7209 46.7124L55.7207 46.7106L55.7193 46.7004L55.7188 46.6969L55.7176 46.6884L55.717 46.6843L55.716 46.6763L55.7154 46.6723L55.7143 46.6641L55.7138 46.6601C55.7134 46.6575 55.713 46.6546 55.7127 46.6519L55.7121 46.6478L55.711 46.64C55.7107 46.6385 55.7105 46.6369 55.7103 46.6354L55.7092 46.6273L55.7087 46.6238L55.7074 46.6145L55.707 46.6116L55.7054 46.6001L55.7053 46.5996C55.7041 46.5913 55.7029 46.5832 55.7017 46.5749L55.7015 46.5736L55.7 46.563L55.6995 46.5597L55.6982 46.5508L55.6977 46.5473L55.6965 46.5391L55.6957 46.5349L55.6945 46.5268L55.694 46.5231C55.6935 46.5202 55.6932 46.5177 55.6928 46.5148L55.6922 46.5108C55.6918 46.508 55.6914 46.5051 55.691 46.5023L55.6905 46.4989L55.6892 46.49L55.6887 46.4869L55.687 46.4762L55.6868 46.475L55.6811 46.4381L55.6809 46.4367C55.6804 46.4331 55.6799 46.4296 55.6793 46.426L55.6789 46.4236L55.6775 46.414L55.677 46.4109C55.6765 46.408 55.676 46.4047 55.6756 46.4019L55.6751 46.3989C55.6746 46.3958 55.6741 46.3929 55.6737 46.3898L55.6731 46.3866C55.6726 46.3834 55.6721 46.3804 55.6717 46.3773L55.6712 46.3748L55.6697 46.365L55.6693 46.3626L55.6675 46.3516L55.6674 46.3506C55.6667 46.3465 55.6661 46.3427 55.6653 46.3386V46.3385C55.6633 46.326 55.6613 46.3138 55.6593 46.3014L55.6592 46.3004L55.6573 46.2897L55.6568 46.2866L55.6552 46.2774L55.6547 46.2746L55.6532 46.2655L55.6527 46.2623L55.6512 46.2533L55.6506 46.2502L55.6492 46.2414L55.6486 46.2381L55.647 46.2284L55.6467 46.2262C55.646 46.2226 55.6455 46.2191 55.6449 46.2156L55.6447 46.2142C55.6425 46.2019 55.6404 46.1899 55.6383 46.1775L55.638 46.1762C55.6374 46.1726 55.6368 46.1692 55.6362 46.1655L55.6356 46.1628L55.634 46.1535L55.6335 46.1505L55.632 46.1416L55.6313 46.138C55.6308 46.1351 55.6303 46.1322 55.6298 46.1293L55.6292 46.1262L55.6275 46.1172L55.627 46.1141C55.6264 46.1111 55.6259 46.108 55.6254 46.1049L55.6249 46.102C55.6244 46.099 55.6238 46.0959 55.6233 46.0928L55.6228 46.0899L55.6207 46.0788L55.6206 46.0782C55.6184 46.0658 55.6162 46.0538 55.614 46.0414L55.6139 46.0407C55.6131 46.0369 55.6124 46.0331 55.6118 46.0293L55.6115 46.0279L55.6095 46.0174L55.6091 46.0153C55.6085 46.012 55.6079 46.0086 55.6073 46.0053L55.6068 46.003C55.6063 46 55.6056 45.9967 55.605 45.9936L55.6044 45.9906L55.6026 45.9811L55.6021 45.9787C55.6015 45.9753 55.6009 45.9721 55.6003 45.9688L55.5999 45.9667C55.5992 45.9631 55.5985 45.9594 55.5978 45.9559L55.5976 45.9547C55.5945 45.9383 55.5915 45.9224 55.5883 45.9061L55.588 45.9045L55.586 45.8942L55.5855 45.8915C55.5849 45.8882 55.5844 45.8856 55.5837 45.8823L55.5831 45.8795L55.5813 45.8701L55.5808 45.8674C55.5802 45.8643 55.5796 45.861 55.5789 45.8579L55.5784 45.8555L55.5765 45.8457L55.576 45.8433L55.5738 45.8328L55.5736 45.8317C55.5728 45.8278 55.572 45.8239 55.5713 45.8201L55.5712 45.8196C55.5679 45.8035 55.5647 45.7871 55.5614 45.771L55.5611 45.7694L55.5589 45.7589L55.5585 45.757C55.5578 45.7539 55.5571 45.7503 55.5565 45.7473L55.5559 45.7445C55.5552 45.7415 55.5546 45.7382 55.554 45.7352L55.5534 45.7325C55.5527 45.7295 55.552 45.7262 55.5514 45.7231L55.5509 45.7208L55.5488 45.7106L55.5485 45.7089L55.5463 45.6981L55.546 45.6969C55.5417 45.6765 55.5374 45.6565 55.5331 45.6362L55.533 45.6358C55.5322 45.632 55.5314 45.6281 55.5305 45.6243L55.5302 45.6228C55.5294 45.6193 55.5288 45.6161 55.528 45.6124L55.5276 45.6105L55.5255 45.6006L55.525 45.5982L55.5228 45.5881L55.5225 45.5866L55.5202 45.5758L55.5199 45.5745C55.5155 45.5544 55.511 45.5341 55.5065 45.514V45.5139L55.504 45.5025L55.5035 45.5003C55.5028 45.497 55.5021 45.4939 55.5013 45.4905L55.5008 45.4883C55.5 45.4852 55.4993 45.4819 55.4986 45.4789L55.4979 45.4761C55.4972 45.4731 55.4965 45.4699 55.4958 45.4669L55.4952 45.4641C55.4945 45.4611 55.4938 45.4581 55.4931 45.4551L55.4924 45.4523C55.4917 45.4489 55.4909 45.4458 55.4902 45.4424L55.4897 45.4406L55.4872 45.4295L55.487 45.4288C55.4842 45.4166 55.4814 45.4048 55.4787 45.3926L55.4785 45.3918C55.4776 45.3883 55.4767 45.3844 55.4759 45.3809L55.4754 45.3787C55.4747 45.3753 55.474 45.3723 55.4732 45.3689L55.4727 45.3666L55.4704 45.3571L55.4697 45.3544C55.469 45.3514 55.4683 45.3482 55.4676 45.3452L55.4669 45.3425L55.4647 45.3331L55.4642 45.3307L55.4616 45.3204L55.4613 45.3192C55.4605 45.3154 55.4597 45.3121 55.4588 45.3084L55.4585 45.3071C55.4546 45.2909 55.4508 45.2752 55.4468 45.2591C55.4467 45.2586 55.4468 45.2591 55.4467 45.2586C55.4457 45.2546 55.4449 45.2513 55.444 45.2472L55.4437 45.246L55.4412 45.2355L55.4408 45.2337C55.4398 45.2302 55.439 45.2268 55.4382 45.2233L55.4378 45.2218L55.4354 45.2118L55.4348 45.2095L55.4323 45.1994L55.4319 45.1979L55.4292 45.1869L55.429 45.1862C55.423 45.1621 55.417 45.1383 55.411 45.1142L55.4108 45.1134C55.4098 45.1096 55.4089 45.1059 55.4079 45.1022L55.4077 45.1013L55.4049 45.0904L55.4046 45.0891L55.4017 45.0782L55.4015 45.0773L55.3988 45.0665L55.3985 45.0651C55.3913 45.0372 55.384 45.0092 55.3767 44.9814H55.3766L55.3735 44.9696L55.3734 44.9691L55.3702 44.9574L55.3672 44.946L55.3669 44.9451L55.3638 44.9337C55.3637 44.9332 55.3638 44.9338 55.3637 44.9333C55.3563 44.9055 55.3487 44.8776 55.3411 44.85L55.3408 44.8488C55.3398 44.8451 55.3388 44.8416 55.3379 44.8379L55.3376 44.8371C55.3367 44.8336 55.3356 44.8298 55.3346 44.8263L55.3342 44.8249C55.3333 44.8214 55.3322 44.8175 55.3313 44.814L55.3311 44.8135C55.3234 44.7856 55.3157 44.7582 55.3078 44.7303L55.3076 44.7296L55.3044 44.7185L55.3042 44.7177L55.3011 44.7067L55.3008 44.7058L55.2977 44.6946L55.2976 44.6941C55.2964 44.6904 55.2954 44.6867 55.2943 44.6829L55.294 44.6821C55.286 44.6544 55.278 44.6269 55.2699 44.5992V44.599C55.2688 44.5953 55.2677 44.5914 55.2665 44.5876L55.2662 44.5867L55.2629 44.5756L55.2628 44.5751C55.2617 44.5713 55.2606 44.5676 55.2594 44.5639L55.2591 44.5631C55.2497 44.5314 55.2403 44.5004 55.2308 44.4688L55.2306 44.4683L55.2272 44.4571L55.2269 44.4563L55.2236 44.4456L55.2232 44.4445C55.222 44.4407 55.221 44.4372 55.2198 44.4335L55.2197 44.433C55.2112 44.4054 55.2027 44.378 55.1941 44.3504C55.1929 44.3465 55.1916 44.3428 55.1904 44.3389L55.1903 44.3385L55.1867 44.3271L55.1866 44.3267C55.1854 44.3228 55.1842 44.3191 55.1829 44.3152V44.3151L55.1793 44.3036L55.1792 44.3033C55.1692 44.2721 55.1592 44.2409 55.1491 44.2098L55.1488 44.2087L55.1452 44.1978L55.145 44.1972C55.1336 44.162 55.122 44.1272 55.1102 44.092L55.1063 44.0805L55.1061 44.08L55.1025 44.0693L55.1021 44.068L55.0983 44.057L55.0982 44.0568C55.0891 44.0298 55.0798 44.0025 55.0704 43.9755L55.07 43.9744L55.0664 43.9638L55.0661 43.9629L55.0624 43.9523L55.062 43.9511L55.0584 43.9404L55.0581 43.9397C55.0472 43.9087 55.0365 43.8781 55.0254 43.8472L55.0253 43.8467C55.024 43.843 55.0227 43.8394 55.0215 43.8358L55.0211 43.8348L55.0174 43.8243L55.017 43.8233C55.0158 43.82 55.0145 43.8163 55.0133 43.8129L55.0129 43.8118C55.0018 43.7811 54.9907 43.7504 54.9795 43.7198L54.9794 43.7194C54.978 43.7156 54.9768 43.7121 54.9754 43.7083L54.9752 43.7077C54.9738 43.7041 54.9726 43.7007 54.9713 43.6972L54.9708 43.6959C54.9255 43.5732 54.8785 43.4507 54.8299 43.3295L54.8296 43.3288C54.8144 43.2908 54.7991 43.2532 54.7836 43.2153L54.7835 43.2152C54.7819 43.2114 54.7804 43.2078 54.7789 43.204L54.7788 43.2039C54.7648 43.1698 54.7507 43.1359 54.7364 43.102C54.7362 43.1016 54.7365 43.1022 54.7363 43.1018C54.7172 43.0566 54.6982 43.0118 54.6786 42.9668L54.6784 42.9664C54.646 42.8913 54.6131 42.8171 54.5794 42.7427L54.5791 42.742L54.5742 42.7314L54.5741 42.7311C54.5724 42.7274 54.5709 42.724 54.5692 42.7202L54.5691 42.72C54.5556 42.6903 54.5419 42.6608 54.5282 42.6311L54.5281 42.6309C54.5264 42.6272 54.5248 42.6239 54.5232 42.6202L54.5229 42.6196C54.5212 42.6162 54.5197 42.6129 54.5181 42.6094L54.5176 42.6084C54.5039 42.5791 54.4901 42.5498 54.4762 42.5204L54.476 42.5199C54.4742 42.5162 54.4727 42.5129 54.4709 42.5092L54.4658 42.4986L54.4655 42.4978L54.4605 42.4874L54.4602 42.487C54.4585 42.4833 54.4569 42.48 54.4552 42.4762L54.455 42.4761C54.4428 42.4502 54.4304 42.4248 54.418 42.3991L54.4178 42.3987L54.4128 42.3885L54.4123 42.3874L54.4074 42.3775L54.407 42.3766C54.4054 42.3732 54.4037 42.3698 54.402 42.3663L54.4017 42.3658C54.3875 42.3365 54.3732 42.3076 54.3587 42.2784L54.3586 42.2781C54.3549 42.2708 54.3515 42.264 54.3479 42.2566L54.3476 42.2561C54.333 42.227 54.3185 42.198 54.3038 42.169L54.3037 42.1688L54.2984 42.1582C54.2982 42.1578 54.2985 42.1583 54.2983 42.1579L54.2929 42.1474L54.2926 42.1469L54.2872 42.1363L54.2871 42.1362C54.2723 42.1071 54.2575 42.0784 54.2424 42.0494L54.2422 42.049C54.2404 42.0454 54.2388 42.0423 54.2368 42.0386L54.2365 42.0381C54.2159 41.9984 54.1953 41.9592 54.1742 41.9197L54.174 41.9192C54.1722 41.9159 54.1704 41.9125 54.1686 41.9091L54.1682 41.9083C54.153 41.8798 54.1375 41.8511 54.1222 41.8227L54.122 41.8223C54.12 41.8188 54.1183 41.8155 54.1163 41.8118L54.1162 41.8117C54.1143 41.8082 54.1124 41.8047 54.1105 41.801C54.0929 41.7689 54.0753 41.7368 54.0576 41.7047V41.7046C54.0557 41.7012 54.0537 41.6976 54.0518 41.6943L54.0513 41.6935L54.0457 41.6833L54.0456 41.6832C54.0278 41.6512 54.0099 41.6195 53.992 41.5876L53.9917 41.5871C53.9897 41.5836 53.9879 41.5805 53.9859 41.577L53.9856 41.5765L53.98 41.5665L53.9796 41.5659C53.9635 41.5376 53.9476 41.5097 53.9313 41.4815L53.9312 41.4814L53.9252 41.4711C53.925 41.4707 53.9253 41.4712 53.925 41.4708L53.9193 41.4609L53.9187 41.4599L53.9129 41.45L53.9127 41.4497L53.907 41.4397L53.9067 41.4391C53.8944 41.418 53.8822 41.3973 53.8699 41.3763L53.8696 41.3758C53.8655 41.369 53.8616 41.3624 53.8576 41.3556L53.857 41.3546C53.8551 41.3514 53.8532 41.3481 53.8512 41.3449L53.8509 41.3444C53.8344 41.3164 53.8179 41.2888 53.8011 41.2608C53.8008 41.2604 53.8013 41.2612 53.801 41.2608L53.7948 41.2506L53.7944 41.2499C53.7925 41.2468 53.7905 41.2434 53.7887 41.2404L53.788 41.2393L53.7824 41.2302L53.7816 41.2288C53.7649 41.2012 53.7483 41.1738 53.7313 41.1463L53.7308 41.1456C53.7267 41.1389 53.7226 41.1322 53.7185 41.1254L53.7183 41.1251C53.7161 41.1216 53.7142 41.1186 53.7121 41.1151L53.7118 41.1147C53.6968 41.0905 53.682 41.0666 53.6669 41.0425L53.6668 41.0423L53.6604 41.0322L53.6603 41.032C53.6583 41.0288 53.6561 41.0253 53.6541 41.0221L53.6536 41.0213C53.6518 41.0183 53.6495 41.0148 53.6476 41.0118L53.6472 41.0111L53.6411 41.0015L53.6407 41.0009C53.6234 40.9734 53.6063 40.9463 53.5887 40.919L53.5884 40.9185L53.5822 40.9088L53.5819 40.9082C53.5798 40.9049 53.5779 40.9018 53.5758 40.8985L53.5754 40.8979C53.5578 40.8705 53.5405 40.8438 53.5227 40.8165L53.5221 40.8158C53.5201 40.8127 53.5181 40.8095 53.516 40.8063L53.5157 40.8058C53.5134 40.8024 53.5116 40.7995 53.5093 40.7961L53.509 40.7957L53.5025 40.7859L53.5023 40.7856C53.5002 40.7821 53.498 40.779 53.4958 40.7756L53.4957 40.7755C53.4823 40.7551 53.4688 40.7347 53.4555 40.7145L53.4554 40.7144L53.4489 40.7046L53.4484 40.7038L53.4423 40.6947L53.4415 40.6935L53.4353 40.6843L53.4349 40.6837L53.4286 40.6743L53.4281 40.6736C53.4123 40.65 53.3966 40.6267 53.3807 40.6031C53.3804 40.6027 53.3808 40.6033 53.3806 40.6029C53.3784 40.5998 53.3763 40.5966 53.3741 40.5934L53.3734 40.5924C53.3712 40.5893 53.3692 40.5863 53.367 40.5831L53.3667 40.5827C53.3646 40.5796 53.3624 40.5764 53.3603 40.5733L53.3598 40.5725C53.3416 40.5458 53.3234 40.5192 53.3051 40.4926L53.3046 40.4919L53.2981 40.4825L53.2978 40.482L53.2913 40.4725L53.291 40.472C53.2701 40.442 53.2495 40.4124 53.2284 40.3825L53.2281 40.382L53.2217 40.3728L53.2209 40.3718C53.1977 40.339 53.1742 40.306 53.1509 40.2734L53.1504 40.2726C53.1483 40.2698 53.1459 40.2664 53.1439 40.2636L53.1433 40.2627C53.1413 40.2598 53.1393 40.257 53.1371 40.2541L53.1361 40.2527C53.134 40.2498 53.1318 40.2466 53.1296 40.2438L53.1292 40.2432C53.1126 40.2201 53.0962 40.1975 53.0794 40.1746L53.0789 40.1739L53.0722 40.1647L53.0717 40.1641L53.0649 40.1547L53.0646 40.1543C53.0454 40.1281 53.0262 40.1021 53.0068 40.0761L53.0067 40.076L52.9995 40.0664L52.9993 40.0661C52.9971 40.0631 52.9947 40.0599 52.9925 40.0569L52.9918 40.056L52.9851 40.0471L52.9846 40.0464L52.9776 40.0371L52.9775 40.037C52.9605 40.0142 52.9435 39.9915 52.9263 39.9689H52.9262L52.9191 39.9594L52.9186 39.9588C52.9165 39.9559 52.9141 39.9528 52.9119 39.9499L52.9111 39.9488L52.9046 39.9404L52.9037 39.9391C52.8842 39.9134 52.8646 39.8879 52.8449 39.8624L52.8446 39.862L52.8374 39.8527L52.8372 39.8524C52.8349 39.8493 52.8325 39.8463 52.8301 39.8432L52.8296 39.8427L52.8225 39.8336L52.8222 39.8331L52.8149 39.8237C52.8025 39.8077 52.79 39.7917 52.7774 39.7757H52.7773C52.775 39.7727 52.7725 39.7695 52.7702 39.7665L52.7693 39.7654C52.7672 39.7627 52.7649 39.7598 52.7626 39.757L52.7619 39.756L52.7554 39.7476L52.7543 39.7463C52.7522 39.7435 52.7501 39.7408 52.7479 39.738L52.747 39.7371L52.7399 39.7281L52.7396 39.7278C52.722 39.7056 52.7044 39.6834 52.6866 39.6612C52.6841 39.6581 52.6818 39.6551 52.6792 39.652L52.6787 39.6514L52.6714 39.6423L52.6711 39.6421L52.664 39.6332L52.6634 39.6324C52.6433 39.6073 52.6229 39.5821 52.6024 39.5571L52.6021 39.5566L52.5948 39.5476L52.5945 39.5472L52.5872 39.5383L52.5868 39.5379L52.5793 39.5287H52.5792C52.5586 39.5036 52.538 39.4785 52.5173 39.4535H52.5172C52.5147 39.4504 52.5122 39.4474 52.5095 39.4443L52.5093 39.4441C52.4833 39.4129 52.4573 39.3818 52.4311 39.3508C52.4259 39.3446 52.4206 39.3384 52.4154 39.3322H52.4153C51.8688 38.6875 51.2667 38.089 50.6156 37.543C49.7124 36.7867 48.347 36.8825 47.566 37.7572C46.7857 38.6309 46.8836 39.9515 47.7848 40.7083C52.3003 44.4907 52.7945 51.1017 48.8884 55.4743C46.835 57.773 43.8514 59.0941 40.7128 59.0942C38.6473 59.0972 36.6245 58.5248 34.8857 57.4453C33.8807 56.8208 32.5432 57.1035 31.8984 58.0766C31.2544 59.0483 31.5444 60.3415 32.5466 60.9671C32.9363 61.2093 33.3379 61.4344 33.7513 61.6425L33.7518 61.6428C33.7615 61.6477 33.7716 61.6527 33.7813 61.6576L33.7826 61.6583C33.7928 61.6634 33.8021 61.668 33.8122 61.6731L33.8127 61.6734L33.8225 61.6782L33.8237 61.6788C33.8334 61.6836 33.8432 61.6885 33.8531 61.6933L33.854 61.6938C33.8637 61.6986 33.8733 61.7033 33.8832 61.7081L33.8849 61.709C33.8942 61.7136 33.9046 61.7187 33.9141 61.7232L33.9151 61.7237C33.9249 61.7285 33.9347 61.7332 33.9446 61.7381L33.9458 61.7386C33.9491 61.7403 33.9518 61.7416 33.9552 61.7433L33.9569 61.744C33.9663 61.7486 33.9757 61.7532 33.985 61.7576L33.9884 61.7592C33.9978 61.7637 34.0064 61.7678 34.0157 61.7723L34.0186 61.7737L34.0276 61.778L34.0279 61.7782L34.0462 61.7869L34.0491 61.7883L34.0578 61.7924L34.0606 61.7938C34.0662 61.7964 34.0717 61.7991 34.0773 61.8018L34.0795 61.8027L34.0881 61.8068L34.0916 61.8084C34.0972 61.8111 34.1028 61.8136 34.1084 61.8163L34.1102 61.8172L34.1181 61.8209L34.1225 61.823L34.1303 61.8268L34.1337 61.8283C34.1389 61.8308 34.1429 61.8327 34.1481 61.8351L34.1531 61.8375L34.161 61.8412L34.1645 61.8429C34.1693 61.845 34.174 61.8473 34.1788 61.8495L34.1835 61.8517L34.1911 61.8552L34.1961 61.8576L34.2098 61.8639L34.2139 61.8657L34.2216 61.8693L34.2268 61.8717L34.2338 61.875C34.2375 61.8766 34.2409 61.8782 34.2445 61.8799L34.2519 61.8832L34.2572 61.8857L34.2645 61.889L34.2701 61.8915L34.2825 61.8972L34.2876 61.8996L34.2948 61.9028L34.3013 61.9058C34.3048 61.9073 34.3079 61.9088 34.3115 61.9104L34.3188 61.9137L34.3254 61.9168L34.3313 61.9194L34.3409 61.9237L34.3492 61.9274L34.3557 61.9303L34.3621 61.9332L34.369 61.9362L34.3799 61.941L34.3868 61.9441L34.3925 61.9466L34.3996 61.9497L34.4064 61.9528L34.4168 61.9574L34.4234 61.9603L34.4302 61.9634L34.4372 61.9665L34.445 61.97C34.448 61.9712 34.4511 61.9726 34.4542 61.974L34.4605 61.9767L34.468 61.9801L34.4734 61.9824C34.4775 61.9842 34.4812 61.9859 34.4854 61.9876L34.4905 61.9899L34.4983 61.9933L34.5041 61.9959C34.5077 61.9974 34.5115 61.9991 34.5152 62.0007L34.5209 62.0032L34.5292 62.0068L34.5347 62.0091L34.544 62.0131L34.5502 62.0158L34.5601 62.02L34.5651 62.0222L34.5741 62.026L34.5787 62.028L34.5909 62.0332L34.596 62.0353L34.6045 62.039L34.6094 62.0411L34.6217 62.0463L34.6263 62.0483L34.6352 62.052L34.6404 62.0543C34.6445 62.056 34.6487 62.0578 34.6529 62.0596L34.6554 62.0606L34.6663 62.0653L34.6707 62.0671L34.6816 62.0717L34.6841 62.0728L34.697 62.0782L34.7014 62.0801L34.7112 62.0842L34.715 62.0858C34.7193 62.0875 34.7235 62.0893 34.7278 62.0912L34.7316 62.0927L34.7418 62.097L34.7457 62.0986L34.7587 62.104L34.762 62.1054C34.7656 62.1069 34.7689 62.1082 34.7724 62.1097L34.7764 62.1114L34.7896 62.1169L34.7906 62.1173L34.8036 62.1226L34.8069 62.1239L34.8192 62.129L34.8207 62.1295C34.8252 62.1314 34.8299 62.1334 34.8344 62.1351L34.8376 62.1364L34.8489 62.141L34.8518 62.1422L34.8653 62.1477L34.8682 62.1489L34.8789 62.1532L34.8831 62.1549C34.8874 62.1566 34.8921 62.1585 34.8964 62.1603L34.8979 62.1608C34.9019 62.1625 34.9061 62.1642 34.9102 62.1659L34.9138 62.1672L34.927 62.1725C34.9275 62.1727 34.9269 62.1725 34.9274 62.1727L34.941 62.1781L34.9448 62.1796L34.9563 62.1842L34.9587 62.1851L34.9723 62.1906L34.9753 62.1918L34.9872 62.1965L34.9894 62.1974L35.0035 62.2029L35.0054 62.2037L35.0177 62.2086L35.0206 62.2097C35.0299 62.2134 35.0393 62.2171 35.0486 62.2207L35.0518 62.222L35.0643 62.2268L35.0659 62.2274C35.0705 62.2292 35.0753 62.231 35.08 62.2329L35.0826 62.2339L35.0948 62.2386L35.097 62.2395L35.1111 62.2449L35.1131 62.2456L35.1254 62.2504L35.1282 62.2514C35.1377 62.2551 35.1473 62.2588 35.1568 62.2624L35.159 62.2633C35.1687 62.267 35.1782 62.2706 35.1878 62.2743L35.1903 62.2753L35.2041 62.2805L35.2045 62.2806C35.2095 62.2824 35.2142 62.2842 35.2192 62.2862L35.2213 62.287C35.2254 62.2885 35.2301 62.2903 35.2342 62.2919L35.236 62.2926L35.2505 62.298L35.2519 62.2985L35.265 62.3034L35.2674 62.3043C35.2771 62.308 35.2865 62.3115 35.2962 62.3151L35.2986 62.316L35.3127 62.3212L35.3129 62.3213L35.3277 62.3268L35.3295 62.3275L35.343 62.3325L35.3444 62.333L35.359 62.3384L35.3607 62.3391L35.3735 62.3437L35.376 62.3446L35.3905 62.3499L35.3909 62.35L35.405 62.3551L35.4073 62.3559C35.4171 62.3594 35.4266 62.3628 35.4363 62.3664L35.4386 62.3672L35.4527 62.3723L35.453 62.3724C35.458 62.3742 35.463 62.376 35.468 62.3778L35.4696 62.3784C35.4742 62.3801 35.4787 62.3818 35.4834 62.3834L35.4845 62.3838L35.4996 62.3892L35.5001 62.3894L35.5147 62.3946L35.5159 62.395L35.5459 62.4056L35.5474 62.4061C35.5575 62.4096 35.5675 62.4132 35.5776 62.4167L35.5786 62.4171L35.5936 62.4223C35.594 62.4225 35.5932 62.4222 35.5937 62.4223L35.6091 62.4277L35.6099 62.428L35.6239 62.4328L35.6258 62.4335C35.6358 62.4369 35.6455 62.4403 35.6554 62.4437L35.6573 62.4444C35.6672 62.4477 35.6773 62.4512 35.6871 62.4546L35.6888 62.4552C35.6987 62.4586 35.7087 62.4619 35.7188 62.4654L35.7202 62.4659L35.7345 62.4707L35.7354 62.471L35.7506 62.4761L35.7514 62.4764L35.7659 62.4812L35.7671 62.4816C35.7772 62.485 35.7873 62.4883 35.7975 62.4917L35.7988 62.4922C35.8091 62.4955 35.819 62.4988 35.8292 62.5023L35.8303 62.5027C35.8459 62.5078 35.8611 62.5128 35.8766 62.5178L35.8775 62.5181C35.8877 62.5214 35.8979 62.5248 35.9082 62.5281L35.9092 62.5284C35.9194 62.5317 35.9298 62.5351 35.94 62.5383L35.9409 62.5386C35.9514 62.5419 35.9616 62.5453 35.972 62.5485L35.9725 62.5487C35.9882 62.5537 36.0041 62.5587 36.0198 62.5637H36.0199C36.0303 62.567 36.0405 62.5703 36.051 62.5735L36.0521 62.5739C36.0623 62.5772 36.0728 62.5804 36.083 62.5835L36.0837 62.5837C36.0943 62.587 36.1046 62.5902 36.1151 62.5934L36.1153 62.5935L36.1308 62.5984L36.1312 62.5985C36.1419 62.6017 36.1523 62.6049 36.163 62.6082H36.1632C36.1736 62.6113 36.1843 62.6145 36.1947 62.6178L36.1953 62.618C36.2058 62.6211 36.2164 62.6244 36.2269 62.6275H36.227C36.2536 62.6355 36.2801 62.6433 36.3067 62.6512L36.3072 62.6513C36.3178 62.6544 36.3282 62.6574 36.3389 62.6605C36.3394 62.6606 36.3388 62.6605 36.3393 62.6606C36.35 62.6637 36.3604 62.6668 36.3711 62.6698C36.3716 62.6699 36.3708 62.6697 36.3713 62.6699L36.3872 62.6745H36.3873C36.3978 62.6776 36.4084 62.6806 36.419 62.6836L36.4196 62.6838C36.4301 62.6869 36.4404 62.6897 36.4509 62.6928L36.452 62.6931C36.4626 62.6961 36.4729 62.6989 36.4834 62.7019L36.484 62.7021C36.4946 62.705 36.5053 62.7081 36.5159 62.711L36.5161 62.7111C36.5429 62.7186 36.5695 62.7259 36.5964 62.7333L36.5969 62.7334C36.6077 62.7363 36.6182 62.7392 36.629 62.7421H36.6291L36.6451 62.7465H36.6453C36.656 62.7494 36.6668 62.7522 36.6775 62.7551H36.6776C36.6883 62.7579 36.699 62.7608 36.7096 62.7636L36.7103 62.7638C36.721 62.7667 36.7316 62.7694 36.7424 62.7723L36.7426 62.7724C36.7534 62.7752 36.7641 62.778 36.7748 62.7808L36.7751 62.7809L36.7911 62.785H36.7912C36.8019 62.7878 36.8126 62.7905 36.8232 62.7933L36.824 62.7935C36.8346 62.7962 36.8452 62.799 36.856 62.8016L36.8565 62.8017C36.8671 62.8045 36.8781 62.8072 36.8887 62.8098H36.8888C36.9158 62.8166 36.943 62.8234 36.97 62.8301L36.9705 62.8302C36.9814 62.8328 36.9919 62.8354 37.0027 62.8381L37.0031 62.8382C37.014 62.8409 37.0246 62.8434 37.0356 62.8461H37.0357C37.0629 62.8526 37.09 62.8591 37.1174 62.8656H37.1176C37.1284 62.8681 37.139 62.8707 37.15 62.8732L37.1505 62.8733L37.1664 62.8771H37.1667C37.1776 62.8796 37.1883 62.8821 37.1992 62.8846L37.1996 62.8847C37.2103 62.8872 37.2208 62.8896 37.2316 62.8921L37.2328 62.8924C37.2434 62.8948 37.2539 62.8972 37.2645 62.8995L37.2657 62.8998C37.2765 62.9023 37.2871 62.9047 37.298 62.9071H37.2982C37.3145 62.9107 37.3308 62.9144 37.347 62.9179L37.3477 62.9181L37.38 62.9252L37.3808 62.9254C37.3914 62.9277 37.4024 62.9301 37.4131 62.9323L37.4138 62.9325C37.4246 62.9349 37.4355 62.9371 37.4463 62.9395H37.4465L37.4626 62.9429L37.4632 62.943C37.474 62.9453 37.4846 62.9475 37.4955 62.9498L37.4965 62.95C37.5071 62.9522 37.518 62.9545 37.5287 62.9567L37.5297 62.9569C37.5404 62.9591 37.5513 62.9614 37.5621 62.9635L37.5628 62.9636C37.5792 62.967 37.5956 62.9703 37.612 62.9736H37.6121C37.6232 62.9759 37.6339 62.9781 37.6451 62.9802L37.6456 62.9803C37.6566 62.9825 37.6674 62.9846 37.6785 62.9868H37.6786C37.6952 62.99 37.7118 62.9933 37.7284 62.9965H37.7285L37.7613 63.0028L37.7621 63.003C37.7729 63.0051 37.7838 63.0071 37.7946 63.0092L37.7955 63.0094C37.8062 63.0114 37.8173 63.0135 37.8281 63.0155L37.8288 63.0156C37.8451 63.0186 37.8617 63.0216 37.8779 63.0247L37.8787 63.0249C37.8894 63.0268 37.9002 63.0288 37.911 63.0308L37.9124 63.0311C37.9233 63.033 37.9338 63.0349 37.9447 63.0368L37.9461 63.0371L37.9618 63.0399H37.9621L37.9784 63.0428L37.9792 63.043L37.9947 63.0458L37.9957 63.046C38.0064 63.0478 38.0174 63.0498 38.028 63.0516L38.0294 63.0519C38.04 63.0537 38.0509 63.0556 38.0615 63.0574L38.0631 63.0577C38.0738 63.0595 38.0844 63.0613 38.0951 63.063L38.0969 63.0633L38.1123 63.0659L38.1127 63.066L38.1292 63.0687L38.1296 63.0688L38.1454 63.0715L38.1466 63.0717C38.1573 63.0735 38.1681 63.0752 38.1789 63.077L38.1807 63.0773C38.1913 63.079 38.202 63.0807 38.2127 63.0825L38.2143 63.0828L38.2301 63.0853L38.2304 63.0854L38.2467 63.088L38.2479 63.0882L38.2633 63.0906L38.2643 63.0908L38.2808 63.0934H38.2809L38.2965 63.0958L38.2985 63.0961C38.309 63.0978 38.3199 63.0995 38.3305 63.101L38.3324 63.1013C38.3431 63.103 38.3537 63.1046 38.3644 63.1062L38.3662 63.1065L38.3818 63.1089H38.3821L38.3986 63.1113L38.3993 63.1114L38.4149 63.1137L38.4163 63.1139L38.4326 63.1162H38.4329L38.4484 63.1185L38.4507 63.1188C38.4612 63.1204 38.4717 63.1218 38.4822 63.1233L38.4849 63.1237L38.4999 63.1259L38.5006 63.126L38.5166 63.1282L38.5188 63.1285L38.533 63.1305L38.535 63.1308L38.551 63.133L38.5519 63.1331L38.5669 63.1352L38.5692 63.1355C38.5798 63.1369 38.5904 63.1384 38.601 63.1398L38.6032 63.1401C38.6139 63.1416 38.6244 63.1429 38.635 63.1443L38.6375 63.1446L38.6523 63.1466L38.6533 63.1467L38.6695 63.1488L38.6709 63.149L38.6859 63.151L38.6874 63.1512L38.7037 63.1533H38.7041L38.7196 63.1553L38.7219 63.1556C38.7325 63.157 38.7431 63.1582 38.7537 63.1596L38.7561 63.1599L38.7717 63.1619H38.772L38.7882 63.1638L38.7902 63.1641L38.8047 63.1659L38.8067 63.1661L38.8227 63.1681L38.8241 63.1683L38.8385 63.17L38.8415 63.1703C38.852 63.1716 38.8626 63.1729 38.873 63.174L38.8757 63.1743C38.8863 63.1756 38.8966 63.1768 38.9072 63.178L38.9106 63.1784L38.9246 63.1799L38.926 63.1801L38.9419 63.1819L38.9442 63.1822L38.9582 63.1838L38.9606 63.1841L38.9766 63.1858L38.9777 63.1859L38.9924 63.1875L38.9952 63.1878C39.0058 63.189 39.0161 63.19 39.0265 63.1912L39.0301 63.1916L39.0439 63.1931L39.0457 63.1933L39.0611 63.195L39.0642 63.1952L39.0781 63.1967L39.0803 63.1969L39.0961 63.1986L39.0981 63.1988L39.1121 63.2002L39.1148 63.2004C39.1254 63.2015 39.1361 63.2026 39.1466 63.2037L39.1494 63.204C39.16 63.2051 39.1705 63.206 39.1811 63.2071L39.1838 63.2074L39.1985 63.2089L39.1997 63.209L39.2158 63.2106L39.2181 63.2108L39.2322 63.2121L39.2345 63.2123L39.2504 63.2138L39.2521 63.214L39.2665 63.2154L39.2693 63.2157C39.2799 63.2166 39.2902 63.2175 39.3008 63.2185L39.3041 63.2188L39.3188 63.2201L39.3198 63.2202L39.3356 63.2215L39.3387 63.2218L39.353 63.2231L39.3546 63.2232L39.3708 63.2246L39.3726 63.2248L39.3868 63.226L39.3898 63.2263L39.4058 63.2276H39.406L39.4213 63.2289L39.4245 63.2292C39.435 63.2301 39.4456 63.2309 39.456 63.2318L39.4596 63.232L39.4736 63.2331L39.4752 63.2332L39.491 63.2345L39.494 63.2347L39.5074 63.2357L39.5103 63.2359L39.5259 63.2371L39.5282 63.2372L39.542 63.2382L39.5449 63.2384L39.5608 63.2396L39.5617 63.2397L39.5763 63.2408L39.5803 63.2411L39.5942 63.2421L39.596 63.2422L39.6114 63.2432L39.6151 63.2435L39.6281 63.2444L39.6311 63.2446L39.6466 63.2457L39.6495 63.2459L39.6625 63.2468L39.6663 63.2471L39.6818 63.248L39.6836 63.2481L39.6976 63.249L39.7012 63.2492C39.7116 63.2499 39.7219 63.2505 39.7324 63.2512L39.7362 63.2514L39.7502 63.2523L39.7519 63.2524L39.7676 63.2533L39.7709 63.2535L39.7842 63.2543L39.7872 63.2545L39.8028 63.2554L39.8057 63.2556L39.8188 63.2564L39.8224 63.2566L39.8381 63.2575H39.839L39.8538 63.2583L39.8574 63.2584L39.872 63.2592L39.8733 63.2593L39.889 63.2601L39.8924 63.2603L39.906 63.261L39.9084 63.2611L39.9242 63.2619L39.927 63.262L39.9405 63.2627L39.9437 63.2629L39.9594 63.2636L39.9615 63.2637L39.9753 63.2644L39.9791 63.2646L39.9947 63.2653H39.9952L40.0102 63.266L40.0144 63.2662L40.0283 63.2668L40.0299 63.2669L40.0454 63.2676L40.0494 63.2678L40.0621 63.2683L40.0655 63.2684L40.0809 63.2689L40.0843 63.269L40.0969 63.2695L40.1008 63.2697L40.1162 63.2703L40.1184 63.2704L40.132 63.2709L40.1361 63.2711L40.1499 63.2716L40.1519 63.2717L40.167 63.2722L40.1715 63.2724L40.1836 63.2728L40.1874 63.2729L40.2023 63.2734L40.2066 63.2735L40.2186 63.2739L40.2226 63.274L40.2378 63.2744L40.241 63.2745L40.2538 63.2749L40.258 63.275L40.2734 63.2754H40.2746L40.2889 63.2758L40.2935 63.2759L40.3076 63.2763H40.3088L40.3247 63.2767L40.3282 63.2768L40.3415 63.2771L40.3445 63.2772L40.3599 63.2776L40.3636 63.2777L40.3762 63.278L40.38 63.2781L40.3954 63.2784H40.3979L40.4113 63.2787L40.4155 63.2788L40.43 63.2791H40.4314L40.4467 63.2794L40.4511 63.2794L40.4639 63.2796H40.4669L40.4824 63.2798L40.486 63.2799L40.4988 63.2801H40.5026L40.5182 63.2803H40.5205L40.5341 63.2805H40.538L40.5536 63.2807H40.5553L40.5692 63.2808H40.5739L40.5873 63.2809H40.5895L40.6049 63.281H40.609L40.6222 63.2811H40.6251L40.6405 63.2812H40.6446H40.6567H40.6608H40.6762H40.6792H40.6922H40.6964H40.712L40.7156 63.2804Z" fill="#FFB800"/>
<path d="M40.716 59.093C46.6866 59.093 51.5267 54.4061 51.5267 48.6244C51.5267 42.8427 46.6866 38.1558 40.716 38.1558C34.7454 38.1558 29.9053 42.8427 29.9053 48.6244C29.9053 54.4061 34.7454 59.093 40.716 59.093Z" fill="#FFE152"/>
<path d="M29.9052 50.78C28.7101 50.78 27.7432 49.9039 27.7432 48.7477V48.625C27.751 41.6904 33.5544 36.0706 40.7156 36.0631C43.6386 36.0528 46.4777 37.008 48.7643 38.7712C49.7007 39.4893 49.8586 40.8066 49.1169 41.7133C48.3753 42.62 47.015 42.7729 46.0786 42.0547C44.5554 40.8794 42.6633 40.2429 40.7156 40.2504C35.9415 40.2553 32.0724 44.0019 32.0674 48.625C32.0674 49.7812 31.1003 50.78 29.9052 50.78Z" fill="#FFEE9D"/>
<path d="M43.9588 46.5312H37.4725C36.8755 46.5312 36.3915 46.0625 36.3915 45.4844C36.3915 44.9062 36.8755 44.4375 37.4725 44.4375H45.0398C46.2339 44.4368 47.2014 43.4989 47.2006 42.3426C47.1999 41.1873 46.2329 40.2509 45.0398 40.2502H37.4725C34.4874 40.2502 32.0674 42.5936 32.0674 45.4844C32.0674 48.3751 34.4874 50.7185 37.4725 50.7185H43.9588C44.5558 50.7185 45.0398 51.1872 45.0398 51.7653C45.0398 52.3435 44.5558 52.8122 43.9588 52.8122H36.3915C35.1974 52.8122 34.2294 53.7495 34.2294 54.9058C34.2294 56.0621 35.1974 56.9995 36.3915 56.9995H43.9588C46.944 56.9995 49.3639 54.6561 49.3639 51.7653C49.3639 48.8746 46.944 46.5312 43.9588 46.5312Z" fill="#FFF7D2"/>
<path d="M4.95119 69.563H79.2198C79.9937 69.563 80.6212 70.1807 80.6212 70.9424V77.8387H3.5498V70.9424C3.5498 70.1807 4.17733 69.563 4.95119 69.563V69.563Z" fill="#005EEE"/>
<path d="M80.6212 22.6665H2.14846C1.3746 22.6665 0.747071 22.0489 0.747071 21.2871V14.0276C0.746451 13.4246 1.14392 12.8911 1.72804 12.7105L40.1391 0.978302C40.9508 0.729889 41.8189 0.729889 42.6306 0.978302L81.0416 12.7105C81.6258 12.8911 82.0232 13.4246 82.0226 14.0276V21.2871C82.0226 22.0489 81.3951 22.6665 80.6212 22.6665Z" fill="#079CFF"/>
<path d="M7.75293 16.1915L40.964 6.50076C41.2343 6.41837 41.5233 6.41837 41.7936 6.50076L75.6476 16.1915H7.75293Z" fill="#0784FF"/>
<path d="M2.14846 75.0798H80.6212C81.3951 75.0798 82.0226 75.6975 82.0226 76.4592V79.218C82.0226 79.9797 81.3951 80.5974 80.6212 80.5974H2.14846C1.37459 80.5974 0.74707 79.9797 0.74707 79.218V76.4592C0.74707 75.6975 1.37459 75.0798 2.14846 75.0798Z" fill="#079CFF"/>
<path opacity="0.24" d="M59.788 16.1914H75.2018C76.2168 16.1914 77.0396 17.0014 77.0396 18.0004C77.0396 18.9994 76.2168 19.8094 75.2018 19.8094H59.788C58.7731 19.8094 57.9502 18.9994 57.9502 18.0004C57.9502 17.0014 58.7729 16.1914 59.788 16.1914Z" fill="#F7F7FA"/>
</svg>
