<svg width="22" height="24" viewBox="0 0 22 24" fill="none" xmlns="http://www.w3.org/2000/svg">
<path fill-rule="evenodd" clip-rule="evenodd" d="M18 11V8C18 4.13401 14.866 1 11 1C7.13401 1 4 4.13401 4 8V11C4 14.3 1 15.1 1 17C1 18.7 4.9 20 11 20C17.1 20 21 18.7 21 17C21 15.1 18 14.3 18 11Z" stroke="#1A2537" stroke-width="2" stroke-linecap="square"/>
<path d="M11 21.9999C9.98902 21.9999 9.03902 21.9659 8.14502 21.8999C8.53619 23.1477 9.69236 23.9969 11 23.9969C12.3077 23.9969 13.4639 23.1477 13.855 21.8999C12.961 21.9659 12.011 21.9999 11 21.9999Z" fill="#565682"/>
</svg>
