<svg width="45" height="45" viewBox="0 0 45 45" fill="none" xmlns="http://www.w3.org/2000/svg">
<path d="M8.43773 8.4375H33.7497C35.308 8.4375 36.5624 9.69222 36.5624 11.2503V18.2812H5.625V11.2503C5.625 9.69222 6.87946 8.4375 8.43773 8.4375Z" fill="#FF5460"/>
<path d="M5.625 16.875V19.6875V28.125V36.5625C5.625 38.1206 6.87926 39.375 8.4375 39.375H33.75C35.3082 39.375 36.5625 38.1206 36.5625 36.5625V28.125V19.6875V16.875H33.75H8.4375H5.625Z" fill="#EDEDF6"/>
<path d="M14.0625 7.03125C14.0625 6.2546 13.4329 5.625 12.6562 5.625C11.8796 5.625 11.25 6.2546 11.25 7.03125V12.6562C11.25 13.4329 11.8796 14.0625 12.6562 14.0625C13.4329 14.0625 14.0625 13.4329 14.0625 12.6562V7.03125Z" fill="#C3C2C8"/>
<path d="M30.9375 7.03125C30.9375 6.2546 30.3079 5.625 29.5312 5.625C28.7546 5.625 28.125 6.2546 28.125 7.03125V12.6562C28.125 13.4329 28.7546 14.0625 29.5312 14.0625C30.3079 14.0625 30.9375 13.4329 30.9375 12.6562V7.03125Z" fill="#C3C2C8"/>
<path d="M30.9375 19.6875H28.125V22.5H30.9375V19.6875Z" fill="#A5B7BF"/>
<path d="M25.3125 19.6875H22.5V22.5H25.3125V19.6875Z" fill="#A5B7BF"/>
<path d="M19.6875 19.6875H16.875V22.5H19.6875V19.6875Z" fill="#A5B7BF"/>
<path d="M14.0625 19.6875H11.25V22.5H14.0625V19.6875Z" fill="url(#paint0_linear_61_13214)"/>
<path d="M30.9375 25.3125H28.125V28.125H30.9375V25.3125Z" fill="#A5B7BF"/>
<path d="M25.3125 25.3125H22.5V28.125H25.3125V25.3125Z" fill="#A5B7BF"/>
<path d="M19.6875 25.3125H16.875V28.125H19.6875V25.3125Z" fill="#A5B7BF"/>
<path d="M14.0625 25.3125H11.25V28.125H14.0625V25.3125Z" fill="#A5B7BF"/>
<path d="M25.3125 30.9375H22.5V33.75H25.3125V30.9375Z" fill="#A5B7BF"/>
<path d="M19.6875 30.9375H16.875V33.75H19.6875V30.9375Z" fill="#A5B7BF"/>
<path d="M14.0625 30.9375H11.25V33.75H14.0625V30.9375Z" fill="#A5B7BF"/>
<defs>
<linearGradient id="paint0_linear_61_13214" x1="11.25" y1="21.0937" x2="14.0625" y2="21.0937" gradientUnits="userSpaceOnUse">
<stop stop-color="#A5B7BF"/>
<stop offset="1" stop-color="#A5B7BF"/>
</linearGradient>
</defs>
</svg>
