<svg width="250" height="250" viewBox="0 0 250 250" fill="none" xmlns="http://www.w3.org/2000/svg">
<rect width="250" height="250" rx="50" fill="#23273C"/>
<path d="M199.482 199.206H197.116C195.595 199.206 194.412 200.389 194.412 201.91C194.412 203.431 195.595 204.613 197.116 204.613H199.482C201.003 204.613 202.186 203.431 202.186 201.91C202.186 200.389 201.003 199.206 199.482 199.206ZM189.512 199.206H186.808V127.386C186.808 125.865 185.625 124.682 184.104 124.682C182.583 124.682 181.4 125.865 181.4 127.386V199.206H165.346V91.0531H181.4V109.811C181.4 111.332 182.583 112.515 184.104 112.515C185.625 112.515 186.808 111.332 186.808 109.811V88.3493C186.808 86.8284 185.625 85.6455 184.104 85.6455H162.643C161.122 85.6455 159.939 86.8284 159.939 88.3493V199.206H155.376V112.684C155.376 111.163 154.193 109.98 152.672 109.98H131.042C129.521 109.98 128.338 111.163 128.338 112.684V199.206H123.775V137.187C123.775 135.666 122.592 134.483 121.071 134.483H99.6098C98.0889 134.483 96.906 135.666 96.906 137.187V199.206H92.3433V158.987C92.3433 157.466 91.1604 156.283 89.6395 156.283H68.178C66.6571 156.283 65.4741 157.466 65.4741 158.987V199.206H52.8C51.2791 199.206 50.0962 200.389 50.0962 201.91C50.0962 203.431 51.2791 204.613 52.8 204.613H189.512C191.033 204.613 192.216 203.431 192.216 201.91C192.216 200.389 191.033 199.206 189.512 199.206ZM133.746 115.387H149.799V199.206H133.746V115.387ZM102.314 139.891H118.368V199.206H102.314V139.891ZM70.8818 161.69H86.9357V199.206H70.8818V161.69Z" fill="#A2A2A3"/>
<path d="M184.104 115.05C182.583 115.05 181.4 116.233 181.4 117.754V120.289C181.4 121.809 182.583 122.992 184.104 122.992C185.625 122.992 186.808 121.809 186.808 120.289V117.754C186.808 116.233 185.625 115.05 184.104 115.05ZM75.2755 136.173C75.7824 136.173 76.2894 136.004 76.6274 135.835C98.5959 122.823 128.169 102.038 148.785 75.1686L153.179 78.2104C154.869 79.3933 157.066 78.2104 157.235 76.3515L158.587 59.7906C158.756 57.7628 156.728 56.4109 154.869 57.2558L139.829 64.3533C137.97 65.1983 137.801 67.7331 139.491 68.747L144.223 72.1268C123.944 98.32 95.2161 118.43 73.7546 131.273C72.4027 132.118 72.0647 133.639 72.7407 134.991C73.4166 135.666 74.4305 136.173 75.2755 136.173ZM62.0944 143.609C62.6013 143.609 62.9393 143.44 63.4463 143.271C65.4741 142.257 67.84 140.905 70.2058 139.553C71.5577 138.877 71.8957 137.187 71.2198 135.835C70.5438 134.484 68.8539 134.146 67.502 134.822C64.9672 136.173 62.7703 137.525 60.7425 138.539C59.3906 139.215 58.8836 140.905 59.5595 142.257C60.2355 143.102 61.0804 143.609 62.0944 143.609ZM52.8 148.341C53.138 148.341 53.645 148.341 53.9829 148.172C53.9829 148.172 54.6589 147.834 56.0108 147.158C57.3627 146.482 57.8697 144.792 57.1937 143.44C56.5178 142.088 54.8279 141.581 53.476 142.257C52.293 142.933 51.6171 143.102 51.6171 143.102C50.2652 143.778 49.5892 145.299 50.2652 146.651C50.7721 147.665 51.7861 148.341 52.8 148.341Z" fill="#A2A2A3"/>
</svg>
