<svg width="118" height="120" viewBox="0 0 118 120" fill="none" xmlns="http://www.w3.org/2000/svg">
<path d="M59.7289 49.7663C44.2597 34.2985 27.2977 26.1814 21.8412 31.636C21.2425 32.2632 20.8019 33.0239 20.5559 33.8554L20.4681 33.7676L15.2572 55.1231L10.0682 76.4148L3.91719 101.626L0.0234375 117.593L23.0766 108.869L52.3985 97.7743L75.7909 88.9227L75.763 88.8948C76.5461 88.645 77.2626 88.2214 77.8585 87.6553C83.315 82.1987 75.1982 65.236 59.7289 49.7663Z" fill="#FF3378"/>
<path d="M59.7286 49.7602C44.26 34.291 27.2974 26.1736 21.8417 31.6296C16.386 37.0855 24.503 54.0486 39.9717 69.5178C55.4403 84.987 72.4029 93.1044 77.8586 87.6485C83.3143 82.1925 75.1973 65.2294 59.7286 49.7602Z" fill="#D1E3EE"/>
<path opacity="0.12" d="M73.6674 89.6134C70.8743 89.6623 68.1032 89.1124 65.5406 88.0007L46.4211 95.2357L17.0893 106.321L1.3606 112.272L0.0234375 117.755L23.0766 109.031L52.3985 97.936L73.867 89.813L73.6674 89.6134Z" fill="#263238"/>
<path d="M97.8162 73.8462C97.5772 73.8455 97.3402 73.8028 97.1157 73.7205C86.9839 69.9246 76.0319 68.8604 65.359 70.6349L58.2301 71.8224C57.1389 71.9781 56.1281 71.2197 55.9724 70.1285C55.822 69.0742 56.5257 68.0875 57.5715 67.8866L64.7024 66.6891C76.0668 64.8008 87.7279 65.9332 98.5167 69.9723C99.5541 70.345 100.093 71.4881 99.7199 72.5255C99.4321 73.3268 98.6677 73.8572 97.8162 73.8462Z" fill="#FFBF41"/>
<path d="M61.8923 61.8712C60.7901 61.8647 59.9018 60.9658 59.9082 59.8636C59.9127 59.1027 60.3493 58.4106 61.0341 58.0791L102.945 38.1207C103.941 37.6467 105.132 38.0693 105.606 39.0647C106.08 40.0601 105.657 41.2511 104.662 41.7252L62.7505 61.6836C62.482 61.8091 62.1889 61.8732 61.8923 61.8712Z" fill="#FFBF41"/>
<path d="M38.554 57.8794C38.2908 57.8799 38.0301 57.8278 37.7876 57.7257C36.7703 57.3014 36.2896 56.1328 36.7139 55.1154V55.1152L39.6158 48.1517C44.0806 37.4827 45.1216 25.6902 42.5955 14.404C42.3365 13.3325 42.9954 12.2542 44.0666 11.9953C45.1381 11.7363 46.2163 12.3952 46.4752 13.4665C46.481 13.4902 46.4862 13.5139 46.4912 13.5378C49.1975 25.6279 48.0816 38.2601 43.298 49.6885L40.3941 56.652C40.0843 57.3947 39.3588 57.8787 38.554 57.8794Z" fill="#FFBF41"/>
<path d="M107.795 81.8296C110 81.8296 111.787 80.0424 111.787 77.8379C111.787 75.6333 110 73.8462 107.795 73.8462C105.591 73.8462 103.804 75.6333 103.804 77.8379C103.804 80.0424 105.591 81.8296 107.795 81.8296Z" fill="#D5557E"/>
<path d="M59.8968 25.946C62.1013 25.946 63.8884 24.1589 63.8884 21.9543C63.8884 19.7498 62.1013 17.9626 59.8968 17.9626C57.6923 17.9626 55.9053 19.7498 55.9053 21.9543C55.9053 24.1589 57.6923 25.946 59.8968 25.946Z" fill="#DD95C1"/>
<path d="M41.9349 7.98337C39.7303 7.98337 37.9434 6.19634 37.9434 3.99168C37.9434 1.78703 39.7303 0 41.9349 0C44.1395 0 45.9264 1.78703 45.9264 3.99168C45.9264 6.19634 44.1395 7.98337 41.9349 7.98337Z" fill="#7FCCCB"/>
<path d="M97.8161 15.9668C96.7139 15.9668 95.8203 15.0731 95.8203 13.9709V11.9751C95.8203 10.8729 96.7139 9.97925 97.8161 9.97925C98.9182 9.97925 99.8119 10.8729 99.8119 11.9751V13.9709C99.8119 15.0731 98.9185 15.9668 97.8161 15.9668Z" fill="#2276BB"/>
<path d="M97.8161 5.98753C96.7139 5.98753 95.8203 5.09389 95.8203 3.99168V1.99584C95.8203 0.893638 96.7139 0 97.8161 0C98.9182 0 99.8119 0.893638 99.8119 1.99584V3.99168C99.8119 5.09389 98.9185 5.98753 97.8161 5.98753Z" fill="#2276BB"/>
<path d="M103.803 9.97923H101.807C100.705 9.97923 99.8115 9.08559 99.8115 7.98339C99.8115 6.88119 100.705 5.98755 101.807 5.98755H103.803C104.905 5.98755 105.799 6.88119 105.799 7.98339C105.799 9.08559 104.905 9.97923 103.803 9.97923Z" fill="#2276BB"/>
<path d="M93.8246 9.97923H91.8288C90.7266 9.97923 89.833 9.08559 89.833 7.98339C89.833 6.88119 90.7266 5.98755 91.8288 5.98755H93.8246C94.9267 5.98755 95.8203 6.88119 95.8203 7.98339C95.8203 9.08559 94.927 9.97923 93.8246 9.97923Z" fill="#2276BB"/>
<path d="M15.8661 57.8795C15.6425 57.0253 15.443 56.1631 15.2574 55.2849L10.0684 76.5766L10.4675 81.4444C11.3374 91.8225 15.7955 101.573 23.0748 109.021L52.3987 97.9361C52.239 97.8862 52.0734 97.8502 51.9137 97.7963C34.1326 91.129 20.6929 76.2465 15.8661 57.8795Z" fill="#F7F7FA"/>
<path d="M52.3983 97.936C52.2386 97.8861 52.073 97.8501 51.9133 97.7963C49.9924 97.069 48.1109 96.241 46.2773 95.3154L19.8652 105.309C20.8666 106.607 21.9386 107.85 23.0764 109.031L52.3983 97.936Z" fill="#F6F6E7"/>
<path d="M83.846 23.9082V33.9293H73.8252V23.9082H83.846Z" fill="#C9DA53"/>
<path d="M47.922 59.8752C46.8199 59.8749 45.9265 58.981 45.9268 57.8788C45.927 57.3135 46.1667 56.7749 46.5869 56.3964L66.5446 38.4339C67.3781 37.7126 68.6384 37.8037 69.3596 38.6372C70.0609 39.4475 69.997 40.667 69.2149 41.3997L49.2572 59.3623C48.891 59.6923 48.4152 59.8749 47.922 59.8752Z" fill="#FFBF41"/>
<path d="M105.799 51.8918C104.697 51.8918 103.804 50.9982 103.804 49.896V47.9001C103.804 46.7979 104.697 45.9043 105.799 45.9043C106.902 45.9043 107.795 46.7979 107.795 47.9001V49.896C107.795 50.9982 106.902 51.8918 105.799 51.8918Z" fill="#FFDB43"/>
<path d="M112.856 48.968C112.326 48.9695 111.818 48.7589 111.445 48.3832L110.034 46.9722C109.268 46.1793 109.29 44.9157 110.083 44.1501C110.856 43.4031 112.082 43.4031 112.856 44.1501L114.267 45.5611C115.046 46.3407 115.046 47.6044 114.266 48.3837C113.892 48.7577 113.385 48.968 112.856 48.968Z" fill="#FFDB43"/>
<path d="M115.779 41.9126H113.783C112.681 41.9126 111.787 41.0189 111.787 39.9167C111.787 38.8145 112.681 37.9209 113.783 37.9209H115.779C116.881 37.9209 117.774 38.8145 117.774 39.9167C117.774 41.0189 116.881 41.9126 115.779 41.9126Z" fill="#FFDB43"/>
<path d="M111.445 36.2685C110.343 36.2682 109.45 35.3746 109.45 34.2721C109.45 33.743 109.66 33.2356 110.034 32.8616L111.445 31.4505C112.238 30.6846 113.502 30.7066 114.267 31.4994C115.014 32.2728 115.014 33.499 114.267 34.2726L112.856 35.6837C112.482 36.0579 111.975 36.2685 111.445 36.2685Z" fill="#FFDB43"/>
<path d="M105.799 33.9294C104.697 33.9294 103.804 33.0358 103.804 31.9336V29.9377C103.804 28.8355 104.697 27.9419 105.799 27.9419C106.902 27.9419 107.795 28.8355 107.795 29.9377V31.9336C107.795 33.0358 106.902 33.9294 105.799 33.9294Z" fill="#FFDB43"/>
<path d="M100.154 36.2686C99.6244 36.2686 99.117 36.058 98.7428 35.6838L97.3318 34.2727C96.5661 33.4799 96.5878 32.2162 97.3807 31.4506C98.154 30.7036 99.3802 30.7036 100.154 31.4506L101.565 32.8616C102.344 33.6413 102.344 34.9049 101.564 35.6843C101.19 36.0582 100.683 36.2686 100.154 36.2686Z" fill="#FFDB43"/>
<path d="M10.0023 1.99585L13.0858 8.24483L19.9812 9.24674L14.9917 14.1106L16.1692 20.9783L10.0023 17.7351L3.83536 20.9783L5.01287 14.1106L0.0234375 9.24674L6.91883 8.24483L10.0023 1.99585Z" fill="#FFDB43"/>
<path fill-rule="evenodd" clip-rule="evenodd" d="M111.025 100.042C114.009 101.862 116.194 104.743 117.144 108.107C118.166 111.67 117.721 115.494 115.908 118.727C115.892 118.758 115.874 118.789 115.857 118.819C115.294 119.767 114.07 120.08 113.122 119.517C112.174 118.955 111.861 117.731 112.424 116.783C114.28 113.53 114.11 109.503 111.986 106.418C111.956 108.203 111.512 109.957 110.691 111.542C108.542 115.391 103.679 116.77 99.8292 114.62C95.9796 112.471 94.6013 107.608 96.7508 103.758C98.5023 100.87 101.41 98.8732 104.734 98.2752C100.78 93.7836 95.4036 90.7863 89.5041 89.7849C88.4583 89.5841 87.7546 88.5974 87.905 87.5431C88.0607 86.4519 89.0715 85.6934 90.1627 85.8491C98.3419 87.225 105.592 91.9132 110.202 98.8081L111.025 100.042ZM101.787 111.16C103.717 112.225 106.145 111.524 107.211 109.594C108.416 107.434 108.326 103.359 106.642 102.419C106.334 102.257 105.991 102.178 105.644 102.187C103.404 102.482 101.417 103.775 100.239 105.704L100.221 105.736C99.1562 107.666 99.8572 110.094 101.787 111.16Z" fill="#2BB3CE"/>
</svg>
