<svg width="157" height="56" viewBox="0 0 157 56" fill="none" xmlns="http://www.w3.org/2000/svg">
<path d="M146.543 0H10C4.47715 0 0 4.47715 0 10V45.6596C0 51.1824 4.47715 55.6596 10 55.6596H146.543C152.066 55.6596 156.543 51.1824 156.543 45.6596V10C156.543 4.47715 152.066 0 146.543 0Z" fill="#1D2025"/>
<path d="M46.4131 23.9575H50.2484C53.7706 23.9575 56.0561 21.625 56.0561 18.1185C56.0561 14.5963 53.7706 12.2951 50.2484 12.2951H46.4131V23.9575ZM47.9003 22.6582V13.5944H50.2484C52.8314 13.5944 54.522 15.379 54.522 18.1185C54.522 20.858 52.847 22.6582 50.2484 22.6582H47.9003ZM61.6942 24.1454C64.0893 24.1454 65.9678 22.3138 65.9678 19.7935C65.9678 17.2732 64.105 15.4729 61.6942 15.4729C59.2835 15.4729 57.4206 17.2732 57.4206 19.7935C57.4206 22.3138 59.2991 24.1454 61.6942 24.1454ZM61.6942 22.8461C60.0818 22.8461 58.8452 21.5468 58.8452 19.8091C58.8452 18.0715 60.0818 16.7722 61.6942 16.7722C63.3066 16.7722 64.5433 18.0715 64.5433 19.8091C64.5433 21.5468 63.3066 22.8461 61.6942 22.8461ZM77.48 15.6608L75.4606 21.9381L73.5507 15.6608H72.0792L70.1694 21.9694L68.15 15.6608H66.6316L69.5276 23.9575H70.7956L72.8306 17.508L74.85 23.9575H76.1024L78.9984 15.6608H77.48ZM83.9963 15.4729C82.9788 15.4729 82.0865 15.8956 81.6012 16.6157V15.6608H80.2862V23.9575H81.6325V18.9325C81.6325 17.6332 82.4622 16.7722 83.6989 16.7722C84.9512 16.7722 85.7496 17.6175 85.7496 18.9325V23.9575H87.0958V18.4942C87.0958 16.7566 85.7965 15.4729 83.9963 15.4729ZM89 23.9575H90.3463V12.2951H89V23.9575ZM96.2131 24.1454C98.6082 24.1454 100.487 22.3138 100.487 19.7935C100.487 17.2732 98.6238 15.4729 96.2131 15.4729C93.8023 15.4729 91.9395 17.2732 91.9395 19.7935C91.9395 22.3138 93.818 24.1454 96.2131 24.1454ZM96.2131 22.8461C94.6007 22.8461 93.364 21.5468 93.364 19.8091C93.364 18.0715 94.6007 16.7722 96.2131 16.7722C97.8255 16.7722 99.0622 18.0715 99.0622 19.8091C99.0622 21.5468 97.8255 22.8461 96.2131 22.8461ZM105.279 15.4729C103.745 15.4729 102.399 16.3496 101.929 17.4767L103.135 18.1028C103.495 17.2888 104.278 16.7566 105.279 16.7566C106.375 16.7566 107.158 17.3827 107.158 18.3376V18.5725L104.278 19.2143C102.603 19.59 101.616 20.4353 101.616 21.6563C101.616 23.1122 102.806 24.1454 104.575 24.1454C105.64 24.1454 106.626 23.6288 107.189 22.7991V23.9575H108.504V18.3376C108.504 16.647 107.174 15.4729 105.279 15.4729ZM104.653 22.94C103.667 22.94 103.041 22.4391 103.041 21.6563C103.041 20.9832 103.651 20.4666 104.591 20.2631L107.158 19.6683V20.3883C107.158 21.8442 106.109 22.94 104.653 22.94ZM116.933 12.2951V16.8818C116.339 16.0052 115.227 15.4729 113.975 15.4729C111.642 15.4729 109.795 17.3045 109.795 19.8091C109.795 22.3138 111.627 24.1454 113.99 24.1454C115.243 24.1454 116.354 23.6444 116.965 22.7521V23.9575H118.28V12.2951H116.933ZM114.069 22.8461C112.425 22.8461 111.22 21.5624 111.22 19.8091C111.22 18.0715 112.425 16.7722 114.069 16.7722C115.712 16.7722 116.933 18.0715 116.933 19.8091C116.933 21.5624 115.712 22.8461 114.069 22.8461ZM126.834 24.1454C129.229 24.1454 131.107 22.3138 131.107 19.7935C131.107 17.2732 129.244 15.4729 126.834 15.4729C124.423 15.4729 122.56 17.2732 122.56 19.7935C122.56 22.3138 124.439 24.1454 126.834 24.1454ZM126.834 22.8461C125.221 22.8461 123.985 21.5468 123.985 19.8091C123.985 18.0715 125.221 16.7722 126.834 16.7722C128.446 16.7722 129.683 18.0715 129.683 19.8091C129.683 21.5468 128.446 22.8461 126.834 22.8461ZM136.417 15.4729C135.399 15.4729 134.507 15.8956 134.022 16.6157V15.6608H132.707V23.9575H134.053V18.9325C134.053 17.6332 134.883 16.7722 136.119 16.7722C137.372 16.7722 138.17 17.6175 138.17 18.9325V23.9575H139.516V18.4942C139.516 16.7566 138.217 15.4729 136.417 15.4729Z" fill="#FCFCFD"/>
<path d="M59.7297 31.2625H56.9467L52.407 44.2207H54.7377L55.6944 41.3681H60.982L61.9561 44.2207H64.2868L59.7297 31.2625ZM56.3379 39.4375L58.3382 33.5584L60.3385 39.4375H56.3379ZM70.566 34.6368C69.2441 34.6368 68.1135 35.1586 67.47 36.0283V34.8455H65.5045V47.6994H67.5917V43.2641C68.2527 43.9946 69.3137 44.4294 70.5486 44.4294C73.2273 44.4294 75.3145 42.3074 75.3145 39.5244C75.3145 36.7414 73.2099 34.6368 70.566 34.6368ZM70.3573 42.4987C68.7397 42.4987 67.5917 41.2638 67.5917 39.5418C67.5917 37.8025 68.7397 36.5675 70.3573 36.5675C71.9575 36.5675 73.1403 37.8199 73.1403 39.5418C73.1403 41.2464 71.9575 42.4987 70.3573 42.4987ZM81.8617 34.6368C80.5398 34.6368 79.4092 35.1586 78.7656 36.0283V34.8455H76.8002V47.6994H78.8874V43.2641C79.5483 43.9946 80.6094 44.4294 81.8443 44.4294C84.5229 44.4294 86.6102 42.3074 86.6102 39.5244C86.6102 36.7414 84.5055 34.6368 81.8617 34.6368ZM81.653 42.4987C80.0354 42.4987 78.8874 41.2638 78.8874 39.5418C78.8874 37.8025 80.0354 36.5675 81.653 36.5675C83.2532 36.5675 84.436 37.8199 84.436 39.5418C84.436 41.2464 83.2532 42.4987 81.653 42.4987ZM94.7016 44.4294C96.841 44.4294 98.3195 43.2814 98.3195 41.5943C98.3195 40.2897 97.4498 39.3505 95.8322 38.8983L94.1624 38.4286C93.6232 38.2721 93.0318 37.9764 93.0318 37.385C93.0318 36.7936 93.571 36.3936 94.4407 36.3936C95.5017 36.3936 96.3366 36.9328 96.6845 37.8199L98.3195 37.0545C97.7455 35.5587 96.2844 34.6368 94.4407 34.6368C92.3708 34.6368 90.962 35.7848 90.962 37.472C90.962 38.7417 91.7795 39.6984 93.4145 40.1506L95.0147 40.568C95.5887 40.7246 96.2496 41.0029 96.2496 41.6464C96.2496 42.29 95.6408 42.7249 94.7016 42.7249C93.5884 42.7249 92.6665 42.1335 92.1795 41.0203L90.5619 41.803C91.1533 43.438 92.7535 44.4294 94.7016 44.4294ZM103.975 44.3251C104.305 44.3251 104.723 44.2903 105.053 44.2381V42.5683C104.827 42.6031 104.601 42.6205 104.427 42.6205C103.105 42.6205 102.775 41.8726 102.775 41.0725V36.7241H105.001V34.8455H102.775V31.9408H100.687V33.4367C100.687 34.3411 100.166 34.8455 99.2612 34.8455H98.9829V36.7241H100.687V41.0725C100.687 43.1423 101.87 44.3251 103.975 44.3251ZM110.79 44.4294C113.521 44.4294 115.713 42.3596 115.713 39.5244C115.713 36.6893 113.538 34.6368 110.79 34.6368C108.025 34.6368 105.868 36.6893 105.868 39.5244C105.868 42.3596 108.042 44.4294 110.79 44.4294ZM110.79 42.4987C109.19 42.4987 108.042 41.2638 108.042 39.5418C108.042 37.8199 109.19 36.5675 110.79 36.5675C112.373 36.5675 113.538 37.8199 113.538 39.5418C113.538 41.2638 112.373 42.4987 110.79 42.4987ZM121.698 34.7412C120.55 34.7412 119.645 35.1238 119.158 36.1501V34.8455H117.193V44.2207H119.28V38.9156C119.28 37.4546 120.15 36.6197 121.437 36.6197H122.567V34.7412H121.698ZM132.513 39.1939C132.513 36.7067 130.634 34.6368 127.991 34.6368C125.347 34.6368 123.346 36.7067 123.346 39.5244C123.346 42.2726 125.312 44.4294 128.147 44.4294C130.06 44.4294 131.591 43.4554 132.165 42.1161L130.443 41.2812C130.026 42.0465 129.278 42.5857 128.164 42.5857C126.721 42.5857 125.625 41.6291 125.521 40.1332H132.409C132.478 39.8549 132.513 39.5244 132.513 39.1939ZM125.555 38.5156C125.799 37.1415 126.773 36.3762 127.991 36.3762C129.191 36.3762 130.2 37.2633 130.269 38.5156H125.555Z" fill="#FCFCFD"/>
<path d="M29.7027 14.7977C29.6472 14.7358 27.6497 14.8222 25.9114 16.7088C24.1732 18.5939 24.4406 20.7561 24.4797 20.8115C24.5189 20.867 26.9583 20.9534 28.5156 18.7602C30.0728 16.567 29.7581 14.8613 29.7027 14.7977ZM35.1066 33.9301C35.0284 33.7735 31.3154 31.9178 31.6611 28.35C32.0068 24.7805 34.3924 23.8021 34.4299 23.6961C34.4674 23.5902 33.4564 22.4079 32.3851 21.8095C31.5985 21.3876 30.7279 21.1458 29.8364 21.1018C29.6603 21.0969 29.0488 20.9469 27.7916 21.2909C26.9632 21.5176 25.0961 22.2514 24.5825 22.2807C24.0672 22.3101 22.5344 21.4296 20.8858 21.1964C19.8308 20.9925 18.7121 21.41 17.9115 21.7312C17.1125 22.0508 15.5927 22.9607 14.5295 25.379C13.4664 27.7956 14.0224 31.6243 14.4203 32.8147C14.8182 34.0034 15.4394 35.9521 16.4961 37.374C17.4354 38.9785 18.6812 40.0923 19.2013 40.4706C19.7215 40.8489 21.1891 41.1 22.2066 40.5798C23.0252 40.0776 24.5026 39.789 25.0863 39.8102C25.6685 39.8314 26.8164 40.0613 27.9921 40.6891C28.9232 41.0103 29.8038 40.8766 30.686 40.5179C31.5681 40.1575 32.8449 38.791 34.3353 36.0205C34.9012 34.7323 35.1588 34.0361 35.1066 33.9301Z" fill="#FCFCFD"/>
</svg>
