<svg width="157" height="56" viewBox="0 0 157 56" fill="none" xmlns="http://www.w3.org/2000/svg">
<g clip-path="url(#clip0_2_10)">
<path d="M147 0H10.4574C4.93455 0 0.457397 4.47715 0.457397 10V45.6596C0.457397 51.1824 4.93455 55.6596 10.4574 55.6596H147C152.523 55.6596 157 51.1824 157 45.6596V10C157 4.47715 152.523 0 147 0Z" fill="#1D2025"/>
<path d="M32.384 32.631C35.4805 30.6795 37.8279 29.1924 38.0303 29.0768C38.6775 28.6817 39.346 27.636 38.0303 26.8238C37.6055 26.5683 35.3184 25.1276 32.384 23.2695L28.3162 27.985L32.384 32.6309V32.631Z" fill="#FFD900"/>
<path d="M28.3165 27.9849L15.364 42.9686C15.668 43.0148 16.0113 42.9223 16.4159 42.667C17.2655 42.1332 26.272 36.4877 32.3844 32.632L28.3165 27.9849Z" fill="#F43249"/>
<path d="M28.3166 27.9851L32.3845 23.2928C32.3845 23.2928 17.3271 13.8607 16.416 13.3039C16.0728 13.0705 15.6882 13.0012 15.344 13.0705L28.3166 27.9851Z" fill="#00EE76"/>
<path d="M28.3165 27.9848L15.3438 13.0703C14.8174 13.21 14.3724 13.7439 14.3724 14.8358V41.2031C14.3724 42.2025 14.7167 42.9223 15.364 42.9917L28.3165 27.9848Z" fill="#00D3FF"/>
<path d="M46.8706 23.9575H50.7059C54.2281 23.9575 56.5137 21.625 56.5137 18.1185C56.5137 14.5963 54.2281 12.2951 50.7059 12.2951H46.8706V23.9575ZM48.3578 22.6582V13.5944H50.7059C53.2889 13.5944 54.9795 15.379 54.9795 18.1185C54.9795 20.858 53.3045 22.6582 50.7059 22.6582H48.3578ZM62.1518 24.1454C64.5469 24.1454 66.4254 22.3138 66.4254 19.7935C66.4254 17.2732 64.5625 15.4729 62.1518 15.4729C59.741 15.4729 57.8781 17.2732 57.8781 19.7935C57.8781 22.3138 59.7567 24.1454 62.1518 24.1454ZM62.1518 22.8461C60.5394 22.8461 59.3027 21.5468 59.3027 19.8091C59.3027 18.0715 60.5394 16.7722 62.1518 16.7722C63.7641 16.7722 65.0008 18.0715 65.0008 19.8091C65.0008 21.5468 63.7641 22.8461 62.1518 22.8461ZM77.9375 15.6608L75.9181 21.9381L74.0083 15.6608H72.5368L70.6269 21.9694L68.6075 15.6608H67.0891L69.9851 23.9575H71.2531L73.2882 17.508L75.3076 23.9575H76.5599L79.4559 15.6608H77.9375ZM84.4538 15.4729C83.4363 15.4729 82.544 15.8956 82.0587 16.6157V15.6608H80.7438V23.9575H82.09V18.9325C82.09 17.6332 82.9197 16.7722 84.1564 16.7722C85.4087 16.7722 86.2071 17.6175 86.2071 18.9325V23.9575H87.5534V18.4942C87.5534 16.7566 86.2541 15.4729 84.4538 15.4729ZM89.4575 23.9575H90.8038V12.2951H89.4575V23.9575ZM96.6706 24.1454C99.0657 24.1454 100.944 22.3138 100.944 19.7935C100.944 17.2732 99.0814 15.4729 96.6706 15.4729C94.2599 15.4729 92.397 17.2732 92.397 19.7935C92.397 22.3138 94.2755 24.1454 96.6706 24.1454ZM96.6706 22.8461C95.0582 22.8461 93.8215 21.5468 93.8215 19.8091C93.8215 18.0715 95.0582 16.7722 96.6706 16.7722C98.283 16.7722 99.5197 18.0715 99.5197 19.8091C99.5197 21.5468 98.283 22.8461 96.6706 22.8461ZM105.737 15.4729C104.203 15.4729 102.857 16.3496 102.387 17.4767L103.592 18.1028C103.952 17.2888 104.735 16.7566 105.737 16.7566C106.833 16.7566 107.616 17.3827 107.616 18.3376V18.5725L104.735 19.2143C103.06 19.59 102.074 20.4353 102.074 21.6563C102.074 23.1122 103.264 24.1454 105.033 24.1454C106.097 24.1454 107.083 23.6288 107.647 22.7991V23.9575H108.962V18.3376C108.962 16.647 107.631 15.4729 105.737 15.4729ZM105.111 22.94C104.125 22.94 103.498 22.4391 103.498 21.6563C103.498 20.9832 104.109 20.4666 105.048 20.2631L107.616 19.6683V20.3883C107.616 21.8442 106.567 22.94 105.111 22.94ZM117.391 12.2951V16.8818C116.796 16.0052 115.685 15.4729 114.432 15.4729C112.1 15.4729 110.253 17.3045 110.253 19.8091C110.253 22.3138 112.084 24.1454 114.448 24.1454C115.7 24.1454 116.812 23.6444 117.422 22.7521V23.9575H118.737V12.2951H117.391ZM114.526 22.8461C112.883 22.8461 111.677 21.5624 111.677 19.8091C111.677 18.0715 112.883 16.7722 114.526 16.7722C116.17 16.7722 117.391 18.0715 117.391 19.8091C117.391 21.5624 116.17 22.8461 114.526 22.8461ZM127.291 24.1454C129.686 24.1454 131.565 22.3138 131.565 19.7935C131.565 17.2732 129.702 15.4729 127.291 15.4729C124.88 15.4729 123.018 17.2732 123.018 19.7935C123.018 22.3138 124.896 24.1454 127.291 24.1454ZM127.291 22.8461C125.679 22.8461 124.442 21.5468 124.442 19.8091C124.442 18.0715 125.679 16.7722 127.291 16.7722C128.904 16.7722 130.14 18.0715 130.14 19.8091C130.14 21.5468 128.904 22.8461 127.291 22.8461ZM136.874 15.4729C135.857 15.4729 134.964 15.8956 134.479 16.6157V15.6608H133.164V23.9575H134.51V18.9325C134.51 17.6332 135.34 16.7722 136.577 16.7722C137.829 16.7722 138.627 17.6175 138.627 18.9325V23.9575H139.974V18.4942C139.974 16.7566 138.674 15.4729 136.874 15.4729Z" fill="#FCFCFD"/>
<path d="M55.797 45.8876C58.4582 45.8876 60.2897 44.463 60.8533 42.5689V39.3284H55.8126V41.066H58.9435V42.4123C58.5364 43.3672 57.425 44.103 55.797 44.103C53.3862 44.103 51.8051 42.381 51.8051 39.8607C51.8051 37.3716 53.3705 35.634 55.6404 35.634C57.1276 35.634 58.2703 36.4637 58.7556 37.7317L60.5089 36.8864C59.8671 35.1644 58.0042 33.8494 55.6404 33.8494C52.3061 33.8494 49.8327 36.4167 49.8327 39.8607C49.8327 43.3203 52.353 45.8876 55.797 45.8876ZM66.3191 45.8876C68.7768 45.8876 70.7492 44.0247 70.7492 41.4731C70.7492 38.9214 68.7924 37.0742 66.3191 37.0742C63.83 37.0742 61.8889 38.9214 61.8889 41.4731C61.8889 44.0247 63.8457 45.8876 66.3191 45.8876ZM66.3191 44.1499C64.8789 44.1499 63.8457 43.0385 63.8457 41.4887C63.8457 39.9389 64.8789 38.8118 66.3191 38.8118C67.7436 38.8118 68.7924 39.9389 68.7924 41.4887C68.7924 43.0385 67.7436 44.1499 66.3191 44.1499ZM76.0418 45.8876C78.4995 45.8876 80.472 44.0247 80.472 41.4731C80.472 38.9214 78.5152 37.0742 76.0418 37.0742C73.5528 37.0742 71.6117 38.9214 71.6117 41.4731C71.6117 44.0247 73.5684 45.8876 76.0418 45.8876ZM76.0418 44.1499C74.6016 44.1499 73.5684 43.0385 73.5684 41.4887C73.5684 39.9389 74.6016 38.8118 76.0418 38.8118C77.4664 38.8118 78.5152 39.9389 78.5152 41.4887C78.5152 43.0385 77.4664 44.1499 76.0418 44.1499ZM88.1597 37.2621V38.2796C87.5648 37.5282 86.6256 37.0742 85.4671 37.0742C83.2442 37.0742 81.3344 38.7023 81.3344 41.16C81.3344 43.5707 83.2129 45.277 85.4985 45.277C86.5473 45.277 87.4552 44.917 88.0658 44.2439V45.2927C88.0658 46.6233 87.0169 47.4373 85.702 47.4373C84.5592 47.4373 83.7921 46.8112 83.4947 45.9502L81.8667 46.7642C82.3989 48.1887 83.8704 49.1593 85.7176 49.1593C88.0658 49.1593 89.9443 47.5939 89.9443 45.2927V37.2621H88.1597ZM85.6863 43.5394C84.2931 43.5394 83.2912 42.5689 83.2912 41.1756C83.2912 39.7667 84.34 38.8118 85.6707 38.8118C87.0326 38.8118 88.0658 39.7824 88.0658 41.1756C88.0658 42.5532 87.0795 43.5394 85.6863 43.5394ZM91.7408 45.6997H93.6193V34.0373H91.7408V45.6997ZM103.205 41.1756C103.205 38.9371 101.515 37.0742 99.1351 37.0742C96.7557 37.0742 94.9555 38.9371 94.9555 41.4731C94.9555 43.9464 96.7244 45.8876 99.276 45.8876C100.998 45.8876 102.376 45.0109 102.892 43.8055L101.342 43.0541C100.967 43.7429 100.294 44.2282 99.2917 44.2282C97.9924 44.2282 97.0062 43.3672 96.9122 42.021H103.111C103.174 41.7705 103.205 41.4731 103.205 41.1756ZM96.9435 40.5651C97.1627 39.3284 98.0393 38.6396 99.1351 38.6396C100.215 38.6396 101.123 39.438 101.186 40.5651H96.9435ZM107.307 45.6997H109.279V41.3478H111.8C114.179 41.3478 115.87 40.0016 115.87 37.7004C115.87 35.3836 114.195 34.0373 111.8 34.0373H107.307V45.6997ZM109.279 39.6259V35.7749H111.8C113.036 35.7749 113.866 36.542 113.866 37.7004C113.866 38.8588 113.036 39.6259 111.8 39.6259H109.279ZM117.301 45.6997H119.18V34.0373H117.301V45.6997ZM124.398 37.0742C122.723 37.0742 121.314 37.9665 120.829 39.2502L122.457 40.0642C122.77 39.2658 123.49 38.7649 124.398 38.7649C125.337 38.7649 125.979 39.2815 125.979 40.0642V40.3303L123.208 40.9252C121.502 41.3009 120.516 42.1305 120.516 43.3829C120.516 44.8231 121.706 45.8876 123.584 45.8876C124.602 45.8876 125.463 45.5119 126.089 44.7605V45.6997H127.858V40.0642C127.858 38.3109 126.449 37.0742 124.398 37.0742ZM123.803 44.4004C122.989 44.4004 122.473 44.009 122.473 43.3672C122.473 42.8506 122.88 42.4436 123.584 42.2871L125.979 41.7548V42.3027C125.979 43.4925 125.056 44.4004 123.803 44.4004ZM135.171 37.2621L132.901 43.2263L130.631 37.2621H128.58L131.899 45.6684L131.617 46.3259C131.398 46.8425 131.116 47.4686 130.036 47.4686C129.707 47.4686 129.3 47.406 129.066 47.3434V48.9245C129.41 49.081 129.848 49.1436 130.302 49.1436C132.431 49.1436 133.089 47.6095 133.464 46.6859L137.221 37.2621H135.171Z" fill="#FCFCFD"/>
</g>
<defs>
<clipPath id="clip0_2_10">
<rect width="157" height="56" fill="white"/>
</clipPath>
</defs>
</svg>
