<svg width="20" height="20" viewBox="0 0 20 20" fill="none" xmlns="http://www.w3.org/2000/svg">
<path d="M3.65187 0C1.6289 0 0 1.6289 0 3.65187V16.3481C0 18.3711 1.6289 20 3.65187 20H10.5331V12.1812H8.46562V9.36624H10.5331V6.96125C10.5331 5.07175 11.7547 3.33687 14.5687 3.33687C15.7081 3.33687 16.5506 3.44625 16.5506 3.44625L16.4843 6.07501C16.4843 6.07501 15.6251 6.06689 14.6875 6.06689C13.6727 6.06689 13.51 6.53445 13.51 7.31065V9.36626H16.565L16.4318 12.1813H13.51V20H16.3481C18.3711 20 20 18.3711 20 16.3481V3.65189C20 1.62892 18.3711 2e-05 16.3481 2e-05L3.65187 0Z" fill="#23273C"/>
</svg>
