<svg width="250" height="250" viewBox="0 0 250 250" fill="none" xmlns="http://www.w3.org/2000/svg">
<rect width="250" height="250" rx="50" fill="#23273C"/>
<path d="M193.755 155.983C190.42 153.156 186.034 151.942 181.707 152.663L139.719 159.663C139.502 156.037 138.046 152.653 135.461 150.068C132.669 147.28 129.008 145.771 125.007 145.766C98.3022 145.845 80.6847 145.849 76.7922 145.775C74.0739 142.746 70.1764 140.803 65.8004 140.803H55.9335C53.2102 140.803 51 143.013 51 145.736V195.071C51 197.794 53.2102 200.004 55.9335 200.004H65.8004C70.1567 200.004 74.0393 198.075 76.7527 195.071H125.002C125.347 195.071 125.698 195.036 126.033 194.962L187.258 181.844C194.061 180.384 198.999 174.276 198.999 167.315C199.004 162.939 197.09 158.81 193.755 155.983ZM65.8004 190.137H60.867V150.67H65.8004C68.5188 150.67 70.7339 152.885 70.7339 155.603V185.204C70.7339 187.922 68.5188 190.137 65.8004 190.137ZM185.195 172.194L124.479 185.204H80.6008V155.672C86.7381 155.721 99.1655 155.707 125.032 155.633C125.037 155.633 125.042 155.633 125.047 155.633C126.349 155.633 127.568 156.136 128.49 157.053C129.423 157.986 129.936 159.224 129.936 160.551C129.936 163.265 127.73 165.47 125.017 165.47H100.335C97.6115 165.47 95.4013 167.68 95.4013 170.403C95.4013 173.127 97.6115 175.337 100.335 175.337H125.017C129.432 175.337 133.359 173.349 136.073 170.27L183.331 162.391C184.801 162.155 186.236 162.544 187.376 163.506C188.511 164.473 189.137 165.825 189.137 167.315C189.137 169.654 187.48 171.706 185.195 172.194ZM115.135 140.803H134.869C159.349 140.803 179.27 120.881 179.27 96.4013C179.27 71.9214 159.349 52 134.869 52H115.135C90.6553 52 70.7339 71.9214 70.7339 96.4013C70.7339 120.881 90.6553 140.803 115.135 140.803ZM169.403 96.4013C169.403 112.06 158.92 125.292 144.613 129.515C153.745 121.375 159.536 109.564 159.536 96.4013C159.536 83.2388 153.745 71.428 144.613 63.2878C158.92 67.5108 169.403 80.7424 169.403 96.4013ZM115.135 61.867C134.178 61.867 149.67 77.3581 149.67 96.4013C149.67 115.444 134.178 130.936 115.135 130.936C96.092 130.936 80.6008 115.444 80.6008 96.4013C80.6008 77.3581 96.092 61.867 115.135 61.867Z" fill="#A2A2A3"/>
<path d="M99.9993 103.515L98.0703 115.336C97.7644 117.201 98.5538 119.076 100.098 120.166C101.647 121.251 103.68 121.365 105.327 120.452L115.135 115.03L124.943 120.452C125.693 120.861 126.512 121.069 127.331 121.069C128.327 121.069 129.324 120.763 130.172 120.166C131.717 119.08 132.506 117.201 132.2 115.336L130.271 103.515L138.397 95.1876C139.689 93.8655 140.133 91.9315 139.541 90.1752C138.949 88.4189 137.435 87.1411 135.609 86.8649L124.578 85.1776L119.6 74.5706C118.791 72.839 117.049 71.7339 115.135 71.7339C113.221 71.7339 111.479 72.839 110.67 74.5706L105.693 85.1776L94.6563 86.8649C92.831 87.1461 91.3114 88.4238 90.7244 90.1752C90.1373 91.9266 90.5764 93.8655 91.8689 95.1876L99.9993 103.515ZM109.782 94.5364C111.41 94.2848 112.807 93.2438 113.502 91.7539L115.135 88.2808L116.768 91.7589C117.469 93.2488 118.86 94.2897 120.488 94.5413L124.632 95.1728L121.47 98.4141C120.375 99.534 119.881 101.108 120.133 102.652L120.828 106.905L117.523 105.079C116.783 104.67 115.959 104.463 115.135 104.463C114.311 104.463 113.492 104.67 112.747 105.079L109.442 106.905L110.138 102.652C110.389 101.108 109.896 99.534 108.801 98.4141L105.638 95.1679L109.782 94.5364Z" fill="#A2A2A3"/>
</svg>
