<svg width="30" height="30" viewBox="0 0 30 30" fill="none" xmlns="http://www.w3.org/2000/svg">
<path fill-rule="evenodd" clip-rule="evenodd" d="M14.9764 30C23.2477 30 29.9529 23.2843 29.9529 15C29.9529 6.71573 23.2477 0 14.9764 0C6.70517 0 0 6.71573 0 15C0 23.2843 6.70517 30 14.9764 30Z" fill="#F7F7F7"/>
<path d="M23.559 21.1884L13.3059 12.1644C13.9993 10.9748 13.8063 9.46675 12.8357 8.49084L9.53074 5.18067C9.28985 4.93981 8.89963 4.94014 8.65915 5.18141C8.41895 5.42239 8.41895 5.8127 8.65915 6.05368L10.913 8.31103C11.1536 8.55209 11.1536 8.94289 10.913 9.18395V9.18399C10.6723 9.42506 10.282 9.42506 10.0414 9.18399L6.91592 6.05368C6.67524 5.81261 6.28502 5.81261 6.04433 6.05368C5.80365 6.29474 5.80365 6.68558 6.04433 6.92664L9.16973 10.057C9.41042 10.298 9.41042 10.6888 9.16973 10.9299C8.92904 11.171 8.53882 11.171 8.29814 10.9299L6.04429 8.67261C5.80361 8.43154 5.41339 8.43154 5.1727 8.67261C4.93202 8.91367 4.93202 9.3045 5.1727 9.54557L8.47954 12.8576C9.44956 13.8252 10.947 14.0206 12.1322 13.3344L21.1447 23.6065C21.7601 24.3256 22.841 24.4089 23.559 23.7925C24.2769 23.1762 24.3601 22.0935 23.7447 21.3744C23.6876 21.3077 23.6255 21.2456 23.559 21.1884Z" fill="#D1CCED"/>
<path d="M13.0636 9.14502C12.8228 9.14531 12.6278 9.34107 12.6281 9.58226C12.6282 9.6427 12.6408 9.70244 12.6651 9.75773C12.9188 10.3372 12.9076 10.9986 12.6344 11.5691C12.5307 11.7867 12.6228 12.0472 12.8401 12.151C13.0573 12.2548 13.3174 12.1626 13.421 11.945C13.4211 11.9448 13.4212 11.9447 13.4213 11.9445C13.5538 11.6657 13.6435 11.3684 13.6873 11.0627C13.6881 11.0577 13.6888 11.0527 13.6895 11.0477V11.0475C13.6902 11.0425 13.6909 11.0375 13.6915 11.0325L13.6916 11.0323C13.6922 11.0273 13.6929 11.0223 13.6935 11.0174L13.6936 11.0171C13.6942 11.0122 13.6948 11.0072 13.6954 11.0022L13.6955 11.0019L13.6967 10.992V10.9919C13.6969 10.9903 13.697 10.9888 13.6972 10.9872L13.6973 10.9867C13.6977 10.9834 13.6981 10.9802 13.6985 10.9769V10.9766C13.6987 10.9751 13.6988 10.9736 13.699 10.9721L13.6991 10.9714C13.6994 10.9681 13.6998 10.9649 13.7002 10.9616V10.9615C13.7004 10.9599 13.7005 10.9585 13.7007 10.9569V10.9562L13.7018 10.9464V10.9462L13.7023 10.9417L13.7024 10.9409C13.7025 10.9394 13.7027 10.9379 13.7028 10.9364L13.7029 10.9362L13.7034 10.9312V10.931L13.7039 10.9265V10.9257L13.7044 10.921V10.9209L13.7049 10.9159V10.9158C13.705 10.9143 13.7052 10.9128 13.7053 10.9112L13.7054 10.9104C13.7055 10.9089 13.7057 10.9075 13.7058 10.9061V10.9056C13.706 10.904 13.7061 10.9024 13.7063 10.9008V10.9004C13.7064 10.899 13.7065 10.8976 13.7067 10.8961L13.7068 10.8951C13.7069 10.8937 13.707 10.8924 13.7071 10.891L13.7072 10.8904L13.7076 10.8855V10.8852L13.7079 10.8809L13.708 10.8799L13.7083 10.8759L13.7084 10.8751C13.7085 10.8735 13.7087 10.872 13.7088 10.8704V10.8698L13.7091 10.8657L13.7092 10.8646L13.7095 10.8606L13.7096 10.8599C13.7097 10.8583 13.7098 10.8567 13.7099 10.8551L13.71 10.8546C13.7101 10.8532 13.7102 10.8519 13.7103 10.8505L13.7104 10.8493C13.7105 10.848 13.7106 10.8468 13.7107 10.8455V10.8446L13.711 10.8399L13.7111 10.8395L13.7114 10.8353L13.7115 10.8341L13.7117 10.8303L13.7118 10.8294C13.7119 10.8278 13.712 10.8262 13.7121 10.8247V10.8242L13.7124 10.8201V10.8188L13.7127 10.8152V10.8141C13.7128 10.8126 13.7129 10.811 13.713 10.8095V10.8088L13.7133 10.8049L13.7134 10.8035L13.7136 10.8V10.7988C13.7137 10.7973 13.7138 10.7958 13.7139 10.7942V10.7934L13.7141 10.7896L13.7142 10.7882L13.7144 10.7848L13.7145 10.7835L13.7147 10.7789L13.7148 10.7783C13.7148 10.7769 13.7149 10.7757 13.715 10.7744V10.7729L13.7152 10.7695L13.7153 10.7682C13.7153 10.7667 13.7154 10.7652 13.7155 10.7637V10.763L13.7157 10.7591V10.7577L13.7159 10.7544V10.7529C13.7159 10.7514 13.716 10.7499 13.7161 10.7484V10.7476C13.7162 10.7463 13.7163 10.7451 13.7163 10.7439L13.7164 10.7423L13.7165 10.7391V10.7377L13.7167 10.7332V10.7325C13.7168 10.7312 13.7168 10.7299 13.7168 10.7287L13.7169 10.7271L13.717 10.7239V10.7224C13.7171 10.7209 13.7171 10.7194 13.7172 10.7179V10.7173L13.7173 10.7134V10.7117L13.7174 10.7088C13.7175 10.7081 13.7175 10.7077 13.7175 10.707C13.7175 10.7057 13.7175 10.7044 13.7176 10.7031V10.7016L13.7177 10.6982V10.6964C13.7178 10.6955 13.7178 10.6944 13.7178 10.6935V10.6917L13.7179 10.6878V10.6865C13.718 10.6853 13.718 10.6841 13.718 10.6829V10.6812C13.718 10.6802 13.7181 10.6791 13.7181 10.6782V10.6765C13.7181 10.6753 13.7182 10.674 13.7182 10.6728V10.6712C13.7182 10.67 13.7182 10.6689 13.7182 10.6677V10.6659L13.7183 10.6631V10.6612C13.7183 10.6599 13.7184 10.6588 13.7184 10.6575V10.6562C13.7184 10.655 13.7184 10.6537 13.7184 10.6525V10.6506C13.7185 10.6496 13.7185 10.6488 13.7185 10.6479C13.7185 10.6472 13.7185 10.6466 13.7185 10.646V10.6427L13.7186 10.6407V10.6353C13.7186 10.6345 13.7186 10.6335 13.7186 10.6327V10.62C13.7186 10.6191 13.7186 10.6182 13.7186 10.6174V10.6123L13.7185 10.6104V10.6067V10.6048C13.7185 10.6039 13.7185 10.603 13.7184 10.6021V10.6002C13.7184 10.5992 13.7184 10.5981 13.7184 10.5971C13.7184 10.5964 13.7184 10.5958 13.7184 10.5952L13.7183 10.5914C13.7183 10.5908 13.7183 10.5901 13.7183 10.5895C13.7183 10.5886 13.7183 10.5878 13.7182 10.5869C13.7182 10.5862 13.7182 10.5855 13.7182 10.5849V10.582C13.7181 10.5813 13.7181 10.5805 13.7181 10.5798L13.718 10.5762V10.5742C13.718 10.5734 13.7179 10.5725 13.7179 10.5717C13.7179 10.5709 13.7179 10.5703 13.7179 10.5695V10.5669L13.7178 10.5643C13.7178 10.5632 13.7178 10.5621 13.7178 10.5609C13.7177 10.5602 13.7177 10.5596 13.7177 10.5589C13.7177 10.5581 13.7177 10.5572 13.7177 10.5563C13.7177 10.5557 13.7177 10.5549 13.7177 10.5543C13.7176 10.5534 13.7176 10.5525 13.7176 10.5517L13.7175 10.549V10.5457C13.7174 10.545 13.7174 10.5443 13.7174 10.5436L13.7173 10.5412V10.5389L13.7172 10.5364L13.7171 10.534C13.7171 10.5328 13.7171 10.5316 13.717 10.5304V10.5283L13.7169 10.5258L13.7168 10.5237L13.7167 10.5211L13.7166 10.5192C13.7166 10.5178 13.7166 10.5165 13.7165 10.5151L13.7164 10.513V10.5106L13.7162 10.5084L13.7161 10.506L13.716 10.5036C13.716 10.5024 13.7159 10.5011 13.7159 10.4999C13.7159 10.4992 13.7158 10.4984 13.7158 10.4977C13.7157 10.497 13.7157 10.4961 13.7157 10.4954L13.7156 10.4932L13.7155 10.4908L13.7153 10.4884C13.7153 10.4871 13.7152 10.4859 13.7151 10.4846L13.715 10.4825L13.7149 10.4802C13.7149 10.4795 13.7149 10.4786 13.7148 10.4779L13.7147 10.4756L13.7146 10.4734C13.7145 10.4721 13.7144 10.4708 13.7144 10.4694L13.7142 10.4672L13.7141 10.465C13.7141 10.4642 13.714 10.4634 13.714 10.4627C13.7139 10.4619 13.7139 10.4612 13.7139 10.4604L13.7137 10.4582C13.7137 10.4569 13.7136 10.4555 13.7135 10.4542C13.7135 10.4535 13.7134 10.4527 13.7134 10.452L13.7133 10.4497L13.7132 10.4474L13.713 10.4452L13.7129 10.4429L13.7127 10.439L13.7126 10.4368L13.7124 10.4344C13.7124 10.4337 13.7123 10.433 13.7123 10.4322L13.7121 10.4298C13.7121 10.4292 13.712 10.4284 13.712 10.4277C13.7119 10.4263 13.7118 10.4251 13.7117 10.4237L13.7116 10.4216L13.7114 10.4192L13.7112 10.417L13.7111 10.4147L13.7109 10.4125C13.7108 10.4111 13.7107 10.4099 13.7106 10.4085L13.7105 10.4063L13.7103 10.404C13.7102 10.4032 13.7102 10.4025 13.7101 10.4017L13.7099 10.3995L13.7098 10.3972L13.7094 10.3932L13.7093 10.391L13.7091 10.3888L13.7089 10.3864C13.7089 10.3857 13.7088 10.3851 13.7088 10.3844C13.7087 10.3836 13.7086 10.3829 13.7086 10.382L13.7083 10.3786L13.708 10.3758C13.708 10.375 13.7079 10.3744 13.7078 10.3736C13.7078 10.3728 13.7077 10.3721 13.7076 10.3713L13.7074 10.3691L13.7072 10.3669L13.7069 10.3629L13.7067 10.3608C13.7066 10.36 13.7065 10.3592 13.7065 10.3584L13.7063 10.3562L13.7061 10.3538L13.7059 10.3517C13.7057 10.3504 13.7056 10.349 13.7055 10.3477L13.7053 10.3455C13.7052 10.3448 13.7051 10.344 13.7051 10.3433L13.7048 10.3409C13.7048 10.3402 13.7047 10.3395 13.7046 10.3388C13.7045 10.3381 13.7045 10.3372 13.7044 10.3364C13.7043 10.3355 13.7043 10.3347 13.7041 10.3338C13.704 10.3326 13.7039 10.3314 13.7038 10.3302L13.7036 10.3281L13.7034 10.3256L13.7032 10.3237L13.7029 10.3212L13.7026 10.3185C13.7025 10.3174 13.7024 10.3162 13.7023 10.3151L13.7021 10.3129C13.702 10.3121 13.7019 10.3112 13.7019 10.3105L13.7016 10.3084L13.7014 10.306C13.7012 10.3051 13.7012 10.3043 13.7011 10.3034L13.7007 10.2998C13.7006 10.2991 13.7005 10.2984 13.7005 10.2977L13.7002 10.2952L13.7 10.2933L13.6997 10.2908L13.6994 10.2886L13.699 10.2845L13.6987 10.2825L13.6985 10.28C13.6984 10.2794 13.6983 10.2788 13.6983 10.2781C13.6981 10.2773 13.6981 10.2764 13.698 10.2756L13.6977 10.2734C13.6975 10.2721 13.6974 10.2707 13.6972 10.2694L13.6969 10.2673L13.6967 10.2648L13.6965 10.2629L13.6961 10.2604L13.6959 10.2585C13.6957 10.257 13.6956 10.2556 13.6954 10.2541L13.6951 10.2521L13.6948 10.2497L13.6946 10.2478L13.6943 10.2453L13.694 10.2432L13.6935 10.2391L13.6932 10.237L13.6929 10.2345L13.6926 10.2325L13.6922 10.2302C13.6922 10.2294 13.692 10.2286 13.692 10.2279C13.6918 10.2265 13.6916 10.2253 13.6915 10.224C13.6913 10.2232 13.6913 10.2225 13.6912 10.2218L13.6909 10.2194L13.6906 10.2173L13.6902 10.215L13.6899 10.2125L13.6894 10.209L13.6891 10.2066L13.6888 10.2043L13.6885 10.2022C13.6884 10.2015 13.6882 10.2006 13.6882 10.1999C13.688 10.199 13.6879 10.1982 13.6878 10.1973L13.6873 10.194C13.6872 10.1931 13.6871 10.1923 13.6869 10.1914C13.6869 10.1907 13.6867 10.19 13.6867 10.1893C13.6865 10.1885 13.6864 10.1878 13.6863 10.187L13.686 10.1848L13.6856 10.182L13.6851 10.179L13.6847 10.1763L13.6844 10.1742C13.6843 10.1734 13.6842 10.1726 13.6841 10.1718L13.6838 10.1697C13.6836 10.1688 13.6835 10.1678 13.6833 10.1668L13.6829 10.1639C13.6827 10.163 13.6826 10.1621 13.6825 10.1612L13.6822 10.159C13.682 10.1583 13.6819 10.1574 13.6818 10.1567L13.6815 10.1545L13.681 10.1516C13.6809 10.1508 13.6807 10.1499 13.6806 10.149C13.6805 10.148 13.6803 10.147 13.6802 10.1461L13.6798 10.1439L13.6795 10.1416L13.6791 10.1394C13.679 10.1385 13.6788 10.1377 13.6787 10.1368C13.6785 10.1358 13.6784 10.1348 13.6782 10.1338L13.6778 10.131L13.6775 10.1289L13.6771 10.1265L13.6767 10.1244L13.6762 10.1216L13.6758 10.119C13.6756 10.118 13.6755 10.1169 13.6753 10.1159L13.675 10.1139L13.6746 10.1114L13.6742 10.1094L13.6737 10.1064L13.6733 10.1041L13.6728 10.1008L13.6724 10.0988L13.672 10.0963L13.6717 10.0943C13.6715 10.0933 13.6713 10.0922 13.6711 10.0912L13.6708 10.0894C13.6706 10.0881 13.6703 10.0869 13.6701 10.0857L13.6698 10.0837C13.6697 10.0829 13.6695 10.0821 13.6693 10.0812L13.669 10.0792C13.6688 10.0782 13.6686 10.0773 13.6684 10.0762L13.6681 10.0747L13.6674 10.0706L13.6671 10.0689L13.6666 10.0661L13.6662 10.0643C13.666 10.0633 13.6658 10.0621 13.6656 10.0611L13.6654 10.0598L13.6645 10.0556L13.6642 10.0539L13.6637 10.051L13.6634 10.0493L13.6627 10.0459L13.6625 10.0448L13.6616 10.0405L13.6614 10.039C13.6612 10.038 13.661 10.037 13.6608 10.036L13.6605 10.0343C13.6603 10.0332 13.66 10.032 13.6598 10.0309L13.6596 10.0298L13.6587 10.0256L13.6584 10.0239L13.6578 10.0211L13.6575 10.0193L13.6568 10.0161L13.6565 10.0148C13.6563 10.0134 13.656 10.0119 13.6557 10.0105L13.6554 10.0091L13.6547 10.006L13.6544 10.0044C13.6542 10.0033 13.6539 10.0021 13.6537 10.001L13.6535 9.9999C13.6531 9.99846 13.6529 9.99703 13.6526 9.99556L13.6523 9.99408L13.6516 9.99102L13.6513 9.98942L13.6505 9.98598L13.6503 9.98496C13.65 9.98344 13.6497 9.98205 13.6493 9.98054L13.6491 9.97927L13.6483 9.976L13.648 9.97452L13.6472 9.97096L13.647 9.96998C13.6467 9.96847 13.6464 9.96712 13.646 9.9656L13.6458 9.96421L13.645 9.96106L13.6447 9.95951C13.6444 9.95836 13.6442 9.95721 13.6439 9.95607L13.6437 9.95505L13.6426 9.95063L13.6424 9.94948C13.6421 9.94833 13.6419 9.94727 13.6416 9.94613L13.6413 9.94465L13.6405 9.94121L13.6402 9.94015L13.6392 9.93573L13.6389 9.93454L13.6381 9.93119L13.6378 9.9298L13.6369 9.9262L13.6367 9.92526C13.6364 9.92374 13.636 9.92223 13.6357 9.92075L13.6354 9.91981C13.6351 9.91863 13.6348 9.91744 13.6346 9.91625L13.6342 9.9149L13.6334 9.91122L13.6332 9.91036C13.6328 9.90889 13.6324 9.90733 13.6321 9.90582L13.6318 9.90488L13.631 9.90132L13.6306 9.89997C13.6303 9.89874 13.63 9.89755 13.6297 9.89628L13.6295 9.89547C13.6292 9.89391 13.6288 9.8924 13.6284 9.89088L13.6282 9.89019L13.6273 9.88634L13.627 9.88511C13.6267 9.8838 13.6263 9.88262 13.6261 9.88131L13.6259 9.88057L13.6247 9.87591L13.6246 9.87554C13.6242 9.87415 13.6239 9.87271 13.6235 9.87132L13.6232 9.87042C13.6229 9.86907 13.6225 9.86768 13.6222 9.86633L13.6221 9.8658L13.6208 9.86105V9.86081L13.6197 9.85655L13.6194 9.85557C13.6191 9.85418 13.6187 9.85291 13.6183 9.85152L13.6182 9.85103L13.617 9.84628L13.6169 9.84599C13.6165 9.84456 13.6161 9.84321 13.6158 9.84174L13.6155 9.84071C13.6151 9.83936 13.6147 9.83809 13.6144 9.83674L13.6143 9.83613C13.6138 9.83453 13.6134 9.83298 13.6129 9.83138L13.6117 9.82684L13.6115 9.82598L13.6104 9.82185L13.6102 9.82136C13.6094 9.81821 13.6085 9.81514 13.6077 9.81203L13.6074 9.81121C13.6071 9.80982 13.6067 9.80847 13.6063 9.80708L13.6062 9.80659C13.6053 9.80343 13.6044 9.80037 13.6035 9.79721L13.6033 9.79648C13.6029 9.79505 13.6025 9.79357 13.602 9.79214V9.79185C13.6011 9.78874 13.6002 9.78551 13.5993 9.7824L13.5991 9.78179L13.5978 9.77745L13.5977 9.77712C13.5968 9.77401 13.5958 9.77074 13.5949 9.76763L13.5947 9.7671C13.5943 9.76562 13.5939 9.76411 13.5934 9.76264L13.5933 9.76243C13.5924 9.7592 13.5915 9.75605 13.5905 9.75282L13.5904 9.75249L13.5889 9.74782V9.7477C13.5879 9.74443 13.5869 9.74128 13.5859 9.738V9.73784C13.5844 9.73301 13.5829 9.7281 13.5814 9.72327V9.72323C13.5478 9.61512 13.5081 9.50901 13.4625 9.4054C13.3929 9.24712 13.2364 9.14494 13.0636 9.14502Z" fill="#1D2025"/>
<path d="M15.7703 14.3917C15.3341 14.1732 14.8038 14.3143 14.5333 14.7207L14.0225 15.4882L15.3144 16.9607C15.3767 16.911 15.4324 16.8536 15.4803 16.7898L16.1424 15.7951C16.4386 15.35 16.3185 14.7487 15.8742 14.452C15.8408 14.4298 15.8061 14.4096 15.7703 14.3917Z" fill="#BBB3E5"/>
<path fill-rule="evenodd" clip-rule="evenodd" d="M5.65527 9.84886C5.65527 9.60779 5.8504 9.41235 6.09109 9.41235C6.20671 9.41219 6.3176 9.45819 6.39943 9.54027L9.09547 12.2406C9.49627 12.6438 10.0415 12.8697 10.6097 12.8679C10.9915 12.8678 11.3667 12.7677 11.6979 12.5775C12.0576 12.3706 12.5129 12.4463 12.7866 12.7583L15.1355 15.4355C15.294 15.6163 15.2766 15.8915 15.0965 16.0508C14.9161 16.2103 14.6407 16.1932 14.4814 16.0125L12.1765 13.3854L12.1754 13.3842L12.1745 13.3833L12.1736 13.3822L12.1668 13.3744L12.166 13.3736L12.1657 13.3732L12.1654 13.3728L12.1633 13.3705L12.1627 13.3698L12.1606 13.3674L12.1599 13.3666L12.1565 13.3627L12.1556 13.3617L12.1554 13.3615L12.1522 13.3579L12.152 13.3576L12.1512 13.3567L12.1508 13.3563L12.1506 13.3561L12.1496 13.3549L12.1484 13.3536L12.1483 13.3534L12.1472 13.3522L12.1456 13.3503L12.145 13.3497L12.1449 13.3496L12.1441 13.3487V13.3486L12.1433 13.3478L12.1432 13.3476L12.1417 13.346L12.1416 13.3459L12.141 13.3452L12.14 13.344L12.1397 13.3437L12.1383 13.3422L12.1379 13.3417L12.1377 13.3415L12.1375 13.3413L12.1373 13.3411L12.1361 13.3397L12.1355 13.339L12.1352 13.3387L12.1327 13.3358L12.1322 13.3353L12.1321 13.3351L12.132 13.335L12.1316 13.3345C11.6684 13.6008 11.1436 13.7408 10.6094 13.7408C9.81017 13.7425 9.0433 13.4246 8.47895 12.8578L5.78291 10.1575C5.7012 10.0756 5.65527 9.96462 5.65527 9.84886ZM15.6695 15.21C15.6696 14.9689 15.8648 14.7736 16.1055 14.7737C16.2113 14.7735 16.3136 14.8121 16.393 14.8823L23.514 21.1497L23.5141 21.1498L23.5155 21.1511L23.5162 21.1516L23.5218 21.1566L23.5222 21.1569L23.5313 21.1649L23.5316 21.1652L23.5318 21.1653L23.5324 21.1659L23.5325 21.166L23.5343 21.1676L23.5367 21.1697L23.5378 21.1706L23.5403 21.1728L23.5404 21.1729L23.5417 21.1739L23.5438 21.1758L23.5439 21.1759L23.5442 21.1762L23.5444 21.1764L23.5448 21.1767L23.5464 21.1781L23.5486 21.1801L23.5489 21.1804L23.55 21.1814H23.5501L23.5504 21.1817L23.5506 21.1818L23.5509 21.182L23.5515 21.1826L23.5517 21.1827L23.5521 21.1831L23.5529 21.1838L23.553 21.1839L23.554 21.1848L23.5541 21.1849L23.5542 21.185L23.5546 21.1853L23.5553 21.186L23.5555 21.1862H23.5556L23.5557 21.1863L23.5558 21.1864L23.5559 21.1865L23.5564 21.1869L23.5567 21.1872L23.5573 21.1877L23.5576 21.188H23.5577L23.558 21.1884L23.5606 21.1906L23.5614 21.1913L23.5632 21.1928L23.5641 21.1937L23.5659 21.1952L23.5667 21.1959L23.5692 21.198L23.5699 21.1987L23.5717 21.2003L23.5728 21.2012L23.5743 21.2025L23.5753 21.2034L23.577 21.2049L23.5778 21.2057L23.5802 21.2078L23.5813 21.2087L23.5827 21.21L23.5838 21.211L23.5852 21.2123L23.5863 21.2133L23.5882 21.215L23.5896 21.2162L23.5911 21.2176L23.5923 21.2187L23.5936 21.2199L23.5948 21.2209L23.5961 21.2222L23.5972 21.2232L23.5995 21.2252L23.6007 21.2264L23.6019 21.2275L23.6032 21.2286L23.6043 21.2297L23.6056 21.2309L23.6067 21.2319L23.6092 21.2342L23.6102 21.2351L23.6116 21.2364L23.6126 21.2374L23.6141 21.2387L23.6149 21.2396L23.6164 21.241L23.6166 21.2412L23.62 21.2444L23.6208 21.2451L23.6223 21.2466L23.6232 21.2474L23.6247 21.2488L23.6254 21.2495L23.6307 21.2545L23.6313 21.2552L23.633 21.2568L23.6336 21.2573L23.6353 21.259H23.6354L23.6392 21.2628L23.6395 21.2631L23.6412 21.2647L23.6417 21.2652L23.6434 21.2669L23.6438 21.2673L23.6496 21.273L23.6497 21.2731L23.6515 21.275L23.6519 21.2753L23.6597 21.2831L23.6599 21.2834L23.6617 21.2852L23.662 21.2855L23.6697 21.2934L23.67 21.2936L23.6798 21.3038H23.6799C23.828 21.4579 23.9457 21.6386 24.027 21.8364L24.0321 21.849L24.0361 21.8591L24.0371 21.8616L24.0372 21.8617L24.041 21.8717L24.0411 21.8718L24.042 21.8743L24.0449 21.8819L24.0458 21.8844L24.046 21.8846L24.0497 21.8946L24.0498 21.8948L24.0506 21.8971L24.0507 21.8975L24.0534 21.9049L24.0542 21.9071L24.0545 21.9077L24.0553 21.9099V21.9101L24.0579 21.9173L24.0581 21.9178L24.0589 21.92L24.0591 21.9206L24.0624 21.9301L24.0626 21.9308L24.0634 21.9328L24.0636 21.9334L24.0659 21.9403L24.0661 21.9409L24.0668 21.9429L24.0671 21.9437L24.0678 21.9458L24.068 21.9464L24.0702 21.9531L24.0705 21.9539L24.0711 21.9559L24.0714 21.9567L24.0721 21.9588L24.0722 21.9592L24.0735 21.9633L24.0738 21.9641L24.0744 21.966L24.0747 21.967L24.0753 21.9688L24.0757 21.97L24.0776 21.9761L24.0779 21.9772L24.0785 21.9789L24.0788 21.9801L24.0794 21.9819L24.0797 21.9829L24.0808 21.9864L24.0811 21.9873L24.0816 21.9891L24.082 21.9903L24.0825 21.9919L24.0829 21.9932L24.0834 21.9949L24.0839 21.9968L24.0846 21.9989L24.0851 22.0005L24.0855 22.002L24.086 22.0034L24.0864 22.0049L24.0868 22.0065L24.0873 22.0082L24.088 22.0106L24.0884 22.012L24.0889 22.0135L24.0893 22.0151L24.0898 22.0166L24.0902 22.018L24.0907 22.02L24.0912 22.0218L24.0918 22.0238L24.0922 22.0251L24.0927 22.0268L24.093 22.0282L24.0935 22.03L24.0938 22.0312L24.0946 22.034L24.0949 22.0352L24.0954 22.037L24.0958 22.0384L24.0963 22.0401L24.0966 22.0414L24.0972 22.0436L24.0974 22.0444L24.0982 22.0473L24.0985 22.0484L24.099 22.0503L24.0993 22.0515L24.0998 22.0535L24.1001 22.0546L24.1008 22.0575L24.101 22.0581L24.1016 22.0606L24.1019 22.0616L24.1025 22.0637L24.1027 22.0648L24.1033 22.067L24.1035 22.0678L24.1043 22.0708L24.1045 22.0717L24.105 22.0739L24.1053 22.075L24.1058 22.0772L24.1061 22.078L24.1068 22.0811H24.1069L24.1076 22.0843L24.1078 22.085L24.1084 22.0873L24.1086 22.0883L24.1092 22.0907L24.1094 22.0914L24.1101 22.0945L24.1102 22.0949L24.1109 22.0976L24.1111 22.0984L24.1116 22.1008L24.1118 22.1016L24.1132 22.1079L24.1134 22.1085L24.1139 22.1111L24.1141 22.1118L24.1147 22.1144L24.1148 22.1149L24.1162 22.1213L24.1163 22.1219L24.1169 22.1246L24.117 22.1251L24.1177 22.1282V22.1283L24.1185 22.1316V22.1317L24.1191 22.1348L24.1192 22.1353L24.1198 22.1381L24.1199 22.1385L24.1213 22.145V22.1453L24.1219 22.1483L24.122 22.1487L24.1239 22.1585L24.124 22.1588L24.1246 22.1618V22.1621L24.1265 22.1721L24.1266 22.1722L24.1284 22.1823L24.1291 22.1857L24.1309 22.1959C24.1658 22.3975 24.1647 22.6038 24.1275 22.8051C24.0837 23.0421 23.8564 23.1987 23.6197 23.1548C23.3831 23.111 23.2267 22.8832 23.2705 22.6462C23.3273 22.3502 23.2205 22.0466 22.9911 21.8516L15.8176 15.538C15.7234 15.4551 15.6694 15.3356 15.6695 15.21Z" fill="#1D2025"/>
<path d="M16.5342 17.2542C16.2936 17.2542 16.0985 17.4498 16.0986 17.6908C16.0987 17.7962 16.1368 17.898 16.206 17.9775L21.119 23.5773L21.1213 23.5799L21.1217 23.5803L21.1222 23.581L21.1228 23.5816L21.1233 23.5821L21.1266 23.5859L21.1268 23.5861L21.1303 23.5901L21.1305 23.5904L21.131 23.5909L21.1335 23.5938L21.1355 23.5961L21.1359 23.5965L21.1364 23.5971L21.1371 23.598L21.1377 23.5986L21.1385 23.5995L21.1399 23.6011L21.1413 23.6027L21.1414 23.6028L21.1417 23.6032L21.1434 23.6051L21.1436 23.6054L21.1438 23.6056H21.1439L21.1442 23.606L21.1445 23.6064C21.1443 23.6061 21.1443 23.6062 21.1444 23.6062L21.1445 23.6064L21.1444 23.6063L21.1445 23.6064C21.7599 24.3255 22.8408 24.4088 23.5587 23.7925C23.592 23.7639 23.6242 23.734 23.6552 23.703C23.6749 23.6833 23.694 23.6632 23.7125 23.6429C23.7165 23.6384 23.7205 23.634 23.7245 23.6295C23.7299 23.6233 23.7354 23.6172 23.7407 23.611C23.7415 23.6101 23.7423 23.6091 23.7431 23.6082C23.7482 23.6023 23.7533 23.5963 23.7583 23.5903C23.7642 23.5833 23.7699 23.5763 23.7756 23.5692C23.7774 23.567 23.7791 23.5649 23.7809 23.5627C23.7852 23.5573 23.7895 23.5519 23.7937 23.5465C23.8026 23.5351 23.8114 23.5236 23.82 23.512L23.8207 23.5111C23.8256 23.5045 23.8304 23.4979 23.8352 23.4912C23.8369 23.4888 23.8387 23.4864 23.8404 23.484C24.0596 23.1755 24.1704 22.8029 24.1554 22.4246C24.1522 22.3417 24.1431 22.2593 24.1281 22.1778C24.0667 21.8421 23.9061 21.5327 23.667 21.2896L23.6611 21.2835C23.6546 21.277 23.6482 21.2706 23.6416 21.2642L23.6364 21.2591C23.6346 21.2574 23.6329 21.2558 23.6312 21.2541C23.6169 21.2404 23.6023 21.2268 23.5874 21.2135C23.5859 21.2121 23.5844 21.2108 23.5829 21.2095C23.581 21.2078 23.5792 21.2062 23.5773 21.2045L23.5756 21.203L23.5726 21.2004C23.5708 21.1988 23.569 21.1972 23.5672 21.1956L23.5623 21.1914L23.5588 21.1884L23.5584 21.188L23.5578 21.1875L23.5576 21.1873L23.5573 21.1871L23.5571 21.1869L23.5565 21.1864L23.5556 21.1856L23.5552 21.1852L23.5549 21.185L23.5509 21.1814L23.5506 21.1811L23.5475 21.1785L23.5472 21.1782L23.5457 21.1768L23.5442 21.1755L23.5439 21.1753L23.5433 21.1748L23.543 21.1746C23.5382 21.1703 23.5324 21.1652 23.5256 21.1591L23.5235 21.1573L23.5234 21.1572L23.5223 21.1563L23.5207 21.1549L23.5206 21.1548L23.5173 21.1519L23.517 21.1516L23.5154 21.1502L23.5111 21.1464C23.5096 21.1451 23.508 21.1436 23.5064 21.1422L23.505 21.141C23.2628 20.9278 22.2859 20.0681 22.2859 20.0681C22.1049 19.9093 21.8296 19.9275 21.671 20.1088C21.5127 20.2897 21.5305 20.5648 21.7106 20.7239L22.9915 21.8512C23.344 22.1538 23.3848 22.6853 23.0827 23.0384C22.9231 23.2248 22.6902 23.3322 22.445 23.3324C22.1958 23.3318 21.9596 23.2212 21.7992 23.0302L16.8618 17.4025C16.7791 17.308 16.6597 17.2539 16.5342 17.2542Z" fill="#1D2025"/>
<path d="M23.2838 5.8847C21.8397 4.43832 19.1108 4.82641 17.1887 6.75161C15.5295 8.41336 15.0209 10.6734 15.8395 12.192L5.59013 21.1882C4.87216 21.8046 4.78902 22.8872 5.40444 23.6063C6.01986 24.3254 7.10076 24.4086 7.81873 23.7922C7.88528 23.7351 7.94738 23.6729 8.00442 23.6063L16.9865 13.3408C18.5026 14.1607 20.7592 13.6513 22.4183 11.9895C24.3404 10.0643 24.728 7.33113 23.2838 5.8847Z" fill="#E5E2F5"/>
<path d="M21.1174 10.2374C22.3207 10.2374 23.2962 9.06484 23.2962 7.61844C23.2962 6.17205 22.3207 4.99951 21.1174 4.99951C19.914 4.99951 18.9385 6.17205 18.9385 7.61844C18.9385 9.06484 19.914 10.2374 21.1174 10.2374Z" fill="#D9D5F0"/>
<path fill-rule="evenodd" clip-rule="evenodd" d="M17.1981 6.75111C18.3367 5.61077 19.758 5.00977 21.028 5.00977C21.9021 5.00977 22.7045 5.29457 23.2933 5.88314C23.8821 6.47285 24.1664 7.27649 24.1663 8.15203C24.1663 9.42393 23.5662 10.8476 22.4277 11.9879L22.4245 11.9911L22.4236 11.9921L22.4213 11.9943L22.4201 11.9955L22.4181 11.9976L22.4168 11.9988L22.4149 12.0008L22.4136 12.002L22.4116 12.004L22.4104 12.0052L22.4084 12.0072L22.4071 12.0084L22.4051 12.0105L22.4039 12.0117L22.4018 12.0137L22.4007 12.0148L22.3984 12.0172L22.3975 12.018L22.3946 12.0209L22.3943 12.0212L22.3877 12.0277L22.387 12.0284L22.3845 12.0308L22.3834 12.032L22.3814 12.0339L22.38 12.0352L22.3781 12.0372L22.3768 12.0384L22.3748 12.0404L22.3735 12.0416L22.3716 12.0436L22.3702 12.0448L22.3684 12.0466L22.3669 12.0481L22.3651 12.0498L22.3637 12.0512L22.3618 12.0531L22.3605 12.0544L22.3585 12.0563L22.3573 12.0576L22.3541 12.0606L22.353 12.0616L22.3508 12.0637L22.3496 12.0649L22.3476 12.0669L22.3463 12.0681L22.3443 12.07L22.343 12.0713L22.3411 12.0731L22.3397 12.0745L22.3379 12.0763L22.3365 12.0776L22.3346 12.0794L22.3333 12.0808L22.3313 12.0826L22.33 12.0839L22.328 12.0858L22.3268 12.087L22.3247 12.089L22.3235 12.0901L22.3209 12.0926L22.3203 12.0932L22.3171 12.0963L22.3159 12.0974L22.3138 12.0994L22.3124 12.1007L22.3106 12.1025L22.3091 12.1039L22.3073 12.1056L22.3058 12.107L22.304 12.1087L22.3026 12.1101L22.3008 12.1119L22.2993 12.1132L22.2974 12.115L22.296 12.1164L22.2942 12.1181L22.2928 12.1195L22.2909 12.1212L22.2895 12.1225L22.2876 12.1244L22.2862 12.1256L22.2836 12.1281L22.2827 12.129L22.2798 12.1317L22.2787 12.1327L22.2764 12.1349L22.2753 12.1359L22.2732 12.1379L22.2718 12.1391L22.2699 12.141L22.2685 12.1423L22.2666 12.144L22.2652 12.1454L22.2634 12.1471L22.2619 12.1484L22.2601 12.1502L22.2586 12.1515L22.2567 12.1533L22.2553 12.1546L22.2535 12.1563L22.252 12.1577L22.2503 12.1593L22.2487 12.1608L22.2456 12.1637L22.2446 12.1646L22.2423 12.1668L22.2407 12.1682L22.2391 12.1698L22.2374 12.1713L22.2357 12.1728L22.2342 12.1743L22.2325 12.1758L22.2308 12.1773L22.2292 12.1788L22.2276 12.1803L22.2259 12.1819L22.2244 12.1833L22.2225 12.185L22.2211 12.1862L22.2192 12.1881L22.2178 12.1893L22.2155 12.1914L22.2146 12.1923L22.2119 12.1947L22.2112 12.1954L22.2079 12.1984L22.2069 12.1993L22.2047 12.2013L22.2032 12.2027L22.2014 12.2043L22.1998 12.2058L22.1982 12.2073L22.1966 12.2088L22.1949 12.2103L22.1932 12.2118L22.1917 12.2133L22.19 12.2148L22.1883 12.2163L22.1867 12.2177L22.185 12.2192L22.1834 12.2207L22.1818 12.2221L22.1801 12.2237L22.1786 12.225L22.1768 12.2267L22.1755 12.2279L22.1708 12.2321L22.1703 12.2325L22.1685 12.2342L22.167 12.2355L22.1654 12.237L22.1637 12.2385L22.162 12.24L22.1604 12.2414L22.1587 12.243L22.1571 12.2444L22.1553 12.246L22.1539 12.2473L22.1521 12.2489L22.1506 12.2503L22.1488 12.2519L22.1473 12.2532L22.1455 12.2548L22.1439 12.2562L22.1422 12.2578L22.1407 12.2591L22.1389 12.2607L22.1371 12.2623L22.1348 12.2644L22.1324 12.2665L22.1306 12.268L22.1292 12.2693L22.1272 12.271L22.1258 12.2722L22.124 12.2738L22.1225 12.2752L22.1208 12.2766L22.1192 12.2781L22.1175 12.2796L22.1159 12.281L22.1141 12.2826L22.1127 12.2838L22.1107 12.2856L22.1094 12.2867L22.1075 12.2884L22.1059 12.2897L22.1042 12.2913L22.1026 12.2927L22.1008 12.2942L22.0993 12.2956L22.0956 12.2989L22.0943 12.2999L22.0925 12.3015L22.091 12.3029L22.0893 12.3044L22.0877 12.3057L22.0858 12.3074L22.0844 12.3086L22.0825 12.3102L22.0811 12.3115L22.0792 12.3131L22.0778 12.3144L22.0759 12.316L22.0745 12.3172L22.0725 12.3189L22.0712 12.32L22.0692 12.3217L22.0678 12.323L22.0659 12.3246L22.0645 12.3258L22.0572 12.332L22.0561 12.333L22.0543 12.3346L22.0527 12.3359L22.051 12.3374L22.0494 12.3388L22.0476 12.3403L22.0461 12.3416L22.0443 12.3432L22.0427 12.3445L22.0409 12.346L22.0394 12.3473L22.0374 12.349L22.0362 12.3501L22.034 12.3519L22.033 12.3528L22.0306 12.3547L22.0298 12.3555L22.0185 12.365L22.0176 12.3658L22.0154 12.3676L22.0142 12.3686L22.0121 12.3704L22.011 12.3714L22.0088 12.3733L22.0076 12.3742L22.0056 12.376L22.0043 12.3771L22.0023 12.3788L22.0009 12.3799L21.9989 12.3816L21.9976 12.3827L21.9956 12.3844L21.9944 12.3854L21.9922 12.3873L21.9912 12.3882L21.9889 12.3901L21.9884 12.3904L21.9803 12.3972L21.979 12.3983L21.977 12.4L21.9757 12.401L21.9737 12.4027L21.9723 12.4039L21.9704 12.4055L21.969 12.4066L21.967 12.4082L21.9656 12.4094L21.9636 12.411L21.9622 12.4122L21.9603 12.4138L21.9588 12.415L21.9569 12.4165L21.9555 12.4177L21.9535 12.4194L21.9524 12.4203L21.9502 12.4222L21.9496 12.4226L21.9447 12.4266L21.9436 12.4275L21.9416 12.4291L21.9402 12.4303L21.9383 12.4318L21.9368 12.433L21.9349 12.4346L21.9335 12.4358L21.9315 12.4374L21.9301 12.4386L21.9282 12.4401L21.9267 12.4413L21.9247 12.4429L21.9234 12.444L21.9214 12.4456L21.9201 12.4467L21.9179 12.4484L21.9169 12.4493L21.9146 12.4512L21.9138 12.4517L21.9048 12.4591H21.9047L21.9023 12.4611L21.9013 12.4619L21.8991 12.4636L21.8979 12.4646L21.8959 12.4663L21.8945 12.4674L21.8925 12.469L21.8911 12.4701L21.889 12.4718L21.8878 12.4728L21.8857 12.4745L21.8844 12.4755L21.8823 12.4772L21.8811 12.4782L21.8789 12.4799L21.8778 12.4808L21.8755 12.4826L21.8752 12.4829L21.8659 12.4902L21.8656 12.4905L21.8629 12.4926L21.8623 12.4931L21.8597 12.4951L21.8589 12.4958L21.8566 12.4977L21.8555 12.4985L21.8533 12.5003L21.8521 12.5012L21.8499 12.5029L21.8487 12.5039L21.8465 12.5056L21.8454 12.5065L21.8432 12.5082L21.8419 12.5092L21.8398 12.5109L21.8386 12.5118L21.8364 12.5135L21.8356 12.5141L21.8272 12.5208L21.8265 12.5213L21.8241 12.5232L21.8231 12.524L21.8207 12.5258L21.8197 12.5267L21.8175 12.5283L21.8162 12.5294L21.8141 12.531L21.8129 12.5319L21.8107 12.5337L21.8096 12.5345L21.8072 12.5363L21.8063 12.5371L21.8039 12.5389L21.8029 12.5397L21.8004 12.5416L21.8001 12.5419L21.7875 12.5516L21.7872 12.5518L21.7844 12.554L21.7838 12.5544L21.7812 12.5565L21.7804 12.557L21.778 12.559L21.777 12.5597L21.7746 12.5615L21.7736 12.5623L21.7713 12.5641L21.7702 12.5649L21.7679 12.5667L21.7669 12.5675L21.7646 12.5693L21.7635 12.5701L21.7611 12.5719L21.7607 12.5722L21.7485 12.5814L21.7477 12.582L21.7452 12.5839L21.7443 12.5846L21.7418 12.5864L21.7409 12.5871L21.7384 12.5889L21.7375 12.5897L21.7351 12.5915L21.734 12.5923L21.7317 12.594L21.7306 12.5948L21.7283 12.5966L21.7273 12.5973L21.7249 12.5992L21.7241 12.5998L21.7117 12.609L21.7115 12.6092L21.7089 12.6111L21.708 12.6118L21.7057 12.6135L21.7045 12.6143L21.7023 12.616L21.7011 12.6169L21.6989 12.6185L21.6977 12.6194L21.6954 12.621L21.6942 12.6219L21.692 12.6235L21.6908 12.6244L21.6885 12.6261L21.6877 12.6267L21.6851 12.6286L21.6844 12.6291L21.6723 12.638L21.6717 12.6385L21.6693 12.6403L21.6682 12.6411L21.6661 12.6426L21.6647 12.6436L21.6626 12.6452L21.6613 12.6461L21.6591 12.6478L21.6579 12.6486L21.6557 12.6502L21.6545 12.6511L21.6521 12.6528L21.6513 12.6535L21.6487 12.6553L21.6479 12.656L21.6454 12.6578L21.6443 12.6586L21.6419 12.6603L21.6417 12.6604L21.6323 12.6672L21.6319 12.6676L21.6294 12.6694L21.6284 12.6701L21.6261 12.6717L21.6249 12.6725L21.6226 12.6742L21.6215 12.675L21.6192 12.6767L21.6181 12.6775L21.6157 12.6792L21.6147 12.6799L21.6122 12.6817L21.6114 12.6823L21.6088 12.6841L21.6081 12.6847L21.6054 12.6866L21.6048 12.687L21.5927 12.6956L21.5919 12.6962L21.5894 12.698L21.5884 12.6987L21.586 12.7004L21.585 12.7011L21.5826 12.7028L21.5816 12.7036L21.5791 12.7053L21.5782 12.706L21.5757 12.7077L21.5746 12.7084L21.5723 12.7101L21.5713 12.7108L21.5687 12.7126L21.5683 12.7129L21.5524 12.724L21.5518 12.7244L21.5492 12.7262L21.5483 12.7269L21.5459 12.7286L21.5448 12.7293L21.5426 12.7309L21.5413 12.7318L21.5391 12.7333L21.5378 12.7342L21.5357 12.7356L21.5344 12.7366L21.5322 12.7381L21.531 12.7389L21.5287 12.7405L21.5278 12.7411L21.5152 12.7498H21.5151L21.5122 12.7518L21.5116 12.7522L21.509 12.754L21.5081 12.7546L21.5057 12.7562L21.5046 12.757L21.5023 12.7586L21.5011 12.7594L21.4987 12.7611L21.4977 12.7617L21.4951 12.7635L21.4943 12.764L21.4917 12.7658L21.4909 12.7663L21.4882 12.7682L21.4879 12.7683L21.475 12.7771L21.4747 12.7773L21.4721 12.7791L21.4711 12.7797L21.4688 12.7813L21.4676 12.7821L21.4654 12.7836L21.464 12.7845L21.4618 12.7859L21.4605 12.7868L21.4584 12.7883L21.457 12.7892L21.4549 12.7906L21.4536 12.7915L21.4514 12.7929L21.45 12.7938L21.4479 12.7952L21.4467 12.796L21.4444 12.7976L21.4441 12.7978L21.4386 12.8015L21.4376 12.8021L21.4355 12.8035L21.4341 12.8045L21.4321 12.8058L21.4306 12.8068L21.4286 12.8082L21.4271 12.8091L21.4251 12.8105L21.4236 12.8115L21.4216 12.8128L21.4201 12.8138L21.418 12.8152L21.4167 12.8161L21.4145 12.8175L21.4131 12.8184L21.411 12.8198L21.4097 12.8206L21.4075 12.8221L21.4063 12.8229L21.398 12.8283L21.3971 12.8289L21.3947 12.8304L21.3937 12.8311L21.3915 12.8326L21.3901 12.8335L21.3879 12.8349L21.3866 12.8357L21.3844 12.8371L21.3831 12.838L21.381 12.8394L21.3796 12.8403L21.3774 12.8417L21.3761 12.8425L21.3739 12.844L21.3727 12.8448L21.3704 12.8463L21.3693 12.847L21.3669 12.8485L21.3662 12.849L21.3575 12.8546L21.3566 12.8552L21.3542 12.8567L21.353 12.8575L21.3508 12.8589L21.3495 12.8597L21.3472 12.8612L21.346 12.862L21.3438 12.8634L21.3424 12.8643L21.3402 12.8657L21.3389 12.8666L21.3367 12.868L21.3355 12.8688L21.3331 12.8703L21.3321 12.8709L21.3296 12.8725L21.3287 12.8731L21.3164 12.8809L21.3157 12.8812L21.3133 12.8828L21.3122 12.8835L21.3099 12.8849L21.3086 12.8858L21.3064 12.8871L21.305 12.888L21.3029 12.8893L21.3014 12.8902L21.2994 12.8915L21.2979 12.8925L21.2958 12.8938L21.2944 12.8947L21.2924 12.896L21.2908 12.897L21.2888 12.8982L21.2874 12.899L21.279 12.9043L21.2783 12.9047L21.2758 12.9062L21.2748 12.9069L21.2726 12.9083L21.2712 12.9092L21.2692 12.9104L21.2677 12.9114L21.2656 12.9126L21.2641 12.9136L21.2621 12.9148L21.2606 12.9157L21.2585 12.9171L21.2572 12.9179L21.255 12.9193L21.2537 12.92L21.2514 12.9215L21.2502 12.9222L21.2479 12.9236L21.2467 12.9244L21.2386 12.9293L21.2374 12.9301L21.2353 12.9313L21.2338 12.9322L21.2317 12.9335L21.2304 12.9344L21.2282 12.9357L21.2268 12.9366L21.2247 12.9379L21.2233 12.9387L21.2211 12.9401L21.2197 12.9409L21.2175 12.9423L21.2162 12.943L21.214 12.9444L21.2126 12.9452L21.2105 12.9466L21.2092 12.9473L21.2068 12.9488L21.2064 12.949L21.1975 12.9544L21.1964 12.955L21.1943 12.9563L21.1929 12.9572L21.1908 12.9585L21.1893 12.9594L21.1873 12.9606L21.1858 12.9615L21.1837 12.9627L21.1822 12.9636L21.18 12.9649L21.1788 12.9656L21.1765 12.967L21.1752 12.9678L21.173 12.9691L21.1716 12.97L21.1695 12.9712L21.168 12.9721L21.1659 12.9733L21.1651 12.9738L21.1562 12.9791L21.1555 12.9795L21.1528 12.9811L21.152 12.9816L21.1495 12.983L21.1484 12.9837L21.146 12.985L21.1447 12.9858L21.1425 12.9871L21.1412 12.9879L21.1389 12.9892L21.1377 12.9899L21.1354 12.9913L21.1342 12.992L21.1318 12.9934L21.1307 12.994L21.1283 12.9954L21.1273 12.996L21.1153 13.0029L21.1142 13.0036L21.1119 13.0049L21.1106 13.0057L21.1083 13.007L21.107 13.0078L21.1048 13.009L21.1034 13.0099L21.1014 13.011L21.0998 13.0119L21.0978 13.0131L21.0963 13.014L21.0941 13.0152L21.0927 13.016L21.0905 13.0172L21.0892 13.018L21.0869 13.0193L21.0858 13.02L21.0834 13.0214L21.0831 13.0215L21.0772 13.0249L21.0764 13.0253L21.0741 13.0267L21.0729 13.0274L21.0705 13.0287L21.0693 13.0294L21.067 13.0308L21.0657 13.0315L21.0634 13.0328L21.0622 13.0335L21.0599 13.0348L21.0585 13.0356L21.0563 13.0368L21.0549 13.0376L21.0527 13.0388L21.0514 13.0396L21.0491 13.0409L21.0478 13.0416L21.0455 13.0429L21.0444 13.0435L21.036 13.0482L21.035 13.0488L21.0326 13.0501L21.0314 13.0508L21.0291 13.0521L21.0278 13.0528L21.0256 13.0541L21.0242 13.0548L21.0219 13.0561L21.0207 13.0568L21.0183 13.0581L21.0172 13.0588L21.0148 13.0601L21.0136 13.0607L21.0112 13.0621L21.0102 13.0626L21.0076 13.064L21.0068 13.0644L20.9944 13.0713L20.9935 13.0718L20.9911 13.073L20.9899 13.0737L20.9875 13.075L20.9863 13.0757L20.984 13.0769L20.9827 13.0777L20.9804 13.0789L20.9791 13.0796L20.9768 13.0809L20.9755 13.0816L20.9732 13.0828L20.972 13.0835L20.9696 13.0848L20.9686 13.0853L20.966 13.0868L20.9656 13.087L20.9522 13.0942L20.9521 13.0943L20.9492 13.0958L20.9484 13.0962L20.9457 13.0976L20.9449 13.0981L20.9421 13.0996L20.9414 13.1L20.9386 13.1014L20.9378 13.1019L20.9351 13.1033L20.9343 13.1038L20.9315 13.1052L20.9309 13.1056L20.9279 13.1072L20.9277 13.1073L20.9073 13.1181L20.9069 13.1183L20.904 13.1198L20.9033 13.1201L20.9003 13.1217L20.8999 13.1219L20.8968 13.1236L20.8964 13.1238L20.8933 13.1254L20.8928 13.1257L20.8897 13.1273L20.8896 13.1274L20.8584 13.1435V13.1436L20.8549 13.1453L20.8201 13.1631C20.7911 13.1778 20.762 13.1922 20.7329 13.2063L20.732 13.2067C20.5152 13.3115 20.2547 13.2204 20.1501 13.0033C20.0455 12.7862 20.1364 12.5253 20.3532 12.4205C20.8944 12.1551 21.3873 11.8006 21.8113 11.3716C23.3638 9.81673 23.7601 7.58642 22.6768 6.50145C22.1662 5.99002 21.4983 5.88269 21.0279 5.88269C19.9444 5.88269 18.7431 6.43806 17.8143 7.36836C16.4691 8.71563 15.9651 10.5696 16.6158 11.7767C16.8089 12.1351 16.729 12.5796 16.4233 12.848L14.3276 14.6874C14.1466 14.8463 13.8713 14.8281 13.7126 14.6469C13.554 14.4656 13.5721 14.1898 13.7532 14.0309L15.832 12.2063L15.8324 12.206L15.8334 12.205L15.8354 12.2033L15.8356 12.2031L15.8357 12.203L15.8381 12.2009L15.8384 12.2006L15.8386 12.2005L15.8389 12.2002L15.8391 12.2001L15.8428 12.1968L15.8432 12.1965L15.8433 12.1964L15.8435 12.1962L15.8437 12.196L15.8438 12.1959L15.844 12.1958L15.8456 12.1944L15.8458 12.1942L15.8488 12.1916L15.8489 12.1915C15.5907 11.7125 15.4645 11.1597 15.4649 10.5752C15.4656 9.30665 16.0623 7.88871 17.1981 6.75111ZM12.0045 17.721C12.0872 17.6262 12.2068 17.572 12.3324 17.5721C12.4375 17.5722 12.539 17.6102 12.6183 17.6793C12.7998 17.8375 12.819 18.1132 12.661 18.2951L8.03569 23.5813L8.03495 23.5821L8.03278 23.5846L8.02886 23.5891L8.02858 23.5895L8.028 23.5902L8.02698 23.5913L8.02649 23.5918L8.026 23.5924L8.02457 23.594L8.02429 23.5944L8.02384 23.5949L8.02355 23.5952L8.02322 23.5956L8.02265 23.5963L8.02179 23.5973L8.01742 23.6023L8.0155 23.6045L8.01509 23.6049L8.0146 23.6055H8.01456L8.01424 23.6059C7.96198 23.667 7.90556 23.7242 7.84529 23.7773C7.13541 24.403 6.05349 24.3338 5.4288 23.6228C4.8041 22.9118 4.87315 21.8282 5.58307 21.2025L5.58605 21.1999L5.59149 21.1951L5.59639 21.1909L5.5999 21.1879L5.59994 21.1878L5.60068 21.1872L5.60125 21.1867L5.60154 21.1864L5.6017 21.1863L5.88835 20.9346C6.06947 20.7765 6.34419 20.795 6.50255 20.976C6.66119 21.1572 6.64305 21.433 6.46202 21.5919L6.17443 21.8443C6.13905 21.8741 6.1062 21.9066 6.07617 21.9417C5.77395 22.2946 5.81469 22.8262 6.16711 23.1289C6.51954 23.4315 7.05023 23.3907 7.35244 23.0378L12.0045 17.721Z" fill="#F2F1FA"/>
</svg>
