<svg width="20" height="20" viewBox="0 0 20 20" fill="none" xmlns="http://www.w3.org/2000/svg">
<path d="M13.75 0H6.25C4.5924 0 3.00269 0.65848 1.83058 1.83058C0.65848 3.00269 0 4.5924 0 6.25L0 13.75C0 15.4076 0.65848 16.9973 1.83058 18.1694C3.00269 19.3415 4.5924 20 6.25 20H13.75C15.4076 20 16.9973 19.3415 18.1694 18.1694C19.3415 16.9973 20 15.4076 20 13.75V6.25C20 4.5924 19.3415 3.00269 18.1694 1.83058C16.9973 0.65848 15.4076 0 13.75 0V0ZM18.125 13.75C18.125 16.1625 16.1625 18.125 13.75 18.125H6.25C3.8375 18.125 1.875 16.1625 1.875 13.75V6.25C1.875 3.8375 3.8375 1.875 6.25 1.875H13.75C16.1625 1.875 18.125 3.8375 18.125 6.25V13.75Z" fill="#23273C"/>
<path d="M10 5C8.67392 5 7.40215 5.52678 6.46447 6.46447C5.52678 7.40215 5 8.67392 5 10C5 11.3261 5.52678 12.5979 6.46447 13.5355C7.40215 14.4732 8.67392 15 10 15C11.3261 15 12.5979 14.4732 13.5355 13.5355C14.4732 12.5979 15 11.3261 15 10C15 8.67392 14.4732 7.40215 13.5355 6.46447C12.5979 5.52678 11.3261 5 10 5ZM10 13.125C9.1715 13.124 8.37722 12.7944 7.79139 12.2086C7.20555 11.6228 6.87599 10.8285 6.875 10C6.875 8.27625 8.2775 6.875 10 6.875C11.7225 6.875 13.125 8.27625 13.125 10C13.125 11.7225 11.7225 13.125 10 13.125Z" fill="#23273C"/>
<path d="M15.3752 5.291C15.7432 5.291 16.0415 4.99271 16.0415 4.62475C16.0415 4.25679 15.7432 3.9585 15.3752 3.9585C15.0073 3.9585 14.709 4.25679 14.709 4.62475C14.709 4.99271 15.0073 5.291 15.3752 5.291Z" fill="#23273C"/>
</svg>
