<svg width="30" height="27" viewBox="0 0 30 27" fill="none" xmlns="http://www.w3.org/2000/svg">
<path d="M0.833984 5.50274V21.5525C0.833984 23.0302 1.43613 24.3438 2.39957 25.37C3.363 26.3551 4.60744 26.8887 6.05259 26.8887H13.9206V23.5638H6.05259C4.96873 23.5638 4.12572 22.6608 4.12572 21.5525V5.50274C4.12572 4.39444 4.96873 3.53244 6.05259 3.53244H13.9206V0.166504H6.05259C4.60744 0.166504 3.363 0.741175 2.39957 1.72633C1.43613 2.75253 0.833984 4.02501 0.833984 5.50274ZM9.46476 10.3464V16.7499C9.46476 17.4887 10.107 18.1045 10.8296 18.1045H18.0955V23.1534C18.0955 23.6049 18.3364 23.9743 18.7378 24.1796C18.8984 24.2206 19.059 24.2206 19.1392 24.2206C19.4202 24.2206 19.6611 24.1385 19.8618 23.9333L29.2955 14.287C29.737 13.9176 29.6969 13.1787 29.2955 12.7682L19.8618 3.163C19.2998 2.54729 18.0955 2.91672 18.0955 3.90187V8.99181H10.8296C10.107 8.99181 9.46476 9.60753 9.46476 10.3464Z" fill="#FCFCFD"/>
</svg>
