<svg width="33" height="31" viewBox="0 0 33 31" fill="none" xmlns="http://www.w3.org/2000/svg">
<g opacity="0.8">
<path opacity="0.8" d="M16.5013 19.4545C18.7837 19.4545 20.6339 17.684 20.6339 15.5C20.6339 13.316 18.7837 11.5454 16.5013 11.5454C14.2189 11.5454 12.3687 13.316 12.3687 15.5C12.3687 17.684 14.2189 19.4545 16.5013 19.4545Z" stroke="#FCFCFD" stroke-width="2" stroke-linecap="square"/>
<path opacity="0.8" fill-rule="evenodd" clip-rule="evenodd" d="M27.5208 15.5C27.5192 14.7406 27.4324 13.9836 27.2618 13.242L31.0005 10.5331L28.2454 5.96691L23.9158 7.71482C22.7433 6.68624 21.3517 5.91316 19.8369 5.44886L19.2556 1H13.7454L13.1641 5.44886C11.6493 5.91316 10.2577 6.68624 9.08518 7.71482L4.75557 5.96691L2.00049 10.5331L5.73914 13.242C5.39391 14.7292 5.39391 16.2708 5.73914 17.758L2.00049 20.4669L4.75557 25.0331L9.08518 23.2852C10.2577 24.3138 11.6493 25.0868 13.1641 25.5511L13.7454 30H19.2556L19.8369 25.5511C21.3517 25.0868 22.7433 24.3138 23.9158 23.2852L28.2454 25.0331L31.0005 20.4669L27.2618 17.758C27.4324 17.0164 27.5192 16.2594 27.5208 15.5Z" stroke="#FCFCFD" stroke-width="2" stroke-linecap="square"/>
</g>
</svg>
