<svg width="99" height="20" viewBox="0 0 99 20" fill="none" xmlns="http://www.w3.org/2000/svg">
<path d="M5.408 17.192C7.936 17.192 9.648 15.8 9.648 13.736C9.648 12.136 8.64 11.08 6.672 10.472L4.416 9.784C3.456 9.496 2.944 8.952 2.944 8.216C2.944 7.304 3.776 6.664 5.024 6.664C6.384 6.664 7.408 7.384 7.84 8.648L9.584 7.848C8.976 6.168 7.264 4.888 5.008 4.888C2.576 4.888 0.912 6.28 0.912 8.312C0.912 9.848 1.872 11.032 3.84 11.624L6.176 12.344C7.12 12.632 7.616 13.064 7.616 13.88C7.616 14.76 6.752 15.416 5.408 15.416C4.048 15.416 2.816 14.6 2.256 13.112L0.528 13.896C1.136 15.816 3.056 17.192 5.408 17.192ZM11.3224 17H13.3384V12.552H15.9144C18.3464 12.552 20.0744 11.176 20.0744 8.824C20.0744 6.456 18.3624 5.08 15.9144 5.08H11.3224V17ZM13.3384 10.792V6.856H15.9144C17.1784 6.856 18.0264 7.64 18.0264 8.824C18.0264 10.008 17.1784 10.792 15.9144 10.792H13.3384ZM21.6974 17H29.5694L29.5854 15.224H23.7134V11.912H29.2654V10.136H23.7134V6.856H29.5854V5.08H21.6974V17ZM38.8558 5.08V13.096L33.0318 5.08H31.4318V17H33.4478V8.904L39.2718 17H40.8878V5.08H38.8558ZM43.0411 17H46.9291C50.6731 17 53.0891 14.552 53.0891 11.032C53.0891 7.512 50.6731 5.08 46.9291 5.08H43.0411V17ZM45.0571 15.224V6.856H46.9771C49.4411 6.856 51.0411 8.488 51.0411 11.032C51.0411 13.576 49.4571 15.224 46.9771 15.224H45.0571ZM54.8693 17H56.8853V5.08H54.8693V17ZM61.4568 17H63.4888V6.856H66.5928V5.08H58.3368V6.856H61.4568V17ZM75.2575 5.08V12.776C75.2575 14.296 74.1855 15.368 72.6655 15.368C71.1295 15.368 70.0575 14.312 70.0575 12.776V5.08H68.0255V12.776C68.0255 15.336 69.8655 17.192 72.6655 17.192C75.4495 17.192 77.3055 15.336 77.3055 12.776V5.08H75.2575ZM79.463 17H81.479V12.552H83.943L86.455 17H88.759L86.007 12.2C87.367 11.656 88.215 10.472 88.215 8.824C88.215 6.456 86.503 5.08 84.055 5.08H79.463V17ZM81.479 10.792V6.856H84.055C85.319 6.856 86.167 7.64 86.167 8.824C86.167 10.008 85.319 10.792 84.055 10.792H81.479ZM90.3536 17H98.2256L98.2416 15.224H92.3696V11.912H97.9216V10.136H92.3696V6.856H98.2416V5.08H90.3536V17Z" fill="#1D2025"/>
</svg>
