<svg width="179" height="163" viewBox="0 0 179 163" fill="none" xmlns="http://www.w3.org/2000/svg">
<g clip-path="url(#clip0_1_24)">
<path d="M20.5176 71.2083H120.055V143.622H20.5176V71.2083Z" fill="#F5F5F5"/>
<path d="M111.035 75.4326H127.932V138.595H111.035V75.4326Z" fill="#F0F0F0"/>
<path d="M28.9649 137.47H12.0684V77.6438H28.9649V137.47Z" fill="#F0F0F0"/>
<path d="M106.207 70.0015H132.758V76.0363C132.758 78.7023 130.597 80.8631 127.931 80.8631H111.035C108.368 80.8631 106.207 78.7023 106.207 76.0363V70.0015Z" fill="#D4D7D9"/>
<path d="M111.035 133.967H127.931C130.597 133.967 132.758 136.128 132.758 138.794V144.829H106.207V138.794C106.207 136.128 108.368 133.967 111.035 133.967Z" fill="#D4D7D9"/>
<path d="M28.9655 80.8631H12.069C9.40298 80.8631 7.24219 78.7023 7.24219 76.0363V70.0015H33.7934V76.0363C33.7934 78.7023 31.6326 80.8631 28.9655 80.8631Z" fill="#D4D7D9"/>
<path d="M33.7934 144.829H7.24219V138.794C7.24219 136.128 9.40298 133.967 12.069 133.967H28.9655C31.6326 133.967 33.7934 136.128 33.7934 138.794V144.829Z" fill="#D4D7D9"/>
<path d="M4.82812 58.4155H137.586V68.7944C137.586 70.1274 136.505 71.2083 135.172 71.2083H7.24207C5.90906 71.2083 4.82812 70.1274 4.82812 68.7944V58.4155Z" fill="#005EEE"/>
<path d="M68.8465 132.627C83.2441 132.627 94.9157 121.144 94.9157 106.98C94.9157 92.8157 83.2441 81.3333 68.8465 81.3333C54.4489 81.3333 42.7773 92.8157 42.7773 106.98C42.7773 121.144 54.4489 132.627 68.8465 132.627Z" fill="#FFD300"/>
<path d="M68.8467 132.628C83.2447 132.628 94.9164 121.145 94.9164 106.981V106.928C94.9162 106.924 94.9162 106.92 94.9162 106.916V106.894L94.916 106.883V106.862C94.9159 106.858 94.9159 106.854 94.9159 106.85V106.84C94.9157 106.836 94.9157 106.832 94.9157 106.828V106.819C94.9159 106.814 94.9159 106.81 94.9159 106.806L94.9157 106.797C94.9157 106.792 94.9157 106.788 94.9155 106.783V106.775C94.9153 106.77 94.9153 106.765 94.9153 106.76L94.9152 106.753C94.9152 106.746 94.915 106.739 94.915 106.731V106.728C94.915 106.722 94.9148 106.716 94.9148 106.71V106.702L94.9146 106.688V106.68L94.9145 106.666L94.9143 106.658L94.9141 106.644C94.9139 106.642 94.9139 106.638 94.9139 106.635L94.9138 106.623L94.9136 106.613L94.9134 106.601L94.9132 106.592C94.9132 106.587 94.9131 106.583 94.9131 106.579C94.9131 106.576 94.9131 106.573 94.9129 106.57C94.9129 106.566 94.9127 106.561 94.9127 106.557L94.9125 106.548L94.9124 106.534L94.9122 106.527L94.9118 106.507L94.9117 106.505L94.9113 106.483L94.9111 106.478L94.9108 106.461L94.9106 106.453C94.9106 106.449 94.9104 106.444 94.9104 106.44L94.9103 106.43L94.9101 106.418L94.9099 106.409C94.9097 106.404 94.9097 106.4 94.9097 106.396C94.9096 106.393 94.9096 106.39 94.9096 106.386L94.9092 106.375C94.9092 106.371 94.909 106.368 94.909 106.365L94.9089 106.353L94.9087 106.343L94.9083 106.33L94.9082 106.322C94.908 106.317 94.908 106.312 94.9076 106.307L94.9075 106.3L94.9069 106.285L94.9068 106.278C94.9066 106.272 94.9062 106.265 94.9062 106.259L94.9061 106.253C94.9059 106.247 94.9056 106.241 94.9056 106.235L94.9054 106.229C94.9052 106.223 94.9052 106.218 94.9049 106.213L94.9047 106.206L94.9043 106.192L94.904 106.183L94.9036 106.17L94.9033 106.161C94.9031 106.157 94.9031 106.152 94.9028 106.148L94.9026 106.139C94.9024 106.135 94.9024 106.131 94.9021 106.127L94.9017 106.117L94.9014 106.106L94.901 106.096C94.9008 106.092 94.9008 106.088 94.9005 106.084L94.9001 106.074C94.9 106.07 94.9 106.065 94.8996 106.061L94.8994 106.053L94.8987 106.036L94.8986 106.031C94.8982 106.024 94.898 106.017 94.8977 106.009L94.8975 106.007L94.8966 105.988L94.8965 105.981C94.8963 105.976 94.896 105.971 94.896 105.966L94.8956 105.958L94.8951 105.945L94.8947 105.936C94.8946 105.931 94.8944 105.927 94.8942 105.923L94.8937 105.914L94.8932 105.902C94.893 105.898 94.8928 105.895 94.8926 105.892L94.8921 105.88L94.8918 105.871C94.8916 105.867 94.8914 105.862 94.8912 105.858L94.8909 105.849L94.8902 105.834L94.8898 105.828L94.8891 105.811L94.889 105.806L94.8869 105.763L94.8867 105.759C94.8865 105.753 94.8862 105.747 94.8858 105.741L94.8855 105.735C94.8853 105.73 94.885 105.725 94.8846 105.719L94.8843 105.712L94.8836 105.698L94.8832 105.69C94.8829 105.685 94.8827 105.681 94.8823 105.676L94.882 105.669L94.8811 105.654L94.8808 105.646C94.8806 105.642 94.8802 105.637 94.8801 105.633C94.8799 105.63 94.8797 105.627 94.8795 105.625L94.8787 105.61L94.8783 105.603C94.878 105.598 94.8778 105.593 94.8774 105.588L94.8771 105.582C94.8769 105.576 94.8766 105.57 94.8762 105.565L94.876 105.56L94.8748 105.538L94.8747 105.536L94.8734 105.517L94.8731 105.511C94.8729 105.506 94.8726 105.5 94.8722 105.495L94.8719 105.488L94.871 105.474L94.8705 105.465C94.8703 105.461 94.8699 105.457 94.8696 105.453C94.8694 105.45 94.8692 105.446 94.8691 105.443L94.8684 105.431L94.8678 105.422L94.867 105.409L94.8664 105.4C94.8663 105.396 94.8659 105.392 94.8656 105.388L94.8651 105.379C94.8647 105.375 94.8645 105.37 94.8642 105.366L94.8637 105.357C94.8635 105.352 94.8631 105.347 94.8628 105.343L94.8624 105.336L94.8612 105.318L94.8609 105.314L94.8595 105.292H94.8593L94.8579 105.271L94.8575 105.265L94.8563 105.249L94.8558 105.243L94.8549 105.228L94.8544 105.22L94.8534 105.207L94.8528 105.199C94.8527 105.194 94.8523 105.19 94.852 105.185L94.8514 105.177L94.8506 105.163L94.85 105.155L94.849 105.142L94.8485 105.134L94.8474 105.119L94.8469 105.112C94.8465 105.107 94.846 105.102 94.8457 105.096L94.8451 105.091C94.8441 105.076 94.8431 105.062 94.842 105.047L94.8418 105.046C94.8413 105.039 94.8408 105.032 94.8403 105.026L94.8399 105.022L94.8387 105.004L94.8382 104.998L94.8369 104.983L94.8364 104.977C94.8359 104.972 94.8355 104.966 94.8352 104.961L94.8347 104.954L94.8335 104.94L94.8329 104.933C94.8324 104.927 94.8321 104.923 94.8317 104.918L94.831 104.911C94.8307 104.906 94.8301 104.901 94.8298 104.895L94.8293 104.89C94.8287 104.884 94.8284 104.879 94.8279 104.873L94.8273 104.868L94.8259 104.849L94.8258 104.847C94.8251 104.839 94.8245 104.832 94.824 104.825L94.8238 104.824C94.8233 104.817 94.8226 104.81 94.8221 104.803L94.8218 104.798L94.8204 104.782L94.8197 104.775C94.8191 104.77 94.8188 104.765 94.8184 104.76L94.8177 104.753L94.8165 104.739L94.8156 104.731L94.8144 104.718L94.8137 104.71C94.8132 104.705 94.8129 104.7 94.8125 104.696L94.8118 104.689L94.8104 104.674L94.8099 104.667L94.8085 104.653L94.8078 104.645C94.8073 104.64 94.8069 104.635 94.8064 104.63L94.8059 104.624C94.8045 104.61 94.8031 104.595 94.8019 104.581L94.8017 104.579C94.8012 104.573 94.8005 104.566 94.7999 104.56L94.7994 104.554C94.7989 104.549 94.7984 104.544 94.798 104.538L94.7975 104.532C94.797 104.527 94.7964 104.522 94.7959 104.516L94.7952 104.51L94.7938 104.496C94.7936 104.493 94.7933 104.49 94.7929 104.487L94.7917 104.475L94.7909 104.466L94.7895 104.452L94.7888 104.445C94.7882 104.44 94.7877 104.436 94.7874 104.43L94.7867 104.423L94.7849 104.407L94.7844 104.402C94.7839 104.396 94.7832 104.39 94.7825 104.384L94.7823 104.381C94.7807 104.366 94.7792 104.352 94.7778 104.337L94.7776 104.336L94.7755 104.316L94.775 104.311C94.7744 104.306 94.7739 104.3 94.7734 104.295L94.7725 104.288L94.7711 104.274L94.7703 104.266L94.7689 104.253L94.768 104.244L94.7666 104.231L94.7657 104.223L94.7643 104.21L94.7634 104.202C94.7629 104.197 94.7622 104.192 94.7619 104.188L94.761 104.18C94.7605 104.176 94.7598 104.17 94.7594 104.166L94.7586 104.159L94.7568 104.143L94.7561 104.138L94.7537 104.117L94.7535 104.114L94.7514 104.095L94.7507 104.089L94.749 104.074L94.7481 104.067C94.7476 104.062 94.7469 104.057 94.7463 104.053L94.7455 104.046L94.7437 104.031L94.7428 104.024L94.7411 104.01L94.7402 104.003C94.7397 103.998 94.7392 103.993 94.7387 103.989L94.7378 103.981C94.7373 103.976 94.7367 103.972 94.736 103.967L94.7352 103.96L94.7334 103.946L94.7325 103.938L94.7308 103.924L94.7299 103.918C94.7292 103.912 94.7285 103.905 94.7277 103.899L94.7273 103.897C94.7256 103.882 94.7238 103.868 94.7221 103.854L94.7214 103.848C94.7207 103.843 94.7202 103.838 94.7195 103.833L94.7186 103.826L94.7168 103.812L94.716 103.804L94.7142 103.79L94.7133 103.783L94.7116 103.77L94.7106 103.761L94.7088 103.748L94.7078 103.74L94.706 103.726L94.7051 103.719C94.7043 103.714 94.7037 103.709 94.703 103.703L94.7025 103.698L94.7001 103.68L94.6996 103.677L94.6938 103.634L94.6934 103.631L94.691 103.613L94.6901 103.607L94.6882 103.592L94.6872 103.585L94.6854 103.571L94.6844 103.564L94.6824 103.549L94.6816 103.542C94.6809 103.538 94.6802 103.533 94.6797 103.528L94.6786 103.521L94.6769 103.507C94.6763 103.504 94.676 103.502 94.6756 103.499L94.6737 103.485L94.6728 103.479L94.6706 103.463L94.6699 103.457L94.6671 103.437L94.6669 103.436C94.6648 103.422 94.6629 103.408 94.6608 103.393L94.6604 103.391L94.6578 103.372L94.657 103.367L94.6547 103.351L94.6538 103.345L94.6517 103.331L94.6505 103.323L94.6484 103.309L94.6475 103.303C94.6467 103.298 94.6461 103.293 94.6454 103.288L94.6444 103.281C94.6437 103.276 94.643 103.271 94.6423 103.266L94.6414 103.26L94.6392 103.245L94.6383 103.239L94.6355 103.22L94.6351 103.218L94.6254 103.154L94.625 103.151C94.6241 103.145 94.6233 103.139 94.6222 103.133L94.6215 103.128L94.6191 103.112L94.6182 103.106C94.6173 103.101 94.6165 103.095 94.6158 103.09L94.6149 103.085C94.614 103.08 94.6131 103.075 94.6124 103.069L94.6116 103.064C94.6107 103.058 94.6098 103.053 94.6091 103.047L94.6082 103.043L94.6056 103.026L94.6049 103.022L94.6018 103.002L94.6016 103.001C94.6004 102.994 94.5995 102.987 94.5981 102.98V102.979C94.5946 102.958 94.5911 102.936 94.5877 102.915L94.5875 102.913L94.5843 102.894L94.5835 102.889L94.5807 102.873L94.5798 102.868L94.5772 102.852L94.5763 102.846L94.5737 102.83L94.5728 102.825L94.5704 102.81L94.5693 102.804L94.5665 102.787L94.566 102.783C94.5648 102.777 94.5639 102.771 94.5629 102.764L94.5625 102.762C94.5588 102.74 94.5552 102.719 94.5515 102.698L94.551 102.696C94.5499 102.689 94.5489 102.683 94.5478 102.677L94.547 102.672L94.5442 102.656L94.5433 102.651L94.5407 102.635L94.5395 102.629C94.5386 102.624 94.5377 102.618 94.5368 102.613L94.5358 102.608L94.533 102.592L94.5321 102.587C94.5311 102.582 94.5302 102.576 94.5293 102.571L94.5285 102.566C94.5276 102.56 94.5266 102.555 94.5257 102.55L94.5248 102.544L94.5213 102.525L94.5211 102.524C94.5173 102.502 94.5135 102.481 94.5096 102.46L94.5094 102.458C94.5082 102.452 94.507 102.445 94.506 102.438L94.5054 102.436L94.5019 102.418L94.5012 102.414C94.5002 102.408 94.4991 102.402 94.4981 102.396L94.4972 102.392C94.4963 102.387 94.4953 102.381 94.4943 102.376L94.4932 102.371L94.4901 102.354L94.4892 102.35C94.4881 102.344 94.4871 102.338 94.486 102.332L94.4854 102.329C94.4841 102.323 94.4829 102.316 94.4819 102.31L94.4815 102.308C94.4761 102.279 94.4709 102.251 94.4655 102.223L94.4649 102.22L94.4614 102.202L94.4606 102.197C94.4595 102.191 94.4586 102.187 94.4574 102.181L94.4565 102.176L94.4534 102.16L94.4525 102.155C94.4515 102.15 94.4504 102.144 94.4492 102.138L94.4483 102.134L94.445 102.117L94.4442 102.113L94.4405 102.095L94.4401 102.093C94.4387 102.086 94.4373 102.079 94.4361 102.072L94.4359 102.071C94.4304 102.043 94.4248 102.015 94.419 101.986L94.4185 101.984L94.4148 101.965L94.4141 101.962C94.4129 101.957 94.4117 101.95 94.4106 101.945L94.4096 101.94C94.4084 101.935 94.4073 101.929 94.4063 101.924L94.4052 101.919C94.4042 101.914 94.403 101.908 94.4019 101.903L94.401 101.898L94.3974 101.881L94.3968 101.878L94.393 101.859L94.3925 101.857C94.3851 101.821 94.3778 101.786 94.3703 101.75H94.3701C94.3687 101.743 94.3673 101.736 94.3659 101.73L94.3654 101.727C94.364 101.721 94.363 101.715 94.3616 101.709L94.3609 101.705L94.3572 101.688L94.3563 101.684L94.3527 101.666L94.3521 101.664L94.3481 101.645L94.3476 101.643C94.3401 101.607 94.3322 101.572 94.3246 101.537V101.536L94.3202 101.517L94.3193 101.513C94.3181 101.507 94.3169 101.501 94.3155 101.496L94.3146 101.492C94.3134 101.486 94.3122 101.48 94.311 101.475L94.3097 101.47C94.3085 101.465 94.3073 101.46 94.3061 101.454L94.305 101.449C94.3038 101.444 94.3026 101.439 94.3015 101.434L94.3003 101.429C94.2991 101.423 94.2977 101.417 94.2965 101.411L94.2956 101.408L94.2912 101.389L94.2909 101.388C94.2862 101.366 94.2813 101.345 94.2766 101.324L94.2762 101.323C94.2748 101.317 94.2732 101.31 94.2718 101.304L94.271 101.3C94.2698 101.294 94.2685 101.289 94.2671 101.283L94.2663 101.279L94.2624 101.262L94.2612 101.257C94.26 101.252 94.2588 101.247 94.2575 101.241L94.2563 101.237L94.2525 101.22L94.2516 101.216L94.2472 101.198L94.2467 101.196C94.2453 101.189 94.2439 101.183 94.2423 101.177L94.2418 101.175C94.2352 101.146 94.2286 101.119 94.2217 101.091C94.2216 101.09 94.2217 101.091 94.2216 101.09C94.2198 101.083 94.2184 101.077 94.2169 101.07L94.2163 101.068L94.212 101.049L94.2113 101.046C94.2097 101.04 94.2083 101.034 94.2069 101.028L94.2062 101.025L94.202 101.008L94.201 101.004L94.1968 100.986L94.1961 100.983L94.1914 100.964L94.191 100.963C94.1807 100.921 94.1704 100.879 94.1599 100.837L94.1596 100.836C94.158 100.829 94.1565 100.823 94.1547 100.816L94.1544 100.814L94.1495 100.795L94.1489 100.793L94.1441 100.774L94.1437 100.772L94.139 100.753L94.1385 100.751C94.1261 100.702 94.1135 100.653 94.1009 100.605H94.1008L94.0954 100.584L94.0952 100.583L94.0898 100.563L94.0845 100.543L94.084 100.541L94.0788 100.521C94.0786 100.52 94.0788 100.521 94.0786 100.52C94.0658 100.472 94.0528 100.423 94.0397 100.375L94.0391 100.373C94.0374 100.366 94.0356 100.36 94.0341 100.353L94.0336 100.352C94.032 100.346 94.0301 100.339 94.0285 100.333L94.0278 100.331C94.0262 100.325 94.0243 100.318 94.0227 100.312L94.0224 100.311C94.0091 100.262 93.9958 100.214 93.9822 100.165L93.9819 100.164L93.9765 100.144L93.9761 100.143L93.9707 100.124L93.9702 100.122L93.9648 100.103L93.9646 100.102C93.9627 100.095 93.9609 100.089 93.959 100.082L93.9585 100.081C93.9447 100.032 93.9309 99.9842 93.9169 99.9358V99.9354C93.915 99.9289 93.9131 99.922 93.9112 99.9155L93.9107 99.9138L93.9049 99.8944L93.9047 99.8935C93.9028 99.887 93.9009 99.8805 93.899 99.874L93.8984 99.8726C93.8822 99.8171 93.866 99.7628 93.8496 99.7075L93.8492 99.7067L93.8434 99.6871L93.8429 99.6857L93.8372 99.667L93.8365 99.6649C93.8345 99.6584 93.8328 99.6522 93.8307 99.6457L93.8305 99.6448C93.8159 99.5966 93.8012 99.5487 93.7864 99.5004C93.7843 99.4935 93.7822 99.487 93.7801 99.4801L93.7799 99.4795L93.7736 99.4595L93.7734 99.4588C93.7713 99.452 93.7694 99.4456 93.7672 99.4387V99.4386L93.7609 99.4185L93.7607 99.418C93.7436 99.3634 93.7263 99.3087 93.7088 99.2543L93.7083 99.2524L93.7022 99.2333L93.7019 99.2323C93.6821 99.1707 93.6622 99.1097 93.6418 99.0482L93.6352 99.0281L93.6348 99.0271L93.6285 99.0084L93.6278 99.0061L93.6214 98.9869L93.6212 98.9865C93.6055 98.9393 93.5894 98.8916 93.5734 98.8443L93.5727 98.8423L93.5664 98.8237L93.5659 98.8222L93.5596 98.8036L93.5589 98.8016L93.5526 98.7829L93.5521 98.7817C93.5334 98.7274 93.5149 98.6738 93.4959 98.6197L93.4957 98.6188C93.4934 98.6125 93.4911 98.6061 93.4891 98.5998L93.4884 98.5981L93.4821 98.5797L93.4814 98.578C93.4793 98.5721 93.477 98.5656 93.4749 98.5598L93.4742 98.5579C93.4552 98.5041 93.436 98.4504 93.4168 98.3968L93.4166 98.3961C93.4142 98.3894 93.4121 98.3834 93.4096 98.3767L93.4093 98.3756C93.407 98.3693 93.4049 98.3635 93.4026 98.3573L93.4018 98.355C93.3237 98.1402 93.2427 97.9258 93.1591 97.7137L93.1586 97.7125C93.1324 97.6461 93.106 97.5803 93.0793 97.514L93.0792 97.5138C93.0764 97.5071 93.0737 97.5008 93.0711 97.4941L93.0709 97.4939C93.0469 97.4343 93.0226 97.3751 92.998 97.3156C92.9976 97.3149 92.9982 97.316 92.9978 97.3153C92.965 97.2361 92.9322 97.1578 92.8985 97.079L92.8981 97.0783C92.8423 96.9469 92.7855 96.8171 92.7276 96.6869L92.727 96.6857L92.7187 96.6671L92.7185 96.6666C92.7155 96.6601 92.7129 96.6541 92.7099 96.6475L92.7098 96.6472C92.6865 96.5952 92.663 96.5435 92.6394 96.4916L92.6392 96.4913C92.6363 96.4847 92.6335 96.4791 92.6307 96.4725L92.6301 96.4715C92.6274 96.4655 92.6247 96.4597 92.6219 96.4536L92.6211 96.4519C92.5975 96.4006 92.5738 96.3492 92.5498 96.2979L92.5495 96.297C92.5464 96.2905 92.5437 96.2846 92.5406 96.2783L92.5319 96.2597L92.5313 96.2584L92.5228 96.2402L92.5223 96.2395C92.5193 96.2329 92.5165 96.2271 92.5135 96.2206L92.5134 96.2202C92.4922 96.1751 92.4709 96.1306 92.4495 96.0856L92.4491 96.0849L92.4406 96.067L92.4397 96.0652L92.4313 96.0478L92.4306 96.0463C92.4278 96.0402 92.4249 96.0342 92.4221 96.0282L92.4215 96.0274C92.3969 95.976 92.3723 95.9255 92.3473 95.8743L92.3472 95.8738C92.3409 95.8611 92.3349 95.8491 92.3288 95.8362L92.3283 95.8354C92.3032 95.7843 92.2782 95.7337 92.2529 95.6828L92.2527 95.6825L92.2435 95.664C92.2431 95.6633 92.2436 95.6641 92.2433 95.6634L92.234 95.6451L92.2335 95.6442L92.2243 95.6257L92.2241 95.6255C92.1986 95.5746 92.1731 95.5243 92.1471 95.4737L92.1468 95.473C92.1436 95.4666 92.1408 95.4611 92.1375 95.4548L92.137 95.4539C92.1014 95.3844 92.0659 95.3158 92.0296 95.2466L92.0293 95.2458C92.0261 95.2399 92.023 95.2341 92.02 95.2281L92.0193 95.2267C91.9931 95.1767 91.9664 95.1266 91.9401 95.0769L91.9397 95.0762C91.9362 95.0701 91.9333 95.0642 91.9299 95.0579L91.9298 95.0577C91.9264 95.0515 91.9231 95.0453 91.9198 95.039C91.8896 94.9826 91.8592 94.9265 91.8287 94.8703V94.8701C91.8255 94.8643 91.822 94.858 91.8187 94.8521L91.8179 94.8507L91.8083 94.8329L91.8081 94.8327C91.7774 94.7767 91.7466 94.7212 91.7157 94.6654L91.7152 94.6646C91.7117 94.6584 91.7087 94.6531 91.7053 94.6469L91.7047 94.646L91.6951 94.6285L91.6944 94.6275C91.6667 94.578 91.6393 94.5291 91.6112 94.4798L91.611 94.4796L91.6007 94.4616C91.6003 94.4609 91.6009 94.4617 91.6003 94.461L91.5906 94.4437L91.5895 94.442L91.5796 94.4246L91.5792 94.4241L91.5693 94.4066L91.5687 94.4056C91.5476 94.3686 91.5267 94.3324 91.5054 94.2957L91.5048 94.2948C91.4979 94.2829 91.4911 94.2713 91.4842 94.2594L91.4832 94.2577C91.4799 94.252 91.4767 94.2464 91.4732 94.2407L91.4727 94.2398C91.4443 94.1909 91.4158 94.1425 91.3868 94.0935C91.3863 94.0928 91.3872 94.0942 91.3867 94.0935L91.376 94.0756L91.3753 94.0744C91.3722 94.0691 91.3687 94.0631 91.3655 94.0578L91.3643 94.0559L91.3547 94.0399L91.3533 94.0375C91.3245 93.9893 91.2959 93.9413 91.2667 93.8933L91.2659 93.8919C91.2587 93.8802 91.2517 93.8685 91.2446 93.8567L91.2442 93.856C91.2405 93.85 91.2372 93.8447 91.2336 93.8386L91.233 93.838C91.2072 93.7955 91.1817 93.7536 91.1557 93.7115L91.1555 93.7112L91.1445 93.6935L91.1443 93.6932C91.1409 93.6875 91.1372 93.6815 91.1337 93.6758L91.1328 93.6745C91.1297 93.6691 91.1258 93.6631 91.1225 93.6578L91.1218 93.6566L91.1114 93.6398L91.1107 93.6387C91.0808 93.5906 91.0513 93.5432 91.0211 93.4953L91.0206 93.4945L91.0099 93.4775L91.0094 93.4764C91.0057 93.4708 91.0024 93.4653 90.9988 93.4596L90.9981 93.4584C90.9679 93.4105 90.938 93.3638 90.9073 93.316L90.9064 93.3148C90.9029 93.3093 90.8994 93.3038 90.8958 93.2982L90.8952 93.2973C90.8914 93.2913 90.8882 93.2863 90.8842 93.2803L90.8837 93.2796L90.8725 93.2624L90.8722 93.2619C90.8685 93.2559 90.8649 93.2504 90.861 93.2444L90.8608 93.2442C90.8378 93.2085 90.8146 93.173 90.7915 93.1376L90.7914 93.1374L90.7802 93.1202L90.7793 93.1189L90.7688 93.1029L90.7674 93.1008L90.7568 93.0847L90.7561 93.0836L90.7453 93.0672L90.7444 93.066C90.7172 93.0246 90.6901 92.9839 90.6627 92.9426C90.6622 92.942 90.6629 92.943 90.6625 92.9423C90.6589 92.9368 90.6552 92.9311 90.6513 92.9256L90.6501 92.9239C90.6465 92.9184 90.643 92.9131 90.6391 92.9076L90.6386 92.9069C90.6349 92.9014 90.6313 92.8959 90.6276 92.8904L90.6267 92.8891C90.5955 92.8423 90.5641 92.7958 90.5325 92.7493L90.5316 92.7481L90.5204 92.7316L90.5199 92.7307L90.5087 92.7141L90.5082 92.7132C90.4722 92.6606 90.4368 92.6088 90.4005 92.5566L90.4 92.5557L90.3888 92.5396L90.3876 92.5378C90.3476 92.4805 90.3071 92.4226 90.2669 92.3656L90.2661 92.3642C90.2624 92.3592 90.2584 92.3534 90.2549 92.3484L90.2538 92.3469C90.2504 92.3419 90.2469 92.3369 90.2432 92.3317L90.2414 92.3293C90.2378 92.3244 90.2339 92.3187 90.2303 92.3137L90.2296 92.3127C90.2009 92.2723 90.1727 92.2328 90.1437 92.1926L90.1428 92.1914L90.1313 92.1755L90.1304 92.1743L90.1187 92.1579L90.1182 92.1573C90.0852 92.1114 90.052 92.0659 90.0187 92.0204L90.0185 92.0202L90.0061 92.0034L90.0058 92.0029C90.0019 91.9975 89.9979 91.992 89.9941 91.9867L89.9929 91.9852L89.9813 91.9695L89.9805 91.9683L89.9684 91.952L89.9682 91.9518C89.9389 91.912 89.9096 91.8723 89.8801 91.8327H89.8799L89.8677 91.8162L89.8668 91.815C89.8631 91.81 89.859 91.8045 89.8553 91.7995L89.8539 91.7976L89.8427 91.7828L89.8411 91.7806C89.8075 91.7356 89.7738 91.691 89.7399 91.6463L89.7394 91.6456L89.727 91.6293L89.7266 91.6288C89.7226 91.6235 89.7184 91.6181 89.7144 91.6128L89.7135 91.6118L89.7013 91.596L89.7008 91.5951L89.6882 91.5786C89.6667 91.5506 89.6453 91.5227 89.6236 91.4947H89.6235C89.6194 91.4893 89.6151 91.4838 89.6111 91.4785L89.6097 91.4766C89.606 91.4718 89.602 91.4668 89.5981 91.4619L89.5969 91.4601L89.5856 91.4454L89.5838 91.4431C89.5802 91.4383 89.5765 91.4335 89.5727 91.4287L89.5713 91.427L89.559 91.4114L89.5585 91.4108C89.5281 91.3719 89.4978 91.333 89.4672 91.2942C89.4628 91.2887 89.4588 91.2836 89.4545 91.2781L89.4536 91.2771L89.441 91.2613L89.4405 91.2607L89.4283 91.2453L89.4272 91.2439C89.3925 91.1999 89.3574 91.1558 89.3221 91.112L89.3216 91.1111L89.309 91.0955L89.3085 91.0948L89.296 91.0792L89.2953 91.0785L89.2823 91.0624H89.2822C89.2467 91.0184 89.2111 90.9744 89.1755 90.9308H89.1753C89.171 90.9253 89.1668 90.9202 89.1621 90.9147L89.1617 90.9143C89.117 90.8597 89.0721 90.8053 89.0271 90.751C89.018 90.7402 89.009 90.7294 89 90.7185H88.9999C88.0584 89.5903 87.0212 88.5429 85.8998 87.5874C84.344 86.2638 81.9921 86.4316 80.6467 87.9622C79.3026 89.4912 79.4713 91.8023 81.0236 93.1266C88.8017 99.7458 89.653 111.315 82.9247 118.967C79.3876 122.99 74.2482 125.302 68.8418 125.302C65.2839 125.307 61.7996 124.306 58.8044 122.416C57.0734 121.324 54.7695 121.818 53.6587 123.521C52.5494 125.222 53.0489 127.485 54.7753 128.58C55.4465 129.003 56.1383 129.397 56.8504 129.761L56.8513 129.762C56.8681 129.771 56.8854 129.779 56.9021 129.788L56.9044 129.789C56.9218 129.798 56.9379 129.806 56.9554 129.815L56.9562 129.816L56.973 129.824L56.9751 129.825C56.9918 129.833 57.0088 129.842 57.0257 129.85L57.0273 129.851C57.044 129.86 57.0606 129.868 57.0776 129.876L57.0805 129.878C57.0966 129.886 57.1146 129.895 57.1308 129.903L57.1325 129.904C57.1495 129.912 57.1664 129.92 57.1834 129.929L57.1854 129.93C57.1912 129.933 57.1957 129.935 57.2017 129.938L57.2046 129.939C57.2207 129.947 57.2369 129.955 57.253 129.963L57.2588 129.966C57.275 129.974 57.2898 129.981 57.3059 129.989L57.3108 129.991L57.3263 129.999H57.3269L57.3584 130.014L57.3633 130.017L57.3783 130.024L57.3832 130.026C57.3928 130.031 57.4023 130.036 57.412 130.04L57.4157 130.042L57.4305 130.049L57.4367 130.052C57.4463 130.057 57.4559 130.061 57.4655 130.066L57.4686 130.067L57.4822 130.074L57.4899 130.077L57.5033 130.084L57.5091 130.087C57.518 130.091 57.525 130.094 57.5339 130.099L57.5424 130.103L57.5561 130.109L57.5622 130.112C57.5704 130.116 57.5786 130.12 57.5868 130.124L57.5948 130.128L57.6079 130.134L57.6166 130.138L57.6402 130.149L57.6472 130.152L57.6605 130.158L57.6695 130.163L57.6816 130.168C57.6879 130.171 57.6938 130.174 57.6999 130.177L57.7127 130.183L57.7219 130.187L57.7345 130.193L57.7441 130.197L57.7654 130.207L57.7743 130.211L57.7867 130.217L57.7979 130.222C57.8038 130.225 57.8092 130.228 57.8153 130.23L57.8279 130.236L57.8394 130.241L57.8495 130.246L57.8661 130.254L57.8803 130.26L57.8916 130.265L57.9026 130.27L57.9145 130.276L57.9331 130.284L57.945 130.289L57.955 130.294L57.9672 130.299L57.9789 130.305L57.9967 130.313L58.0082 130.318L58.0199 130.323L58.032 130.329L58.0454 130.335C58.0505 130.337 58.0559 130.339 58.0611 130.342L58.0721 130.346L58.085 130.352L58.0943 130.356C58.1013 130.359 58.1077 130.362 58.1149 130.365L58.1238 130.369L58.1372 130.375L58.1472 130.38C58.1533 130.383 58.1599 130.386 58.1662 130.388L58.1762 130.393L58.1903 130.399L58.1999 130.403L58.216 130.41L58.2266 130.415L58.2435 130.422L58.2523 130.426L58.2678 130.433L58.2757 130.436L58.2966 130.445L58.3055 130.449L58.32 130.455L58.3286 130.459L58.3497 130.468L58.3577 130.472L58.3729 130.478L58.382 130.482C58.389 130.485 58.3963 130.488 58.4035 130.491L58.4078 130.493L58.4265 130.501L58.4342 130.505L58.4529 130.513L58.4572 130.515L58.4794 130.524L58.4871 130.527L58.5038 130.534L58.5105 130.537C58.5178 130.54 58.5251 130.543 58.5325 130.547L58.5391 130.549L58.5566 130.557L58.5634 130.56L58.5857 130.569L58.5915 130.572C58.5976 130.574 58.6033 130.577 58.6093 130.579L58.6163 130.582L58.639 130.592H58.6407L58.663 130.602L58.6688 130.604L58.6899 130.613L58.6925 130.614C58.7002 130.617 58.7084 130.621 58.7161 130.624L58.7215 130.626L58.7411 130.634L58.7461 130.636L58.7694 130.646L58.7742 130.648L58.7928 130.655L58.7999 130.658C58.8074 130.661 58.8154 130.665 58.823 130.668L58.8254 130.669C58.8324 130.672 58.8395 130.674 58.8467 130.677L58.8528 130.68L58.8757 130.689C58.8765 130.689 58.8755 130.689 58.8764 130.689L58.8998 130.699L58.9062 130.701L58.9261 130.71L58.9301 130.711L58.9537 130.721L58.9588 130.723L58.9794 130.731L58.983 130.733L59.0073 130.742L59.0106 130.744L59.0319 130.752L59.0368 130.754C59.0529 130.761 59.0691 130.767 59.085 130.773L59.0906 130.776L59.112 130.784L59.1148 130.785C59.1229 130.788 59.1311 130.791 59.1391 130.795L59.1436 130.796L59.1646 130.805L59.1684 130.806L59.1927 130.816L59.1962 130.817L59.2173 130.825L59.2222 130.827C59.2386 130.834 59.255 130.84 59.2714 130.846L59.2753 130.848C59.2919 130.854 59.3083 130.861 59.3249 130.867L59.3292 130.869L59.353 130.878H59.3537C59.3622 130.881 59.3702 130.885 59.379 130.888L59.3825 130.889C59.3896 130.892 59.3977 130.895 59.4048 130.898L59.408 130.899L59.4329 130.909L59.4352 130.91L59.4579 130.918L59.4619 130.92C59.4787 130.926 59.4949 130.932 59.5116 130.939L59.5157 130.94L59.5399 130.949H59.5403L59.5658 130.959L59.5689 130.96L59.5921 130.969L59.5946 130.97L59.6197 130.979L59.6227 130.981L59.6447 130.989L59.649 130.99L59.674 130.999L59.6747 131L59.699 131.009L59.703 131.01C59.7197 131.016 59.7362 131.022 59.7529 131.028L59.7569 131.03L59.7812 131.039H59.7817C59.7903 131.042 59.7988 131.045 59.8076 131.048L59.8102 131.049C59.8182 131.052 59.8259 131.055 59.8341 131.058L59.8358 131.059L59.8618 131.068L59.8627 131.069L59.8879 131.078H59.89L59.9416 131.097L59.9442 131.098C59.9617 131.104 59.9788 131.11 59.9963 131.116L59.998 131.117L60.0238 131.126C60.0245 131.126 60.0232 131.126 60.024 131.126L60.0506 131.136H60.052L60.076 131.145L60.0794 131.146C60.0965 131.152 60.1132 131.158 60.1303 131.164L60.1337 131.165C60.1506 131.171 60.168 131.177 60.185 131.183L60.1878 131.184C60.2049 131.19 60.2222 131.196 60.2394 131.202H60.2419L60.2665 131.211H60.2681L60.2943 131.22L60.2957 131.221L60.3206 131.229L60.3227 131.23C60.3402 131.236 60.3575 131.242 60.3751 131.248H60.3774C60.395 131.254 60.4121 131.26 60.4297 131.266L60.4317 131.267C60.4584 131.276 60.4846 131.285 60.5113 131.293L60.5128 131.294C60.5305 131.3 60.5481 131.305 60.5657 131.311L60.5675 131.312C60.5851 131.318 60.6029 131.323 60.6205 131.329L60.6221 131.33C60.6401 131.336 60.6577 131.341 60.6757 131.347H60.6766C60.7036 131.356 60.7309 131.365 60.7579 131.374H60.7581C60.7761 131.379 60.7937 131.385 60.8117 131.391L60.8136 131.392C60.8313 131.397 60.8492 131.403 60.8669 131.408L60.8681 131.409C60.8862 131.414 60.9041 131.42 60.9222 131.426H60.9226L60.9493 131.434H60.95C60.9683 131.44 60.9863 131.446 61.0046 131.451H61.005C61.0229 131.457 61.0413 131.463 61.0592 131.468L61.0603 131.469C61.0785 131.474 61.0966 131.48 61.1148 131.485H61.1149C61.1607 131.499 61.2064 131.513 61.2522 131.527H61.253C61.2714 131.532 61.2892 131.538 61.3077 131.543C61.3085 131.543 61.3075 131.543 61.3084 131.543C61.3267 131.549 61.3447 131.554 61.3632 131.559C61.3641 131.559 61.3627 131.559 61.3635 131.559L61.3908 131.568H61.3909C61.4091 131.573 61.4274 131.578 61.4456 131.584H61.4466C61.4648 131.589 61.4824 131.594 61.5006 131.599L61.5025 131.6C61.5206 131.605 61.5385 131.61 61.5566 131.615L61.5577 131.616C61.5758 131.621 61.5943 131.626 61.6125 131.631L61.6128 131.632C61.6591 131.645 61.7048 131.658 61.7513 131.67L61.7521 131.671C61.7706 131.676 61.7888 131.681 61.8073 131.686H61.8075L61.8351 131.693H61.8354C61.8539 131.699 61.8724 131.704 61.8909 131.709H61.8911C61.9094 131.714 61.9279 131.719 61.9463 131.723L61.9475 131.724C61.9658 131.729 61.9841 131.734 62.0026 131.739H62.003C62.0217 131.744 62.04 131.749 62.0585 131.754H62.059L62.0866 131.761H62.0868C62.1051 131.766 62.1236 131.771 62.142 131.775L62.1432 131.776C62.1615 131.781 62.1798 131.785 62.1983 131.79H62.1992C62.2176 131.795 62.2364 131.8 62.2547 131.804H62.2549C62.3013 131.816 62.3483 131.828 62.3947 131.84H62.3956C62.4143 131.845 62.4325 131.849 62.4511 131.854H62.4518C62.4705 131.859 62.4888 131.863 62.5077 131.868H62.5079C62.5548 131.879 62.6014 131.891 62.6486 131.902H62.6489C62.6676 131.906 62.6859 131.911 62.7048 131.915L62.7057 131.916L62.7331 131.922H62.7336C62.7523 131.926 62.7708 131.931 62.7896 131.935H62.7902C62.8087 131.94 62.8268 131.944 62.8453 131.948L62.8474 131.949C62.8657 131.953 62.8837 131.957 62.9021 131.961L62.9042 131.962C62.9227 131.966 62.941 131.97 62.9597 131.975H62.96C62.9881 131.981 63.0162 131.987 63.0442 131.993L63.0454 131.994L63.1009 132.006L63.1023 132.007C63.1206 132.011 63.1397 132.015 63.158 132.019H63.1592C63.1779 132.023 63.1966 132.027 63.2152 132.031H63.2156L63.2434 132.037H63.2442C63.2629 132.041 63.2812 132.045 63.2999 132.049L63.3017 132.05C63.32 132.054 63.3387 132.058 63.3572 132.061L63.3589 132.062C63.3772 132.066 63.3961 132.07 63.4146 132.073L63.4158 132.074C63.4441 132.079 63.4724 132.085 63.5007 132.091H63.5008C63.5199 132.095 63.5384 132.099 63.5576 132.103H63.5585C63.5775 132.106 63.596 132.11 63.6152 132.114H63.6154C63.644 132.12 63.6725 132.125 63.7011 132.131H63.7013L63.7578 132.142H63.7592C63.7777 132.146 63.7966 132.15 63.8151 132.153L63.8167 132.154C63.8352 132.157 63.8542 132.161 63.8729 132.164H63.8741C63.9022 132.17 63.9306 132.175 63.9586 132.18L63.96 132.181C63.9785 132.184 63.997 132.188 64.0157 132.191H64.0181C64.0368 132.195 64.0549 132.198 64.0736 132.202H64.0761L64.1031 132.207H64.1037L64.1318 132.212H64.1332L64.1599 132.217L64.1616 132.218C64.1799 132.221 64.199 132.224 64.2171 132.227L64.2196 132.228C64.2379 132.231 64.2566 132.234 64.2749 132.238H64.2777C64.296 132.241 64.3144 132.244 64.3327 132.247L64.3358 132.248L64.3624 132.252L64.3631 132.253L64.3915 132.257L64.3922 132.258L64.4195 132.262L64.4216 132.263C64.4399 132.266 64.4586 132.269 64.4771 132.272H64.4802C64.4985 132.275 64.5169 132.278 64.5354 132.281L64.5382 132.282L64.5652 132.286L64.5658 132.287L64.5939 132.291H64.596L64.6225 132.296H64.6242L64.6527 132.301H64.6529L64.6797 132.305H64.6831C64.7012 132.308 64.7201 132.311 64.7382 132.314H64.7415C64.7599 132.317 64.7782 132.32 64.7967 132.323L64.7997 132.324L64.8266 132.328H64.8271L64.8555 132.332H64.8568L64.8837 132.336H64.8861L64.9142 132.341H64.9147L64.9413 132.345H64.9453C64.9634 132.348 64.9814 132.35 64.9996 132.353L65.0043 132.354L65.0301 132.357L65.0313 132.358L65.0587 132.362H65.0626L65.087 132.365L65.0905 132.366L65.1181 132.37H65.1197L65.1455 132.374H65.1494C65.1677 132.377 65.186 132.379 65.2042 132.382H65.208C65.2263 132.385 65.2445 132.387 65.2628 132.39H65.267L65.2925 132.394H65.2942L65.3222 132.398H65.3246L65.3505 132.401L65.3531 132.402L65.3812 132.405H65.3817L65.4084 132.409H65.4124C65.4308 132.412 65.4489 132.414 65.4673 132.416L65.4714 132.417L65.4982 132.42H65.4987L65.5266 132.424H65.5301L65.5551 132.427L65.5586 132.428L65.5861 132.431L65.5886 132.432L65.6134 132.435H65.6184C65.6366 132.437 65.6547 132.44 65.6727 132.442H65.6774C65.6956 132.444 65.7134 132.447 65.7316 132.449H65.7375L65.7616 132.452H65.764L65.7914 132.455L65.7955 132.456L65.8195 132.459H65.8236L65.8511 132.462L65.8531 132.463L65.8784 132.465L65.8833 132.466C65.9014 132.468 65.9192 132.47 65.9372 132.472H65.9433L65.9671 132.475H65.9702L65.9967 132.478L66.0021 132.479L66.0261 132.481L66.0297 132.482L66.057 132.485H66.0605L66.0845 132.487L66.0893 132.488C66.1074 132.49 66.1259 132.492 66.1441 132.494H66.1488C66.1671 132.496 66.1851 132.498 66.2034 132.5H66.2081L66.2335 132.503H66.2356L66.2631 132.506H66.2672L66.2914 132.508L66.2954 132.509L66.3228 132.511L66.3258 132.512L66.3506 132.514L66.3553 132.515C66.3736 132.516 66.3914 132.518 66.4096 132.52H66.4154L66.4407 132.522H66.4424L66.4697 132.525H66.4749L66.4995 132.528H66.5023L66.5302 132.53L66.5334 132.531L66.5578 132.533H66.5629L66.5905 132.535H66.5908L66.6172 132.538H66.6228C66.6407 132.54 66.6591 132.541 66.6771 132.543H66.6832L66.7073 132.545H66.71L66.7373 132.548H66.7423L66.7656 132.55H66.7704L66.7973 132.552H66.8013L66.8251 132.554H66.8302L66.8576 132.556L66.859 132.557L66.8843 132.559H66.8911L66.915 132.561H66.9181L66.9447 132.563H66.951L66.9735 132.565H66.9785L67.0053 132.567H67.0103L67.0327 132.569L67.0393 132.57L67.0658 132.571H67.069L67.0931 132.573H67.0993C67.1173 132.574 67.135 132.576 67.1531 132.577H67.1596L67.1837 132.579H67.1866L67.2137 132.58L67.2195 132.581L67.2423 132.582L67.2474 132.583L67.2743 132.584H67.2793L67.3019 132.586H67.3081L67.3352 132.588H67.3368L67.3623 132.589H67.3684L67.3935 132.591H67.3958L67.4228 132.592L67.4286 132.593L67.4522 132.594H67.4562L67.4834 132.595L67.4883 132.596L67.5115 132.597H67.5171L67.5442 132.599H67.5477L67.5714 132.6H67.578L67.6049 132.601H67.6058L67.6316 132.603H67.6388L67.6627 132.604H67.6655L67.6922 132.605L67.6992 132.606L67.721 132.607H67.7268L67.7533 132.608H67.7592L67.7809 132.609H67.7877L67.8142 132.61H67.8179L67.8415 132.611L67.8484 132.612H67.8722L67.8757 132.613H67.9017L67.9094 132.614L67.9303 132.615H67.9368L67.9624 132.616H67.97H67.9906L67.9975 132.617H68.0237L68.0291 132.618H68.0511H68.0585L68.085 132.619H68.0871L68.1117 132.62H68.1196L68.1438 132.621H68.1459H68.1733L68.1794 132.622H68.2023H68.2074L68.2339 132.623H68.2404L68.262 132.624H68.2686H68.2952H68.2994L68.3226 132.625H68.3297H68.3547H68.3572L68.3835 132.626H68.391L68.4132 132.627H68.4183H68.445H68.4513H68.4732H68.4797L68.5066 132.628H68.5106H68.534H68.5408H68.5677H68.5705L68.5946 132.629H68.6026H68.6257H68.6295H68.656H68.663H68.6857H68.6908H68.7173H68.7243H68.7452H68.7522H68.7788H68.784H68.8063H68.8137H68.8406L68.8467 132.628Z" fill="#FFB800"/>
<path d="M68.8465 125.3C79.131 125.3 87.4683 117.098 87.4683 106.98C87.4683 96.8621 79.131 88.6599 68.8465 88.6599C58.5619 88.6599 50.2246 96.8621 50.2246 106.98C50.2246 117.098 58.5619 125.3 68.8465 125.3Z" fill="#FFE152"/>
<path d="M50.2252 110.752C48.1666 110.752 46.501 109.219 46.501 107.195V106.981C46.5144 94.8451 56.5111 85.0104 68.8465 84.9972C73.8814 84.9792 78.7719 86.6508 82.7107 89.7364C84.3236 90.9932 84.5955 93.2984 83.318 94.8851C82.0405 96.4719 79.6973 96.7395 78.0844 95.4826C75.4606 93.4258 72.2015 92.3119 68.8465 92.3251C60.6228 92.3337 53.9583 98.8902 53.9495 106.981C53.9495 109.004 52.2838 110.752 50.2252 110.752Z" fill="#FFEE9D"/>
<path d="M74.4326 103.317H63.2598C62.2314 103.317 61.3976 102.496 61.3976 101.485C61.3976 100.473 62.2314 99.6526 63.2598 99.6526H76.2947C78.3516 99.6514 80.0181 98.0101 80.0167 95.9866C80.0154 93.9648 78.3498 92.3262 76.2947 92.325H63.2598C58.1177 92.325 53.9492 96.4259 53.9492 101.485C53.9492 106.543 58.1177 110.644 63.2598 110.644H74.4326C75.461 110.644 76.2947 111.465 76.2947 112.476C76.2947 113.488 75.461 114.308 74.4326 114.308H61.3976C59.3408 114.308 57.6734 115.949 57.6734 117.972C57.6734 119.996 59.3408 121.636 61.3976 121.636H74.4326C79.5746 121.636 83.7431 117.535 83.7431 112.476C83.7431 107.418 79.5746 103.317 74.4326 103.317Z" fill="#FFF7D2"/>
<path d="M7.24207 143.622H135.172C136.505 143.622 137.586 144.703 137.586 146.036V158.105H4.82812V146.036C4.82812 144.703 5.90906 143.622 7.24207 143.622Z" fill="#005EEE"/>
<path d="M137.586 61.5536H2.41394C1.08093 61.5536 1.24798e-06 60.4727 1.24798e-06 59.1397V46.4355C-0.00106687 45.3802 0.683595 44.4467 1.68976 44.1305L67.8542 23.5992C69.2523 23.1645 70.7477 23.1645 72.1458 23.5992L138.31 44.1305C139.316 44.4467 140.001 45.3802 140 46.4355V59.1397C140 60.4727 138.919 61.5536 137.586 61.5536Z" fill="#079CFF"/>
<path d="M12.0684 50.2221L69.2755 33.2634C69.7412 33.1192 70.239 33.1192 70.7047 33.2634L129.019 50.2221H12.0684Z" fill="#0784FF"/>
<path d="M2.41394 153.277H137.586C138.919 153.277 140 154.358 140 155.691V160.519C140 161.852 138.919 162.933 137.586 162.933H2.41394C1.08093 162.933 0 161.852 0 160.519V155.691C0 154.358 1.08093 153.277 2.41394 153.277Z" fill="#079CFF"/>
<path opacity="0.24" d="M101.7 50.2222H128.251C129.999 50.2222 131.416 51.6396 131.416 53.3879C131.416 55.1362 129.999 56.5536 128.251 56.5536H101.7C99.9516 56.5536 98.5342 55.1362 98.5342 53.3879C98.5342 51.6396 99.9513 50.2222 101.7 50.2222Z" fill="#1D2025"/>
<g filter="url(#filter0_d_1_24)">
<path fill-rule="evenodd" clip-rule="evenodd" d="M131 64C144.255 64 155 53.2548 155 40C155 26.7452 144.255 16 131 16C117.745 16 107 26.7452 107 40C107 53.2548 117.745 64 131 64Z" fill="#1D2025"/>
</g>
<path fill-rule="evenodd" clip-rule="evenodd" d="M139.75 41.25H132.25V48.75H129.75V41.25H122.25V38.75H129.75V31.25H132.25V38.75H139.75V41.25Z" fill="#1D1D1D"/>
</g>
<defs>
<filter id="filter0_d_1_24" x="83" y="0" width="96" height="96" filterUnits="userSpaceOnUse" color-interpolation-filters="sRGB">
<feFlood flood-opacity="0" result="BackgroundImageFix"/>
<feColorMatrix in="SourceAlpha" type="matrix" values="0 0 0 0 0 0 0 0 0 0 0 0 0 0 0 0 0 0 127 0" result="hardAlpha"/>
<feOffset dy="8"/>
<feGaussianBlur stdDeviation="12"/>
<feColorMatrix type="matrix" values="0 0 0 0 0 0 0 0 0 0 0 0 0 0 0 0 0 0 0.1 0"/>
<feBlend mode="normal" in2="BackgroundImageFix" result="effect1_dropShadow_1_24"/>
<feBlend mode="normal" in="SourceGraphic" in2="effect1_dropShadow_1_24" result="shape"/>
</filter>
<clipPath id="clip0_1_24">
<rect width="179" height="163" fill="white"/>
</clipPath>
</defs>
</svg>
