<svg width="25" height="24" viewBox="0 0 25 24" fill="none" xmlns="http://www.w3.org/2000/svg">
<path fill-rule="evenodd" clip-rule="evenodd" d="M9.80707 16.2648V8.71512C9.80707 7.67704 10.6496 6.8277 11.7003 6.8277H20.22V5.884C20.22 4.84592 19.368 3.99658 18.3267 3.99658H5.07392C4.02316 3.99658 3.18066 4.84592 3.18066 5.884V19.0959C3.18066 20.134 4.02316 20.9833 5.07392 20.9833H18.3267C19.368 20.9833 20.22 20.134 20.22 19.0959V18.1522H11.7003C10.6496 18.1522 9.80707 17.3029 9.80707 16.2648ZM12.647 8.71512C12.1263 8.71512 11.7003 9.13979 11.7003 9.65882V15.3211C11.7003 15.8401 12.1263 16.2648 12.647 16.2648H21.1666V8.71512H12.647ZM15.4868 13.9055C14.7011 13.9055 14.0669 13.2732 14.0669 12.4899C14.0669 11.7067 14.7011 11.0744 15.4868 11.0744C16.2725 11.0744 16.9068 11.7067 16.9068 12.4899C16.9068 13.2732 16.2725 13.9055 15.4868 13.9055Z" fill="#C3C2C8"/>
</svg>
