<svg width="16" height="12" viewBox="0 0 16 12" fill="none" xmlns="http://www.w3.org/2000/svg">
<g clip-path="url(#clip0_427_5628)">
<path fill-rule="evenodd" clip-rule="evenodd" d="M9.98243 6.94267C9.42044 7.37697 8.60077 8.01041 7.99998 8.00004C7.39919 8.01041 6.57952 7.37697 6.01753 6.94267C5.90135 6.85288 5.79617 6.7716 5.70622 6.70628C1.86269 3.91703 1.31041 3.48483 0.488794 2.84186C0.423958 2.79112 0.357445 2.73907 0.287505 2.68444C0.106262 2.54067 0 2.32507 0 2.09381V1.50006C0 0.671935 0.671873 6.10352e-05 1.5 6.10352e-05H14.5C15.3281 6.10352e-05 16 0.671935 16 1.50006V2.09381C16 2.32507 15.8937 2.54382 15.7125 2.68444C15.659 2.7264 15.6075 2.76683 15.5572 2.8063C14.7089 3.4724 14.2086 3.86528 10.2937 6.70628C10.2038 6.7716 10.0986 6.85288 9.98243 6.94267ZM16 10.5C16 11.3281 15.3281 12 14.5 12H1.5C0.671873 12 0 11.3281 0 10.5V4.11254C0 3.95629 0.178131 3.8688 0.30313 3.96569C0.515246 4.13045 0.748311 4.30871 1.05885 4.54159L1.25492 4.6882C1.97687 5.22657 3.09033 6.0421 5.11873 7.51567C5.21869 7.58863 5.32907 7.67379 5.44827 7.76577C6.11536 8.2805 7.05879 9.00846 7.99998 9.00315C8.94555 9.01112 9.90457 8.26927 10.5612 7.76132C10.6793 7.66996 10.7876 7.58617 10.8843 7.51567C14.0718 5.20006 14.9969 4.50631 15.6968 3.96254C15.8187 3.86568 16 3.95629 16 4.10943V10.5Z" fill="#183B56"/>
</g>
<defs>
<clipPath id="clip0_427_5628">
<rect width="16" height="12" fill="white"/>
</clipPath>
</defs>
</svg>
