<svg width="80" height="64" viewBox="0 0 80 64" fill="none" xmlns="http://www.w3.org/2000/svg">
<path d="M1.33192 63H2.47192V59.064H6.85192V58.068H2.47192V55.056H7.16392V54.06H1.33192V63ZM10.3513 56.496C9.17533 56.496 8.14333 57.168 7.78333 58.032L8.70733 58.512C8.98333 57.888 9.58333 57.48 10.3513 57.48C11.1913 57.48 11.7913 57.96 11.7913 58.692V58.872L9.58333 59.364C8.29933 59.652 7.54333 60.3 7.54333 61.236C7.54333 62.352 8.45533 63.144 9.81133 63.144C10.6273 63.144 11.3833 62.748 11.8153 62.112V63H12.8233V58.692C12.8233 57.396 11.8033 56.496 10.3513 56.496ZM9.87133 62.22C9.11533 62.22 8.63533 61.836 8.63533 61.236C8.63533 60.72 9.10333 60.324 9.82333 60.168L11.7913 59.712V60.264C11.7913 61.38 10.9873 62.22 9.87133 62.22ZM16.9929 63.144C18.2289 63.144 19.2969 62.4 19.6929 61.464L18.7689 60.984C18.4569 61.68 17.8209 62.148 16.9929 62.148C15.7929 62.148 14.9049 61.14 14.9049 59.82C14.9049 58.476 15.7929 57.492 16.9929 57.492C17.8209 57.492 18.4569 57.96 18.7689 58.656L19.6929 58.176C19.2969 57.228 18.2409 56.496 16.9929 56.496C15.1689 56.496 13.8129 57.9 13.8129 59.808C13.8129 61.716 15.1689 63.144 16.9929 63.144ZM26.494 59.544C26.494 57.924 25.342 56.496 23.53 56.496C21.754 56.496 20.434 57.888 20.434 59.808C20.434 61.728 21.79 63.144 23.614 63.144C24.922 63.144 25.954 62.436 26.35 61.56L25.45 61.08C25.114 61.728 24.526 62.208 23.626 62.208C22.51 62.208 21.562 61.392 21.514 60.132H26.446C26.482 59.928 26.494 59.724 26.494 59.544ZM21.538 59.244C21.682 58.092 22.534 57.408 23.53 57.408C24.466 57.408 25.342 58.188 25.354 59.244H21.538ZM26.9545 63H28.1665L32.2105 54.06H30.9865L26.9545 63ZM35.1615 63H36.3015V55.056H38.7135V54.06H32.7255V55.056H35.1615V63ZM41.9443 63.144C43.7803 63.144 45.2203 61.74 45.2203 59.808C45.2203 57.876 43.7923 56.496 41.9443 56.496C40.0963 56.496 38.6683 57.876 38.6683 59.808C38.6683 61.74 40.1083 63.144 41.9443 63.144ZM41.9443 62.148C40.7083 62.148 39.7603 61.152 39.7603 59.82C39.7603 58.488 40.7083 57.492 41.9443 57.492C43.1803 57.492 44.1283 58.488 44.1283 59.82C44.1283 61.152 43.1803 62.148 41.9443 62.148ZM50.5143 56.64V60.492C50.5143 61.488 49.8783 62.148 48.9423 62.148C47.9823 62.148 47.3583 61.5 47.3583 60.492V56.64H46.3263V60.684C46.3263 62.04 47.3343 63.144 48.7143 63.144C49.4823 63.144 50.1663 62.82 50.5383 62.268V63H51.5463V56.64H50.5143ZM55.946 63.144C57.182 63.144 58.25 62.4 58.646 61.464L57.722 60.984C57.41 61.68 56.774 62.148 55.946 62.148C54.746 62.148 53.858 61.14 53.858 59.82C53.858 58.476 54.746 57.492 55.946 57.492C56.774 57.492 57.41 57.96 57.722 58.656L58.646 58.176C58.25 57.228 57.194 56.496 55.946 56.496C54.122 56.496 52.766 57.9 52.766 59.808C52.766 61.716 54.122 63.144 55.946 63.144ZM62.5911 56.496C61.8231 56.496 61.1631 56.808 60.7791 57.336V54.06H59.7471V63H60.7791V59.148C60.7791 58.152 61.4151 57.492 62.3631 57.492C63.3231 57.492 63.9351 58.152 63.9351 59.148V63H64.9671V58.824C64.9671 57.48 63.9711 56.496 62.5911 56.496ZM68.6093 63H69.7493V54.06H68.6093V63ZM71.5741 63H74.5141C77.2141 63 78.9661 61.212 78.9661 58.524C78.9661 55.824 77.2141 54.06 74.5141 54.06H71.5741V63ZM72.7141 62.004V55.056H74.5141C76.4941 55.056 77.7901 56.424 77.7901 58.524C77.7901 60.624 76.5061 62.004 74.5141 62.004H72.7141Z" fill="#1D2025"/>
<path d="M0.419922 65.64H79.5781V66.432H0.419922V65.64Z" fill="#1D2025"/>
<path fill-rule="evenodd" clip-rule="evenodd" d="M20.2344 12.0742V7.13281C20.2344 4.4318 22.4318 2.23438 25.1328 2.23438H30.0742C30.6912 2.23438 31.1914 1.73418 31.1914 1.11719C31.1914 0.500199 30.6912 0 30.0742 0H25.1328C21.1998 0 18 3.19975 18 7.13281V12.0742C18 12.6912 18.5002 13.1914 19.1172 13.1914C19.7342 13.1914 20.2344 12.6912 20.2344 12.0742ZM30.0742 41.7656C30.6912 41.7656 31.1914 42.2658 31.1914 42.8828C31.1914 43.4998 30.6912 44 30.0742 44H25.1328C21.1998 44 18 40.8002 18 36.8672V31.9258C18 31.3088 18.5002 30.8086 19.1172 30.8086C19.7342 30.8086 20.2344 31.3088 20.2344 31.9258V36.8672C20.2344 39.5682 22.4318 41.7656 25.1328 41.7656H30.0742ZM62 31.9258V36.8672C62 40.8002 58.8002 44 54.8672 44H49.9258C49.3088 44 48.8086 43.4998 48.8086 42.8828C48.8086 42.2658 49.3088 41.7656 49.9258 41.7656H54.8672C57.5682 41.7656 59.7656 39.5682 59.7656 36.8672V31.9258C59.7656 31.3088 60.2658 30.8086 60.8828 30.8086C61.4998 30.8086 62 31.3088 62 31.9258ZM62 7.13281V12.0742C62 12.6912 61.4998 13.1914 60.8828 13.1914C60.2658 13.1914 59.7656 12.6912 59.7656 12.0742V7.13281C59.7656 4.4318 57.5682 2.23438 54.8672 2.23438H49.9258C49.3088 2.23438 48.8086 1.73418 48.8086 1.11719C48.8086 0.500199 49.3088 0 49.9258 0H54.8672C58.8002 0 62 3.19975 62 7.13281ZM47.7099 32.5204C48.1806 32.0856 48.2097 31.3516 47.7749 30.8809C47.3401 30.4102 46.6062 30.3812 46.1355 30.8159C44.4607 32.3629 42.2817 33.2149 40.0001 33.2149C37.7184 33.2149 35.5394 32.3629 33.8646 30.8159C33.3939 30.3812 32.66 30.4103 32.2252 30.8809C31.7904 31.3516 31.8195 32.0856 32.2902 32.5204C34.395 34.4645 37.133 35.5352 40.0001 35.5352C42.8671 35.5352 45.6051 34.4645 47.7099 32.5204ZM42.3203 16.5859V24.8359C42.3203 26.4708 40.9903 27.8008 39.3555 27.8008H38.4102C37.7694 27.8008 37.25 27.2814 37.25 26.6406C37.25 25.9999 37.7694 25.4805 38.4102 25.4805H39.3555C39.7109 25.4805 40 25.1913 40 24.8359V16.5859C40 15.9452 40.5194 15.4258 41.1602 15.4258C41.8009 15.4258 42.3203 15.9452 42.3203 16.5859ZM50.3125 19.8301V16.5215C50.3125 15.9164 49.8219 15.4258 49.2168 15.4258C48.6117 15.4258 48.1211 15.9164 48.1211 16.5215V19.8301C48.1211 20.4352 48.6117 20.9258 49.2168 20.9258C49.8219 20.9258 50.3125 20.4352 50.3125 19.8301ZM29.9453 19.8301C29.9453 20.4352 30.4359 20.9258 31.041 20.9258C31.6461 20.9258 32.1367 20.4352 32.1367 19.8301V16.5215C32.1367 15.9164 31.6461 15.4258 31.041 15.4258C30.4359 15.4258 29.9453 15.9164 29.9453 16.5215V19.8301Z" fill="#1D2025"/>
</svg>
