<svg width="250" height="250" viewBox="0 0 250 250" fill="none" xmlns="http://www.w3.org/2000/svg">
<rect width="250" height="250" rx="50" fill="#23273C"/>
<path d="M140.11 88.636C140.11 84.536 137.527 81.83 132.484 80.272L131.172 79.862V71.006C133.181 71.744 134.698 73.343 135.477 75.598L139.946 73.548C138.675 70.022 135.477 67.152 131.172 66.25V62.15H127.523V65.963C121.66 66.25 117.724 69.735 117.724 74.737C117.724 78.673 120.184 81.707 125.227 83.224L127.523 83.921V92.777C124.735 92.203 122.357 90.194 121.168 87.037L116.74 89.046C118.134 93.474 122.275 96.795 127.523 97.41V101.1H131.172V97.369C136.584 96.754 140.11 93.392 140.11 88.636ZM126.703 78.509C124.243 77.771 122.931 76.377 122.931 74.491C122.931 72.359 124.735 70.76 127.523 70.555V78.755L126.703 78.509ZM131.172 92.736V85.069H131.213C133.632 85.807 134.903 86.914 134.903 89.005C134.903 90.809 133.509 92.244 131.172 92.736Z" fill="#A2A2A3"/>
<path d="M128.989 54.5625C113.773 54.5625 101.389 66.9557 101.389 82.1719C101.389 86.8798 102.585 91.3052 104.673 95.188C101.597 93.0577 98.0463 91.6211 94.2363 91.106C86.5544 90.0676 79.0144 93.042 73.6963 98.667C73.258 98.8122 72.8738 99.0863 72.5939 99.4534C72.3139 99.8206 72.1513 100.264 72.1272 100.725C72.1032 101.186 72.2188 101.643 72.459 102.038C72.6992 102.432 73.0529 102.745 73.4736 102.935C73.5313 102.962 73.5901 102.987 73.6499 103.009C77.23 104.268 80.2975 106.544 82.584 109.475C76.7388 114.15 72.0866 119.734 69.0762 125.97L69.0854 125.915L69.4102 125.265H67.3599C58.5057 125.265 51.3008 132.46 51.3008 141.315V150.49C51.3008 159.345 58.5057 166.54 67.3599 166.54H72.416L72.0171 165.39C72.0835 165.577 72.1739 165.755 72.2861 165.918C76.4968 172.129 82.4058 177.422 89.4585 181.56V198.231C89.4442 199.507 90.474 200.55 91.75 200.551H110.091C111.36 200.555 112.391 199.528 112.392 198.259V189.594C123.127 191.405 134.15 190.764 144.492 187.841V198.25C144.493 199.515 145.518 200.54 146.783 200.542H165.134C166.399 200.54 167.424 199.515 167.425 198.25V176.226C182.128 164.029 187.447 146.494 182.102 130.553C188.675 126.084 190.682 120.675 190.934 115.774C194.372 112.45 197.246 107.344 197.586 97.999C197.602 97.6818 197.555 97.3645 197.446 97.066C197.337 96.7675 197.17 96.4938 196.954 96.2611C196.737 96.0284 196.477 95.8415 196.187 95.7113C195.897 95.5812 195.584 95.5105 195.267 95.5034C194.955 95.4973 194.645 95.5527 194.354 95.6664C194.064 95.7801 193.798 95.9499 193.574 96.1662C193.349 96.3824 193.169 96.6408 193.044 96.9267C192.919 97.2125 192.851 97.5201 192.845 97.832C192.653 103.107 191.535 106.404 190.303 109.058C189.214 107.033 187.704 105.343 185.46 104.966C184.02 104.724 182.438 105.095 181.156 105.987C179.873 106.877 178.848 108.208 178.02 109.93C177.989 109.999 177.961 110.071 177.937 110.143C176.873 113.063 177.473 116.103 179.356 117.927C181.049 119.567 183.608 119.802 186.073 119.291C185.095 121.487 183.298 123.808 180.293 126.017C179.051 123.408 177.53 120.858 175.673 118.409C169.373 110.103 160.34 103.883 150.012 100.012C154.109 95.1956 156.599 88.9729 156.599 82.1719C156.599 66.9557 144.205 54.5625 128.989 54.5625ZM161.302 58.0879V62.5967H156.803V67.3467H161.302V71.8462H166.052V67.3467H170.561V62.5967H166.052V58.0879H161.302ZM128.989 59.3125C141.638 59.3125 151.849 69.5231 151.849 82.1719C151.849 94.8211 141.638 105.022 128.989 105.022C116.34 105.022 106.139 94.8211 106.139 82.1719C106.139 69.5231 116.34 59.3125 128.989 59.3125ZM90.2935 62.6709C86.5206 62.6709 83.4095 65.7818 83.4097 69.5547C83.4099 73.3271 86.5209 76.4385 90.2935 76.4385C94.066 76.4385 97.1678 73.3271 97.168 69.5547C97.1682 65.7818 94.0663 62.6709 90.2935 62.6709ZM90.2935 67.2632C91.5873 67.2632 92.585 68.2608 92.585 69.5547C92.5849 70.8481 91.5872 71.8462 90.2935 71.8462C88.9997 71.8462 88.002 70.8481 88.002 69.5547C88.0019 68.2608 88.9996 67.2632 90.2935 67.2632ZM91.5181 95.4941C92.2133 95.5006 92.9188 95.5566 93.624 95.6519C100.163 96.5358 105.83 100.693 108.7 106.738C108.819 107.026 108.995 107.286 109.218 107.503C109.44 107.72 109.705 107.89 109.995 108.001C110.286 108.113 110.596 108.164 110.907 108.153C111.217 108.141 111.523 108.066 111.803 107.932C112.084 107.799 112.335 107.609 112.541 107.376C112.746 107.142 112.902 106.869 112.999 106.574C113.095 106.278 113.131 105.966 113.103 105.656C113.076 105.346 112.985 105.045 112.837 104.771C112.761 104.61 112.657 104.466 112.578 104.308C117.172 107.723 122.84 109.772 128.989 109.772C135.564 109.772 141.608 107.446 146.356 103.593C156.829 107.117 165.932 113.159 172.018 121.183C184.883 138.148 181.623 159.378 163.807 173.489C163.628 173.632 163.472 173.801 163.343 173.99L163.241 174.129C162.98 174.512 162.841 174.964 162.842 175.428V195.949H149.084V185.15C149.084 184.824 149.014 184.501 148.88 184.204L148.843 184.139C148.36 183.069 147.146 182.536 146.032 182.905C134.949 186.565 122.609 187.276 110.954 184.918C110.294 184.785 109.609 184.947 109.08 185.364L108.672 185.688C108.121 186.123 107.8 186.787 107.8 187.488V195.949H94.0415V180.465C94.0431 179.77 93.7292 179.111 93.188 178.675L92.6313 178.239C92.5379 178.163 92.4386 178.095 92.3345 178.035C85.6066 174.199 80.1277 169.219 76.229 163.534H76.2197C75.8982 162.611 75.0268 161.992 74.0488 161.994H67.3599C62.7634 161.994 58.8805 159.351 57.0435 155.5H64.2612V150.75H55.9116C55.9102 150.674 55.8931 150.604 55.8931 150.527V148.292H60.3184V143.708H55.8931V141.352C55.8931 134.96 60.9675 129.885 67.3599 129.885H70.8296C71.702 129.888 72.5002 129.395 72.8892 128.614L73.1953 127.993H73.2046C75.8113 122.592 79.8693 117.679 85.0054 113.474C85.4676 114.49 85.8737 115.545 86.165 116.646C86.236 116.944 86.3657 117.224 86.5465 117.471C86.7273 117.717 86.9556 117.925 87.2179 118.082C87.4803 118.239 87.7714 118.342 88.0741 118.385C88.3768 118.428 88.6851 118.41 88.9808 118.332C89.2764 118.254 89.5535 118.118 89.7958 117.931C90.038 117.745 90.2405 117.512 90.3913 117.246C90.5421 116.98 90.6383 116.686 90.674 116.383C90.7098 116.079 90.6845 115.771 90.5996 115.478C90.2453 114.138 89.7382 112.878 89.1523 111.674C89.1485 111.666 89.1377 111.663 89.1338 111.655C87.3712 108.042 84.6207 105.09 81.3408 102.749C83.4379 102.671 86.5492 101.923 87.6958 102.424C89.9734 103.417 91.1925 105.32 92.1304 108.872C92.2013 109.169 92.331 109.45 92.5118 109.696C92.6926 109.943 92.9209 110.151 93.1833 110.308C93.4456 110.465 93.7367 110.568 94.0394 110.611C94.3422 110.654 94.6504 110.636 94.9461 110.558C95.2417 110.48 95.5188 110.344 95.7611 110.157C96.0033 109.97 96.2058 109.737 96.3566 109.471C96.5074 109.205 96.6036 108.912 96.6394 108.608C96.6751 108.305 96.6498 107.997 96.5649 107.703C95.4515 103.486 93.3604 99.8942 89.5234 98.2217C87.9445 97.5336 86.1165 97.2445 84.1055 97.1826C86.447 96.142 88.9226 95.4699 91.5181 95.4941ZM82.6118 109.521C83.0625 110.102 83.488 110.7 83.8735 111.331C83.4894 110.702 83.0623 110.102 82.6118 109.521ZM184.672 109.651C185.136 109.727 186.191 110.499 186.759 112.221C186.883 112.596 186.587 113.269 186.657 113.706C186.245 113.957 185.779 114.789 185.414 114.902C184.079 115.316 183.15 114.988 182.659 114.513C182.183 114.052 181.908 113.319 182.408 111.85C182.943 110.807 183.49 110.144 183.865 109.883C184.266 109.603 184.44 109.613 184.672 109.651ZM83.9292 111.433C84.3154 112.073 84.6631 112.732 84.9775 113.418C84.6632 112.732 84.3141 112.071 83.9292 111.433ZM110.75 112.75V117.5H147.442V112.75H110.75ZM92.585 125.126C88.7514 125.126 85.5437 128.343 85.5435 132.177C85.5437 136.01 88.7514 139.218 92.585 139.218C96.4185 139.218 99.6263 136.01 99.6265 132.177C99.6263 128.343 96.4185 125.126 92.585 125.126ZM92.585 129.718C93.8854 129.718 95.0434 130.876 95.0435 132.177C95.0434 133.477 93.8854 134.626 92.585 134.626C91.2845 134.626 90.1265 133.477 90.1265 132.177C90.1265 130.876 91.2845 129.718 92.585 129.718ZM167.184 176.485L167.128 176.578L166.655 177.088C166.878 176.913 166.965 176.665 167.184 176.485Z" fill="#A2A2A3"/>
</svg>
