<svg width="29" height="29" viewBox="0 0 29 29" fill="none" xmlns="http://www.w3.org/2000/svg">
<g clip-path="url(#clip0_8_91)">
<path d="M14.5007 5.7998C12.9884 5.80172 11.5386 6.40333 10.4693 7.47267C9.39991 8.54202 8.79831 9.99182 8.79639 11.5041H11.6964C11.6964 9.95695 12.955 8.6998 14.5007 8.6998C16.0464 8.6998 17.305 9.95695 17.305 11.5041C17.305 12.3712 16.6075 13.0005 15.5418 13.8618C15.1936 14.1345 14.8592 14.4244 14.5398 14.7304C13.0927 16.176 13.0507 17.7116 13.0507 17.8827V18.8498H15.9507L15.9492 17.932C15.9507 17.9088 15.9971 17.3723 16.5887 16.7821C16.8062 16.5646 17.0802 16.3471 17.3644 16.118C18.494 15.2031 20.2035 13.8212 20.2035 11.5041C20.2024 9.99183 19.6012 8.54181 18.532 7.47234C17.4628 6.40287 16.013 5.80134 14.5007 5.7998ZM13.0507 20.2998H15.9507V23.1998H13.0507V20.2998Z" fill="#FCFCFD"/>
<path d="M14.5005 0C6.50519 0 0.000488281 6.5047 0.000488281 14.5C0.000488281 22.4953 6.50519 29 14.5005 29C22.4958 29 29.0005 22.4953 29.0005 14.5C29.0005 6.5047 22.4958 0 14.5005 0ZM14.5005 26.1C8.10454 26.1 2.90049 20.896 2.90049 14.5C2.90049 8.10405 8.10454 2.9 14.5005 2.9C20.8964 2.9 26.1005 8.10405 26.1005 14.5C26.1005 20.896 20.8964 26.1 14.5005 26.1Z" fill="#FCFCFD"/>
</g>
<defs>
<clipPath id="clip0_8_91">
<rect width="29" height="29" fill="white"/>
</clipPath>
</defs>
</svg>
