<svg width="22" height="18" viewBox="0 0 22 18" fill="none" xmlns="http://www.w3.org/2000/svg">
<path d="M18.3313 13.6927C20.6548 11.6559 21.9388 9.34802 21.9388 9.34802C21.9388 9.34802 17.841 1.96826 11.0113 1.96826C9.69942 1.9727 8.40242 2.24121 7.20032 2.75722L8.25209 3.79173C9.13644 3.47528 10.0701 3.31229 11.0113 3.31004C13.9071 3.31004 16.3097 4.87723 18.0704 6.60677C18.9178 7.44363 19.6774 8.36199 20.3379 9.34802C20.2587 9.46475 20.1712 9.59356 20.0715 9.73445C19.6139 10.3785 18.9378 11.2372 18.0704 12.0893C17.8451 12.3107 17.6101 12.5294 17.3642 12.7414L18.3313 13.6927Z" fill="black"/>
<path d="M15.5151 10.9257C15.8199 10.0882 15.8763 9.1829 15.6779 8.31514C15.4794 7.44738 15.0341 6.65282 14.3939 6.02393C13.7537 5.39503 12.9448 4.95765 12.0614 4.76267C11.178 4.5677 10.2564 4.62315 9.40388 4.92257L10.528 6.02685C11.053 5.95304 11.5882 6.00034 12.0913 6.16501C12.5944 6.32967 13.0516 6.60716 13.4265 6.9755C13.8015 7.34384 14.084 7.79291 14.2516 8.28711C14.4193 8.78131 14.4674 9.30707 14.3923 9.82273L15.5151 10.9257ZM11.4951 12.6686L12.6179 13.7716C11.7654 14.071 10.8438 14.1264 9.96039 13.9315C9.077 13.7365 8.26814 13.2991 7.62792 12.6702C6.9877 12.0413 6.54244 11.2468 6.34395 10.379C6.14547 9.51124 6.20192 8.60595 6.50673 7.76848L7.6309 8.87276C7.55576 9.38841 7.60391 9.91417 7.77154 10.4084C7.93916 10.9026 8.22166 11.3516 8.59663 11.72C8.9716 12.0883 9.42875 12.3658 9.93186 12.5305C10.435 12.6951 10.9702 12.7424 11.4951 12.6686Z" fill="black"/>
<path d="M4.65999 5.95321C4.41412 6.16789 4.17782 6.38526 3.95244 6.60665C3.10507 7.44351 2.34544 8.36187 1.68498 9.3479L1.95134 9.73433C2.40893 10.3784 3.08507 11.2371 3.95244 12.0891C5.71313 13.8187 8.11718 15.3859 11.0116 15.3859C11.9896 15.3859 12.9102 15.2074 13.7708 14.9028L14.8226 15.9387C13.6204 16.4547 12.3234 16.7232 11.0116 16.7277C4.18191 16.7277 0.0841064 9.3479 0.0841064 9.3479C0.0841064 9.3479 1.36672 7.03871 3.69154 5.00323L4.65863 5.95455L4.65999 5.95321ZM18.7237 17.8735L2.33244 1.77224L3.29952 0.822266L19.6908 16.9236L18.7237 17.8735Z" fill="black"/>
</svg>
