<svg width="22" height="22" viewBox="0 0 22 22" fill="none" xmlns="http://www.w3.org/2000/svg">
<path d="M1.94503 12.3334H16.8384L10.3317 18.84C9.81169 19.36 9.81169 20.2134 10.3317 20.7334C10.8517 21.2534 11.6917 21.2534 12.2117 20.7334L20.9984 11.9467C21.5184 11.4267 21.5184 10.5867 20.9984 10.0667L12.225 1.26669C11.9759 1.01702 11.6377 0.876709 11.285 0.876709C10.9323 0.876709 10.5941 1.01702 10.345 1.26669C9.82503 1.78669 9.82503 2.62669 10.345 3.14669L16.8384 9.66669H1.94503C1.21169 9.66669 0.611694 10.2667 0.611694 11C0.611694 11.7334 1.21169 12.3334 1.94503 12.3334Z" fill="#BBC8D4"/>
</svg>
