<svg width="19" height="19" viewBox="0 0 19 19" fill="none" xmlns="http://www.w3.org/2000/svg">
<path fill-rule="evenodd" clip-rule="evenodd" d="M16.2697 0.207764H2.28067C1.18152 0.207764 0.282227 1.10706 0.282227 2.2062V16.1953C0.282227 17.2944 1.18152 18.1937 2.28067 18.1937H16.2697C17.3689 18.1937 18.2682 17.2944 18.2682 16.1953V2.2062C18.2682 1.10706 17.3689 0.207764 16.2697 0.207764ZM5.02852 14.1968C4.34156 14.1968 3.77949 13.7472 3.77949 13.1976V8.20152C3.77949 7.65195 4.34156 7.2023 5.02852 7.2023C5.71548 7.2023 6.27754 7.65195 6.27754 8.20152V13.1976C6.27754 13.7472 5.71548 14.1968 5.02852 14.1968ZM9.52501 14.1968C8.83804 14.1968 8.27598 13.7472 8.27598 13.1976V5.20386C8.27598 4.65429 8.83804 4.20464 9.52501 4.20464C10.212 4.20464 10.774 4.65429 10.774 5.20386V13.1976C10.774 13.7472 10.212 14.1968 9.52501 14.1968ZM14.0215 14.1968C13.3345 14.1968 12.7725 13.7472 12.7725 13.1976V11.1992C12.7725 10.6496 13.3345 10.2 14.0215 10.2C14.7085 10.2 15.2705 10.6496 15.2705 11.1992V13.1976C15.2705 13.7472 14.7085 14.1968 14.0215 14.1968Z" fill="#C3C2C8"/>
</svg>
