<svg width="25" height="25" viewBox="0 0 25 25" fill="none" xmlns="http://www.w3.org/2000/svg">
<path fill-rule="evenodd" clip-rule="evenodd" d="M3.99121 5.2062V19.1953C3.99121 20.2944 4.88052 21.1937 5.98965 21.1937H19.9787C21.0779 21.1937 21.9772 20.2944 21.9772 19.1953V5.2062C21.9772 4.10706 21.0779 3.20776 19.9787 3.20776H5.98965C4.88052 3.20776 3.99121 4.10706 3.99121 5.2062ZM15.9818 9.20308C15.9818 10.8618 14.6429 12.2007 12.9842 12.2007C11.3255 12.2007 9.98653 10.8618 9.98653 9.20308C9.98653 7.54438 11.3255 6.20542 12.9842 6.20542C14.6429 6.20542 15.9818 7.54438 15.9818 9.20308ZM6.98887 17.1968C6.98887 15.1984 10.9857 14.0993 12.9842 14.0993C14.9826 14.0993 18.9795 15.1984 18.9795 17.1968V18.1961H6.98887V17.1968Z" fill="#C3C2C8"/>
</svg>
