<svg width="64" height="64" viewBox="0 0 64 64" fill="none" xmlns="http://www.w3.org/2000/svg">
<path d="M32 44C43.0457 44 52 35.0457 52 24C52 12.9543 43.0457 4 32 4C20.9543 4 12 12.9543 12 24C12 35.0457 20.9543 44 32 44Z" fill="#1A2537"/>
<g filter="url(#filter0_d_7_86)">
<path d="M32.0002 39.2943C40.4469 39.2943 47.2943 32.4469 47.2943 24.0002C47.2943 15.5535 40.4469 8.70605 32.0002 8.70605C23.5535 8.70605 16.7061 15.5535 16.7061 24.0002C16.7061 32.4469 23.5535 39.2943 32.0002 39.2943Z" fill="#FF5460"/>
</g>
<mask id="mask0_7_86" style="mask-type:alpha" maskUnits="userSpaceOnUse" x="16" y="8" width="32" height="32">
<path d="M32.0002 39.2943C40.4469 39.2943 47.2943 32.4469 47.2943 24.0002C47.2943 15.5535 40.4469 8.70605 32.0002 8.70605C23.5535 8.70605 16.7061 15.5535 16.7061 24.0002C16.7061 32.4469 23.5535 39.2943 32.0002 39.2943Z" fill="white"/>
</mask>
<g mask="url(#mask0_7_86)">
<path fill-rule="evenodd" clip-rule="evenodd" d="M37.4848 24.7789H32.7789V29.4848H31.2103V24.7789H26.5044V23.2103H31.2103V18.5044H32.7789V23.2103H37.4848V24.7789Z" fill="#FCFCFD"/>
</g>
<defs>
<filter id="filter0_d_7_86" x="0.7061" y="0.706055" width="62.5882" height="62.5883" filterUnits="userSpaceOnUse" color-interpolation-filters="sRGB">
<feFlood flood-opacity="0" result="BackgroundImageFix"/>
<feColorMatrix in="SourceAlpha" type="matrix" values="0 0 0 0 0 0 0 0 0 0 0 0 0 0 0 0 0 0 127 0" result="hardAlpha"/>
<feOffset dy="8"/>
<feGaussianBlur stdDeviation="8"/>
<feColorMatrix type="matrix" values="0 0 0 0 1 0 0 0 0 0.2 0 0 0 0 0.47076 0 0 0 0.2 0"/>
<feBlend mode="normal" in2="BackgroundImageFix" result="effect1_dropShadow_7_86"/>
<feBlend mode="normal" in="SourceGraphic" in2="effect1_dropShadow_7_86" result="shape"/>
</filter>
</defs>
</svg>
